<svg id="svg" version="1.1" xmlns="http://www.w3.org/2000/svg" xmlns:xlink="http://www.w3.org/1999/xlink" width="400" height="400" viewBox="0, 0, 400,400"><g id="svgg"><path id="path0" d="M191.000 68.805 C 184.461 69.371,181.674 69.806,173.400 71.550 C 166.507 73.004,163.306 73.944,155.800 76.721 C 150.388 78.723,149.199 79.250,143.000 82.398 C 135.675 86.118,122.840 94.006,121.600 95.551 C 121.490 95.688,120.590 96.423,119.600 97.184 C 111.954 103.065,99.801 115.917,94.600 123.622 C 93.940 124.600,93.263 125.580,93.096 125.800 C 92.589 126.466,88.745 132.491,87.736 134.200 C 85.603 137.812,81.600 146.232,81.600 147.107 C 81.600 148.783,84.755 148.233,85.650 146.400 C 88.743 140.063,89.793 138.077,91.992 134.400 C 94.501 130.205,96.729 126.778,97.193 126.400 C 97.328 126.290,97.871 125.570,98.400 124.800 C 105.848 113.955,122.837 97.995,133.213 92.095 C 133.976 91.662,136.040 90.423,137.800 89.342 C 146.695 83.882,161.412 77.923,171.600 75.656 C 172.590 75.436,174.210 75.073,175.200 74.848 C 180.157 73.726,181.048 73.595,191.827 72.402 C 193.822 72.181,198.310 72.000,201.800 72.000 C 205.290 72.000,209.778 72.181,211.773 72.402 C 223.361 73.684,223.283 73.672,231.800 75.596 C 234.770 76.267,243.042 78.768,245.000 79.587 C 245.440 79.771,246.880 80.329,248.200 80.826 C 249.520 81.324,250.780 81.852,251.000 82.000 C 251.220 82.148,252.480 82.695,253.800 83.216 C 258.038 84.888,268.047 90.305,270.800 92.417 C 271.570 93.007,272.740 93.771,273.400 94.113 C 283.413 99.308,302.307 119.268,310.854 133.679 C 313.335 137.862,313.771 138.655,315.815 142.691 C 316.955 144.941,318.115 147.056,318.393 147.391 C 318.926 148.034,321.800 148.246,322.157 147.670 C 322.340 147.374,318.156 138.732,316.119 135.200 C 307.911 120.967,300.242 111.739,286.187 99.182 C 282.680 96.048,273.796 89.705,269.319 87.137 C 261.217 82.489,253.078 78.554,248.000 76.830 C 246.570 76.345,245.040 75.791,244.600 75.600 C 243.818 75.260,239.788 73.933,237.400 73.228 C 236.740 73.034,235.210 72.660,234.000 72.398 C 226.036 70.674,225.355 70.532,222.800 70.052 C 215.802 68.738,199.269 68.089,191.000 68.805 M189.600 81.235 C 188.170 81.420,185.470 81.773,183.600 82.019 C 171.646 83.593,156.408 88.802,144.800 95.283 C 143.810 95.836,142.119 96.774,141.042 97.369 C 123.978 106.783,106.155 125.906,96.140 145.546 C 92.950 151.801,92.920 152.000,95.182 152.000 L 96.716 152.000 98.394 148.500 C 105.480 133.723,116.583 119.879,129.896 109.225 C 134.082 105.874,141.259 100.800,141.813 100.800 C 141.946 100.800,142.808 100.295,143.728 99.678 C 146.267 97.973,155.771 93.370,160.000 91.796 C 160.990 91.427,162.160 90.970,162.600 90.780 C 165.349 89.591,173.615 87.171,177.800 86.331 C 178.900 86.110,180.610 85.766,181.600 85.566 C 186.057 84.665,192.932 84.200,201.800 84.200 C 214.461 84.200,221.068 84.956,230.800 87.520 C 233.810 88.313,239.503 90.132,241.000 90.780 C 241.440 90.970,242.610 91.427,243.600 91.796 C 247.540 93.262,255.089 96.879,259.000 99.174 C 260.320 99.949,261.894 100.856,262.498 101.191 C 271.533 106.200,285.986 119.535,293.722 130.000 C 294.780 131.430,295.879 132.887,296.165 133.238 C 296.975 134.230,300.000 138.733,300.000 138.947 C 300.000 139.051,300.861 140.636,301.913 142.468 C 302.965 144.301,304.511 147.195,305.348 148.900 L 306.869 152.000 308.635 152.000 C 309.606 152.000,310.400 151.932,310.400 151.850 C 310.400 151.654,305.951 143.023,304.911 141.200 C 293.819 121.764,278.651 106.597,259.400 95.694 C 255.753 93.629,248.711 90.266,245.800 89.200 C 244.688 88.793,243.182 88.187,242.000 87.670 C 239.340 86.508,233.429 84.792,226.800 83.255 C 223.646 82.524,221.862 82.248,213.471 81.193 C 209.757 80.726,193.307 80.755,189.600 81.235 M203.038 95.411 C 200.063 96.962,200.238 102.400,203.263 102.400 C 204.262 102.400,207.200 104.164,207.200 104.764 C 207.200 106.371,205.529 106.883,204.464 105.601 C 202.766 103.559,199.936 104.301,200.986 106.513 C 202.588 109.890,209.774 109.635,210.643 106.171 C 211.348 103.362,210.549 102.406,205.707 100.267 C 204.758 99.847,204.183 98.674,204.598 98.004 C 205.034 97.298,206.750 97.559,207.200 98.400 C 207.633 99.209,210.511 99.590,210.941 98.896 C 212.442 96.467,206.250 93.736,203.038 95.411 M190.809 95.877 C 190.830 97.562,191.612 106.657,191.840 107.874 C 192.048 108.980,192.264 109.199,193.145 109.194 C 195.319 109.181,195.383 108.961,194.858 103.334 C 194.594 100.510,194.338 97.570,194.289 96.800 C 194.185 95.159,190.789 94.258,190.809 95.877 M180.900 96.812 C 179.907 97.212,179.826 97.522,180.362 98.881 C 181.743 102.389,181.816 105.575,180.483 104.164 C 180.086 103.744,178.563 102.244,177.100 100.831 L 174.439 98.262 172.819 98.747 C 171.086 99.266,170.988 99.473,171.588 101.372 C 171.802 102.047,172.526 104.840,173.198 107.577 C 174.632 113.416,174.373 113.003,176.212 112.396 C 177.809 111.869,177.796 111.952,176.843 108.200 C 175.628 103.421,175.609 103.426,179.823 107.386 C 184.465 111.748,187.408 111.578,186.027 107.028 C 185.602 105.629,185.059 103.499,184.387 100.600 C 183.407 96.372,183.026 95.958,180.900 96.812 M221.095 97.533 C 214.197 99.201,214.539 109.911,221.537 111.396 C 224.418 112.008,229.527 109.900,228.640 108.465 C 228.259 107.849,225.460 107.599,224.170 108.065 C 220.056 109.553,217.571 103.968,221.110 101.185 C 222.409 100.163,224.638 100.333,225.617 101.529 C 227.214 103.481,230.266 103.913,229.817 102.124 C 228.965 98.729,224.930 96.605,221.095 97.533 M158.676 104.118 L 157.153 104.966 157.406 108.583 C 157.545 110.572,157.825 113.178,158.029 114.373 C 158.233 115.569,158.400 117.144,158.400 117.873 C 158.400 118.986,158.545 119.198,159.300 119.187 C 160.684 119.168,161.600 118.251,161.600 116.885 C 161.600 115.783,161.830 115.554,163.866 114.621 L 166.131 113.584 167.049 114.446 C 168.146 115.477,171.149 114.553,170.496 113.385 C 170.058 112.604,160.729 103.191,160.436 103.235 C 160.306 103.255,159.514 103.652,158.676 104.118 M236.073 108.158 C 230.881 113.441,230.603 113.920,232.283 114.700 C 233.701 115.359,233.885 115.339,234.877 114.414 C 235.341 113.981,235.829 113.690,235.961 113.766 C 236.092 113.843,237.055 114.291,238.100 114.763 C 239.808 115.533,240.000 115.753,240.000 116.936 C 240.000 118.043,240.220 118.357,241.385 118.912 C 243.082 119.721,243.013 119.839,243.569 115.200 C 244.630 106.360,244.723 105.399,244.541 105.104 C 244.396 104.870,241.288 103.200,240.998 103.200 C 240.969 103.200,238.753 105.431,236.073 108.158 M162.767 110.166 L 164.091 111.532 162.861 112.168 C 161.419 112.914,160.800 112.271,160.800 110.026 C 160.800 108.460,161.136 108.484,162.767 110.166 M240.794 110.300 C 240.785 112.474,240.380 112.956,239.064 112.356 C 237.727 111.747,237.729 111.326,239.075 109.922 C 240.496 108.438,240.801 108.505,240.794 110.300 M253.735 111.300 C 253.293 111.795,252.505 112.830,251.985 113.600 C 251.464 114.370,250.939 115.090,250.816 115.200 C 250.694 115.310,249.638 116.725,248.470 118.345 L 246.346 121.291 247.243 122.245 C 248.578 123.667,248.964 123.476,251.387 120.200 C 254.203 116.393,254.109 116.319,253.798 122.100 L 253.535 127.000 254.957 127.897 L 256.379 128.794 258.064 126.497 C 258.990 125.234,260.786 122.796,262.054 121.080 C 264.466 117.816,264.580 117.246,262.992 116.396 C 261.778 115.746,261.304 116.101,259.143 119.284 C 256.852 122.658,256.634 122.415,256.949 116.834 L 257.219 112.068 256.048 111.234 C 254.610 110.210,254.711 110.208,253.735 111.300 M144.800 112.466 C 140.725 113.636,138.279 118.098,139.764 121.651 C 142.350 127.841,149.849 128.322,153.100 122.505 C 153.773 121.302,153.765 118.000,153.089 118.000 C 152.346 118.000,150.000 120.250,150.000 120.962 C 150.000 123.114,145.710 124.020,144.023 122.225 C 141.677 119.727,142.807 116.136,146.077 115.701 C 147.703 115.484,150.000 114.218,150.000 113.539 C 150.000 112.590,146.723 111.914,144.800 112.466 M59.838 160.522 C 59.399 160.844,59.177 161.421,59.262 162.022 L 59.400 163.000 199.886 163.101 L 340.371 163.201 340.839 162.327 C 341.237 161.583,341.173 161.346,340.409 160.727 C 339.228 159.770,61.144 159.568,59.838 160.522 M67.778 174.948 C 64.276 176.243,62.985 177.694,61.147 182.400 C 60.363 184.408,60.352 213.857,61.134 216.200 C 63.172 222.300,65.720 224.208,71.800 224.188 C 78.251 224.167,81.413 221.310,82.465 214.551 C 83.109 210.414,82.671 182.958,81.931 181.085 C 79.738 175.533,73.503 172.829,67.778 174.948 M98.178 174.948 C 94.676 176.243,93.385 177.694,91.547 182.400 C 90.763 184.408,90.752 213.857,91.534 216.200 C 93.572 222.300,96.120 224.208,102.200 224.188 C 108.651 224.167,111.813 221.310,112.865 214.551 C 113.509 210.414,113.071 182.958,112.331 181.085 C 110.138 175.533,103.903 172.829,98.178 174.948 M172.237 175.204 C 169.031 176.456,167.198 178.778,166.045 183.046 C 165.140 186.394,165.459 213.835,166.437 216.834 C 169.623 226.605,183.185 227.251,186.702 217.800 C 188.914 211.858,188.547 184.403,186.190 179.436 C 184.130 175.094,177.595 173.112,172.237 175.204 M248.649 174.964 C 242.571 176.847,241.598 180.237,241.605 199.520 C 241.610 215.827,241.906 217.887,244.720 221.250 C 248.781 226.103,259.339 224.958,261.779 219.400 C 263.163 216.248,263.295 215.395,263.347 209.304 L 263.400 203.000 259.400 203.000 L 255.400 203.000 255.190 208.600 C 254.953 214.919,254.468 216.522,252.736 216.723 C 250.449 216.988,250.400 216.622,250.400 199.386 C 250.400 182.854,250.497 182.000,252.383 182.000 C 254.359 182.000,254.883 183.469,255.167 189.800 L 255.400 195.000 259.200 195.000 L 263.000 195.000 263.110 189.143 C 263.333 177.367,257.945 172.085,248.649 174.964 M320.596 174.930 C 317.325 176.206,315.855 177.777,314.311 181.647 C 313.080 184.732,312.928 213.297,314.125 216.600 C 316.318 222.649,320.028 224.939,326.431 224.196 C 332.864 223.450,335.370 218.896,335.126 208.400 L 335.000 203.000 331.111 202.886 C 326.499 202.750,326.900 202.122,326.696 209.800 C 326.543 215.569,326.134 216.800,324.371 216.800 C 322.281 216.800,322.200 216.141,322.200 199.104 L 322.200 183.529 323.144 182.765 C 325.737 180.665,326.551 182.020,326.736 188.749 C 326.921 195.482,326.763 195.270,331.460 195.116 L 335.000 195.000 335.127 190.200 C 335.415 179.321,332.103 174.461,324.400 174.461 C 322.970 174.461,321.258 174.672,320.596 174.930 M36.497 175.127 C 36.100 175.383,36.015 180.553,36.097 199.626 L 36.200 223.800 40.400 223.800 L 44.600 223.800 44.706 212.714 L 44.813 201.628 48.906 201.514 L 53.000 201.400 53.120 198.608 C 53.322 193.932,53.425 194.047,48.896 193.914 L 45.000 193.800 45.000 188.200 L 45.000 182.600 49.315 182.486 L 53.630 182.373 53.515 178.686 L 53.400 175.000 45.200 174.902 C 40.690 174.847,36.774 174.949,36.497 175.127 M122.492 175.290 C 122.104 175.757,122.017 181.198,122.097 199.845 L 122.200 223.800 128.000 223.926 C 138.045 224.144,140.944 222.840,143.142 217.114 C 144.012 214.848,144.355 186.853,143.560 183.046 C 142.887 179.826,141.094 177.285,138.638 176.071 C 136.108 174.820,123.392 174.204,122.492 175.290 M196.880 175.280 C 196.371 175.789,196.143 222.065,196.643 223.367 C 196.839 223.878,197.567 224.000,200.429 224.000 C 205.238 224.000,204.980 224.774,204.679 211.249 C 204.387 198.121,204.417 198.094,207.838 208.400 C 208.385 210.050,208.998 211.760,209.200 212.200 C 209.402 212.640,210.015 214.350,210.562 216.000 C 213.381 224.492,213.061 224.075,216.640 223.920 L 219.400 223.800 219.503 199.508 L 219.606 175.217 218.695 174.988 C 218.193 174.862,216.527 174.813,214.992 174.880 L 212.200 175.000 212.094 186.500 C 211.986 198.176,211.811 199.495,210.820 196.100 C 210.515 195.055,210.124 193.930,209.952 193.600 C 209.779 193.270,209.257 191.830,208.793 190.400 C 208.328 188.970,207.791 187.440,207.600 187.000 C 207.409 186.560,206.869 185.030,206.400 183.600 C 205.931 182.170,205.391 180.640,205.200 180.200 C 205.009 179.760,204.624 178.680,204.344 177.800 C 203.494 175.131,203.017 174.800,200.018 174.800 C 198.484 174.800,197.157 175.003,196.880 175.280 M272.097 175.124 C 271.700 175.382,271.615 180.554,271.697 199.626 L 271.800 223.800 280.400 223.800 L 289.000 223.800 289.000 220.200 L 289.000 216.600 284.600 216.400 L 280.200 216.200 280.000 195.600 L 279.800 175.000 276.200 174.898 C 274.220 174.842,272.374 174.944,272.097 175.124 M296.267 175.067 C 296.120 175.213,296.000 186.290,296.000 199.681 L 296.000 224.028 300.100 223.914 L 304.200 223.800 304.303 199.626 C 304.385 180.551,304.300 175.384,303.903 175.132 C 303.296 174.746,296.644 174.689,296.267 175.067 M343.697 175.132 C 343.300 175.384,343.215 180.551,343.297 199.626 L 343.400 223.800 347.600 223.800 L 351.800 223.800 351.908 215.300 C 352.019 206.531,352.229 205.443,353.180 208.700 C 353.485 209.745,353.881 210.870,354.061 211.200 C 354.240 211.530,355.213 214.318,356.224 217.396 C 358.551 224.484,358.047 224.000,363.094 224.000 L 367.291 224.000 367.091 222.900 C 366.981 222.295,366.141 219.730,365.224 217.200 C 364.308 214.670,363.288 211.790,362.959 210.800 C 362.629 209.810,362.201 208.640,362.006 208.200 C 361.812 207.760,361.269 206.230,360.800 204.800 C 360.331 203.370,359.768 201.831,359.549 201.381 C 358.763 199.762,359.157 198.040,362.809 187.137 C 367.128 174.241,367.132 174.798,362.713 174.805 C 357.592 174.814,358.142 174.202,355.231 183.126 C 353.818 187.456,352.513 191.171,352.331 191.380 C 352.149 191.589,352.000 188.053,352.000 183.523 C 352.000 176.381,351.916 175.253,351.367 175.043 C 350.440 174.687,344.285 174.758,343.697 175.132 M72.770 182.384 C 74.240 183.171,74.449 185.566,74.322 200.200 C 74.189 215.510,74.051 216.476,71.976 216.719 C 69.430 217.016,69.400 216.813,69.400 199.323 L 69.400 183.529 70.344 182.765 C 71.416 181.897,71.759 181.843,72.770 182.384 M103.170 182.384 C 104.640 183.171,104.849 185.566,104.722 200.200 C 104.589 215.510,104.451 216.476,102.376 216.719 C 99.830 217.016,99.800 216.813,99.800 199.323 L 99.800 183.529 100.744 182.765 C 101.816 181.897,102.159 181.843,103.170 182.384 M134.344 182.832 C 135.339 183.900,135.752 191.594,135.544 205.218 C 135.376 216.180,135.208 216.800,132.391 216.800 L 130.800 216.800 130.800 199.400 L 130.800 182.000 132.184 182.000 C 133.071 182.000,133.847 182.299,134.344 182.832 M177.840 182.306 C 179.093 183.143,179.200 184.471,179.200 199.148 C 179.200 215.998,179.082 216.776,176.523 216.794 C 174.465 216.808,174.400 216.276,174.400 199.386 C 174.400 184.204,174.424 183.725,175.216 182.875 C 176.042 181.988,177.040 181.772,177.840 182.306 M59.838 236.522 C 59.399 236.844,59.177 237.421,59.262 238.022 L 59.400 239.000 199.886 239.101 L 340.371 239.201 340.839 238.327 C 341.237 237.583,341.173 237.346,340.409 236.727 C 339.228 235.770,61.144 235.568,59.838 236.522 M93.600 246.904 C 93.600 249.255,105.148 268.830,108.405 272.000 C 108.519 272.110,109.417 273.190,110.401 274.400 C 115.655 280.857,122.208 287.276,128.574 292.200 C 129.427 292.860,130.592 293.777,131.163 294.237 C 133.605 296.208,142.111 301.643,145.800 303.589 C 148.000 304.750,149.980 305.827,150.200 305.983 C 150.420 306.139,151.230 306.508,152.000 306.803 C 152.770 307.099,154.521 307.845,155.891 308.462 C 159.479 310.076,168.286 312.948,173.400 314.171 C 175.820 314.750,178.430 315.382,179.200 315.576 C 179.970 315.770,182.220 316.131,184.200 316.379 C 186.180 316.628,189.240 317.021,191.000 317.254 C 194.709 317.744,210.402 317.500,215.800 316.867 C 220.170 316.354,223.848 315.672,229.300 314.361 C 230.125 314.162,231.475 313.847,232.300 313.661 C 234.652 313.129,244.587 309.686,247.325 308.454 C 248.686 307.842,250.430 307.093,251.200 306.790 C 252.369 306.329,255.582 304.699,259.400 302.630 C 276.498 293.365,293.950 276.258,304.191 258.727 C 305.204 256.991,310.400 246.791,310.400 246.536 C 310.400 246.461,309.588 246.400,308.596 246.400 L 306.792 246.400 305.069 249.900 C 303.378 253.334,302.976 254.068,300.467 258.299 C 299.122 260.566,294.675 267.250,293.789 268.335 C 293.491 268.701,292.086 270.440,290.668 272.200 C 288.007 275.503,282.114 281.654,278.594 284.805 C 274.032 288.886,272.748 289.875,265.800 294.647 C 260.623 298.204,252.248 302.896,248.400 304.396 C 247.630 304.696,246.100 305.343,245.000 305.834 C 241.225 307.519,235.375 309.466,231.200 310.425 C 230.210 310.653,228.680 311.011,227.800 311.221 C 211.896 315.013,193.855 315.145,177.400 311.589 C 152.073 306.117,127.459 291.010,112.564 271.794 C 106.157 263.529,102.674 258.119,98.837 250.474 L 96.793 246.400 95.196 246.400 C 94.179 246.400,93.600 246.583,93.600 246.904 M81.600 253.056 C 81.600 253.867,86.019 262.872,88.148 266.400 C 99.216 284.741,112.269 298.478,129.884 310.322 C 133.726 312.905,134.970 313.651,139.200 315.907 C 140.630 316.669,142.520 317.687,143.400 318.169 C 144.280 318.651,145.630 319.292,146.400 319.593 C 147.170 319.895,148.790 320.579,150.000 321.114 C 151.210 321.649,152.740 322.324,153.400 322.615 C 154.060 322.906,156.220 323.671,158.200 324.317 C 169.826 328.106,174.186 329.115,186.600 330.886 C 191.456 331.579,211.772 331.577,216.600 330.882 C 224.003 329.818,225.841 329.530,227.400 329.191 C 230.789 328.455,236.245 327.121,237.200 326.796 C 237.750 326.608,239.550 326.063,241.200 325.585 C 245.540 324.328,248.017 323.405,253.200 321.114 C 254.410 320.579,256.030 319.893,256.800 319.589 C 259.489 318.526,266.401 314.835,271.158 311.922 C 273.905 310.240,282.609 303.969,284.200 302.526 C 284.640 302.127,285.990 300.999,287.200 300.020 C 292.285 295.907,302.708 284.830,306.980 279.000 C 307.625 278.120,308.822 276.500,309.640 275.400 C 310.965 273.618,313.805 269.154,316.130 265.200 C 318.029 261.970,322.347 253.038,322.158 252.732 C 322.045 252.549,321.182 252.400,320.240 252.400 L 318.527 252.400 316.383 256.700 C 303.580 282.377,282.817 302.922,257.200 315.263 C 251.636 317.944,251.628 317.947,243.700 320.839 C 242.435 321.300,241.040 321.838,240.600 322.034 C 239.594 322.482,236.153 323.400,231.000 324.596 C 227.022 325.520,224.349 326.004,219.000 326.770 C 217.460 326.990,214.905 327.357,213.323 327.585 C 209.714 328.105,193.521 328.129,190.246 327.619 C 188.901 327.410,186.270 327.036,184.400 326.790 C 178.472 326.008,173.243 325.016,169.200 323.905 C 165.304 322.835,155.797 319.715,154.000 318.918 C 148.588 316.517,137.597 310.927,134.968 309.237 C 130.561 306.406,124.073 301.837,122.400 300.386 C 121.630 299.718,120.243 298.593,119.319 297.886 C 117.177 296.248,106.787 285.757,104.181 282.600 C 103.092 281.280,102.105 280.110,101.990 280.000 C 100.693 278.767,92.643 266.827,90.546 263.026 C 89.810 261.692,88.353 258.890,87.309 256.800 C 85.130 252.439,85.105 252.414,83.100 252.406 C 81.974 252.402,81.600 252.564,81.600 253.056 M153.162 280.114 C 150.709 281.767,152.219 283.994,154.949 282.750 C 155.859 282.336,156.133 282.362,156.686 282.914 C 158.286 284.514,155.843 286.397,150.600 287.607 C 146.819 288.479,146.118 290.100,148.900 291.536 C 149.835 292.019,151.590 292.951,152.800 293.607 C 155.430 295.033,155.650 295.053,156.355 293.923 C 156.914 293.029,155.433 291.208,154.143 291.202 C 152.657 291.196,153.433 290.016,155.327 289.401 C 160.303 287.786,162.021 284.569,159.572 281.455 C 157.856 279.274,155.225 278.724,153.162 280.114 M243.600 279.976 C 241.138 281.278,239.612 284.545,240.875 285.808 C 241.359 286.292,243.950 284.753,244.077 283.906 C 244.271 282.607,245.524 282.035,246.196 282.939 C 246.824 283.784,246.574 284.769,245.541 285.513 C 244.229 286.457,245.405 288.133,247.182 287.851 C 249.450 287.490,250.634 288.966,249.216 290.384 C 248.562 291.038,248.275 291.083,247.247 290.695 C 245.004 289.848,243.161 291.516,244.750 292.955 C 246.784 294.795,251.396 293.694,252.647 291.069 C 253.792 288.669,252.313 285.200,250.146 285.200 C 249.759 285.200,249.600 284.629,249.600 283.236 C 249.600 279.826,246.780 278.294,243.600 279.976 M164.790 285.026 C 164.208 286.558,164.310 287.083,165.238 287.326 C 166.078 287.545,166.063 289.450,165.212 290.600 C 165.049 290.820,164.819 291.360,164.700 291.800 C 164.582 292.240,164.018 293.813,163.447 295.297 L 162.409 297.993 163.847 298.594 C 165.680 299.360,165.653 299.383,166.961 295.920 C 167.569 294.314,168.213 292.640,168.394 292.200 C 170.903 286.087,170.913 286.217,167.818 284.958 C 164.964 283.797,165.260 283.790,164.790 285.026 M231.700 285.733 C 229.523 286.626,229.175 287.259,230.008 288.815 C 230.310 289.379,230.700 289.521,231.508 289.362 C 232.425 289.182,232.672 289.327,233.051 290.274 C 233.744 292.006,235.085 295.629,235.663 297.332 C 236.139 298.732,236.283 298.843,237.342 298.632 C 237.979 298.504,238.657 298.400,238.850 298.400 C 239.308 298.400,239.299 296.687,238.835 295.519 C 238.634 295.013,238.112 293.610,237.673 292.400 C 237.235 291.190,236.739 289.840,236.572 289.400 C 236.405 288.960,235.972 287.790,235.608 286.800 C 234.832 284.686,234.484 284.590,231.700 285.733 M204.590 291.836 C 202.011 294.415,204.333 296.505,206.997 294.003 C 207.772 293.275,208.066 293.207,208.786 293.593 C 209.853 294.163,209.700 295.227,208.463 295.844 C 206.298 296.923,206.319 299.059,208.497 299.277 C 209.997 299.428,210.790 300.489,210.158 301.500 C 209.492 302.563,207.747 302.623,207.201 301.601 C 206.636 300.545,203.886 300.581,203.684 301.647 C 203.500 302.622,205.459 304.705,206.848 305.010 C 211.916 306.124,215.725 301.662,212.542 298.340 C 211.528 297.281,211.511 297.195,212.142 296.232 C 214.982 291.898,208.374 288.052,204.590 291.836 M191.208 291.231 C 187.245 292.102,186.920 296.972,190.714 298.622 C 193.609 299.881,194.200 300.330,194.200 301.275 C 194.200 302.556,192.263 302.809,191.523 301.625 C 190.784 300.442,187.600 300.417,187.600 301.594 C 187.600 306.095,196.980 306.314,197.820 301.832 C 198.247 299.560,195.807 296.800,193.371 296.800 C 192.417 296.800,191.418 294.901,192.002 294.198 C 192.673 293.390,193.446 293.446,194.079 294.348 C 194.810 295.393,197.909 295.902,198.243 295.032 C 199.101 292.796,194.759 290.450,191.208 291.231 M174.033 294.500 C 173.542 295.797,174.067 296.213,177.105 296.933 C 181.570 297.990,182.079 297.968,182.428 296.702 C 182.792 295.377,182.887 295.442,179.080 294.422 C 175.164 293.372,174.456 293.383,174.033 294.500 M223.800 294.100 C 219.152 295.300,218.594 295.515,218.467 296.161 C 218.394 296.533,218.557 297.108,218.831 297.437 C 219.334 298.044,219.807 298.020,223.400 297.207 C 224.280 297.008,225.506 296.739,226.124 296.609 C 227.111 296.402,227.233 296.215,227.124 295.086 C 226.982 293.616,226.374 293.436,223.800 294.100 " stroke="none" fill="#f5f5de" fill-rule="evenodd"></path><path id="path1" d="M0.000 200.000 L 0.000 400.000 200.000 400.000 L 400.000 400.000 400.000 200.000 L 400.000 0.000 200.000 0.000 L 0.000 0.000 0.000 200.000 M217.200 69.202 C 221.323 69.732,223.492 70.127,230.000 71.533 C 237.032 73.053,236.621 72.947,241.200 74.417 C 242.630 74.877,244.160 75.409,244.600 75.600 C 245.040 75.791,246.570 76.345,248.000 76.830 C 253.078 78.554,261.217 82.489,269.319 87.137 C 273.796 89.705,282.680 96.048,286.187 99.182 C 300.242 111.739,307.911 120.967,316.119 135.200 C 318.156 138.732,322.340 147.374,322.157 147.670 C 321.800 148.246,318.926 148.034,318.393 147.391 C 318.115 147.056,316.955 144.941,315.815 142.691 C 313.771 138.655,313.335 137.862,310.854 133.679 C 304.721 123.337,295.911 112.779,286.138 104.056 C 282.227 100.566,275.071 94.980,273.400 94.113 C 272.740 93.771,271.570 93.007,270.800 92.417 C 268.047 90.305,258.038 84.888,253.800 83.216 C 252.480 82.695,251.220 82.148,251.000 82.000 C 250.780 81.852,249.520 81.324,248.200 80.826 C 246.880 80.329,245.440 79.771,245.000 79.587 C 243.042 78.768,234.770 76.267,231.800 75.596 C 223.283 73.672,223.361 73.684,211.773 72.402 C 209.778 72.181,205.290 72.000,201.800 72.000 C 198.310 72.000,193.822 72.181,191.827 72.402 C 181.048 73.595,180.157 73.726,175.200 74.848 C 174.210 75.073,172.590 75.436,171.600 75.656 C 161.412 77.923,146.695 83.882,137.800 89.342 C 136.040 90.423,133.976 91.662,133.213 92.095 C 122.837 97.995,105.848 113.955,98.400 124.800 C 97.871 125.570,97.328 126.290,97.193 126.400 C 96.729 126.778,94.501 130.205,91.992 134.400 C 89.793 138.077,88.743 140.063,85.650 146.400 C 84.755 148.233,81.600 148.783,81.600 147.107 C 81.600 146.232,85.603 137.812,87.736 134.200 C 88.745 132.491,92.589 126.466,93.096 125.800 C 93.263 125.580,93.940 124.600,94.600 123.622 C 99.801 115.917,111.954 103.065,119.600 97.184 C 120.590 96.423,121.490 95.688,121.600 95.551 C 123.486 93.201,143.729 81.470,150.800 78.628 C 161.244 74.431,166.803 72.811,179.200 70.350 C 188.448 68.514,207.391 67.942,217.200 69.202 M213.471 81.193 C 221.862 82.248,223.646 82.524,226.800 83.255 C 233.429 84.792,239.340 86.508,242.000 87.670 C 243.182 88.187,244.688 88.793,245.800 89.200 C 248.711 90.266,255.753 93.629,259.400 95.694 C 278.651 106.597,293.819 121.764,304.911 141.200 C 305.951 143.023,310.400 151.654,310.400 151.850 C 310.400 151.932,309.606 152.000,308.635 152.000 L 306.869 152.000 305.348 148.900 C 304.511 147.195,302.965 144.301,301.913 142.468 C 300.861 140.636,300.000 139.051,300.000 138.947 C 300.000 138.733,296.975 134.230,296.165 133.238 C 295.879 132.887,294.780 131.430,293.722 130.000 C 285.986 119.535,271.533 106.200,262.498 101.191 C 261.894 100.856,260.320 99.949,259.000 99.174 C 255.089 96.879,247.540 93.262,243.600 91.796 C 242.610 91.427,241.440 90.970,241.000 90.780 C 235.393 88.354,224.181 85.649,215.800 84.699 C 207.065 83.709,188.453 84.180,181.600 85.566 C 180.610 85.766,178.900 86.110,177.800 86.331 C 173.615 87.171,165.349 89.591,162.600 90.780 C 162.160 90.970,160.990 91.427,160.000 91.796 C 155.771 93.370,146.267 97.973,143.728 99.678 C 142.808 100.295,141.946 100.800,141.813 100.800 C 141.259 100.800,134.082 105.874,129.896 109.225 C 116.583 119.879,105.480 133.723,98.394 148.500 L 96.716 152.000 95.182 152.000 C 92.920 152.000,92.950 151.801,96.140 145.546 C 106.155 125.906,123.978 106.783,141.042 97.369 C 142.119 96.774,143.810 95.836,144.800 95.283 C 156.408 88.802,171.646 83.593,183.600 82.019 C 185.470 81.773,188.170 81.420,189.600 81.235 C 193.307 80.755,209.757 80.726,213.471 81.193 M208.626 95.385 C 209.961 95.943,211.409 98.139,210.941 98.896 C 210.511 99.590,207.633 99.209,207.200 98.400 C 206.750 97.559,205.034 97.298,204.598 98.004 C 204.183 98.674,204.758 99.847,205.707 100.267 C 210.549 102.406,211.348 103.362,210.643 106.171 C 209.774 109.635,202.588 109.890,200.986 106.513 C 199.936 104.301,202.766 103.559,204.464 105.601 C 205.529 106.883,207.200 106.371,207.200 104.764 C 207.200 104.164,204.262 102.400,203.263 102.400 C 202.231 102.400,200.801 100.368,200.813 98.919 C 200.841 95.535,204.752 93.766,208.626 95.385 M194.289 96.800 C 194.338 97.570,194.594 100.510,194.858 103.334 C 195.383 108.961,195.319 109.181,193.145 109.194 C 191.872 109.201,191.765 108.782,191.205 101.574 C 190.655 94.503,190.525 95.134,192.500 95.277 C 194.133 95.395,194.204 95.455,194.289 96.800 M183.513 97.500 C 183.739 98.105,184.132 99.500,184.387 100.600 C 185.059 103.499,185.602 105.629,186.027 107.028 C 187.408 111.578,184.465 111.748,179.823 107.386 C 175.609 103.426,175.628 103.421,176.843 108.200 C 177.796 111.952,177.809 111.869,176.212 112.396 C 174.373 113.003,174.632 113.416,173.198 107.577 C 172.526 104.840,171.802 102.047,171.588 101.372 C 170.988 99.473,171.086 99.266,172.819 98.747 L 174.439 98.262 177.100 100.831 C 178.563 102.244,180.086 103.744,180.483 104.164 C 181.816 105.575,181.743 102.389,180.362 98.881 C 179.826 97.522,179.907 97.212,180.900 96.812 C 182.444 96.192,183.089 96.362,183.513 97.500 M226.863 98.233 C 228.128 98.887,229.437 100.612,229.817 102.124 C 230.266 103.913,227.214 103.481,225.617 101.529 C 224.638 100.333,222.409 100.163,221.110 101.185 C 217.571 103.968,220.056 109.553,224.170 108.065 C 227.171 106.980,229.462 108.261,227.611 109.989 C 223.547 113.786,216.006 110.382,216.001 104.749 C 215.997 98.977,221.693 95.559,226.863 98.233 M165.424 108.008 C 171.284 113.935,171.190 113.778,169.390 114.631 C 168.011 115.286,167.937 115.280,167.049 114.446 L 166.131 113.584 163.866 114.621 C 161.830 115.554,161.600 115.783,161.600 116.885 C 161.600 118.251,160.684 119.168,159.300 119.187 C 158.545 119.198,158.400 118.986,158.400 117.873 C 158.400 117.144,158.233 115.569,158.029 114.373 C 157.825 113.178,157.545 110.572,157.406 108.583 L 157.153 104.966 158.676 104.118 C 159.514 103.652,160.306 103.255,160.436 103.235 C 160.565 103.216,162.810 105.363,165.424 108.008 M242.699 103.997 C 245.044 105.130,244.940 103.784,243.569 115.200 C 243.013 119.839,243.082 119.721,241.385 118.912 C 240.220 118.357,240.000 118.043,240.000 116.936 C 240.000 115.753,239.808 115.533,238.100 114.763 C 237.055 114.291,236.092 113.843,235.961 113.766 C 235.829 113.690,235.341 113.981,234.877 114.414 C 234.413 114.846,233.882 115.200,233.696 115.200 C 232.897 115.200,231.206 114.154,231.203 113.658 C 231.201 113.266,240.628 103.200,240.998 103.200 C 241.026 103.200,241.792 103.559,242.699 103.997 M160.800 110.026 C 160.800 112.271,161.419 112.914,162.861 112.168 L 164.091 111.532 162.767 110.166 C 161.136 108.484,160.800 108.460,160.800 110.026 M239.075 109.922 C 237.729 111.326,237.727 111.747,239.064 112.356 C 240.380 112.956,240.785 112.474,240.794 110.300 C 240.801 108.505,240.496 108.438,239.075 109.922 M256.048 111.234 L 257.219 112.068 256.949 116.834 C 256.634 122.415,256.852 122.658,259.143 119.284 C 261.304 116.101,261.778 115.746,262.992 116.396 C 264.580 117.246,264.466 117.816,262.054 121.080 C 260.786 122.796,258.990 125.234,258.064 126.497 L 256.379 128.794 254.957 127.897 L 253.535 127.000 253.798 122.100 C 254.109 116.319,254.203 116.393,251.387 120.200 C 248.964 123.476,248.578 123.667,247.243 122.245 L 246.346 121.291 248.470 118.345 C 249.638 116.725,250.694 115.310,250.816 115.200 C 250.939 115.090,251.464 114.370,251.985 113.600 C 254.238 110.266,254.486 110.122,256.048 111.234 M149.300 112.861 C 150.764 113.629,148.828 115.334,146.077 115.701 C 142.807 116.136,141.677 119.727,144.023 122.225 C 145.710 124.020,150.000 123.114,150.000 120.962 C 150.000 120.250,152.346 118.000,153.089 118.000 C 153.765 118.000,153.773 121.302,153.100 122.505 C 149.849 128.322,142.350 127.841,139.764 121.651 C 137.515 116.271,144.145 110.161,149.300 112.861 M340.409 160.727 C 341.173 161.346,341.237 161.583,340.839 162.327 L 340.371 163.201 199.886 163.101 L 59.400 163.000 59.262 162.022 C 58.958 159.870,49.916 160.000,200.032 160.000 C 334.233 160.000,339.545 160.028,340.409 160.727 M76.624 175.243 C 79.035 176.145,80.707 177.985,81.931 181.085 C 83.498 185.051,82.969 215.124,81.267 218.845 C 77.934 226.131,65.478 226.283,62.242 219.077 C 60.644 215.517,60.600 214.987,60.600 199.200 C 60.600 183.359,60.585 183.534,62.224 179.787 C 64.255 175.145,70.822 173.072,76.624 175.243 M107.024 175.243 C 109.435 176.145,111.107 177.985,112.331 181.085 C 113.898 185.051,113.369 215.124,111.667 218.845 C 108.334 226.131,95.878 226.283,92.642 219.077 C 91.044 215.517,91.000 214.987,91.000 199.200 C 91.000 183.359,90.985 183.534,92.624 179.787 C 94.655 175.145,101.222 173.072,107.024 175.243 M180.999 174.969 C 187.015 177.062,188.000 180.483,188.000 199.280 C 188.000 220.537,186.316 224.221,176.611 224.187 C 170.930 224.167,168.180 222.179,166.437 216.834 C 165.459 213.835,165.140 186.394,166.045 183.046 C 167.947 176.006,174.229 172.613,180.999 174.969 M256.501 174.900 C 261.273 176.313,263.271 180.620,263.110 189.143 L 263.000 195.000 259.200 195.000 L 255.400 195.000 255.167 189.800 C 254.883 183.469,254.359 182.000,252.383 182.000 C 250.497 182.000,250.400 182.854,250.400 199.386 C 250.400 216.622,250.449 216.988,252.736 216.723 C 254.468 216.522,254.953 214.919,255.190 208.600 L 255.400 203.000 259.400 203.000 L 263.400 203.000 263.347 209.304 C 263.295 215.395,263.163 216.248,261.779 219.400 C 259.339 224.958,248.781 226.103,244.720 221.250 C 241.906 217.887,241.610 215.827,241.605 199.520 C 241.600 184.664,241.759 182.916,243.432 179.389 C 245.334 175.382,251.257 173.347,256.501 174.900 M328.204 174.930 C 333.449 176.975,335.365 181.203,335.127 190.200 L 335.000 195.000 331.460 195.116 C 326.763 195.270,326.921 195.482,326.736 188.749 C 326.551 182.020,325.737 180.665,323.144 182.765 L 322.200 183.529 322.200 199.104 C 322.200 216.141,322.281 216.800,324.371 216.800 C 326.134 216.800,326.543 215.569,326.696 209.800 C 326.900 202.122,326.499 202.750,331.111 202.886 L 335.000 203.000 335.126 208.400 C 335.370 218.896,332.864 223.450,326.431 224.196 C 320.028 224.939,316.318 222.649,314.125 216.600 C 312.928 213.297,313.080 184.732,314.311 181.647 C 316.380 176.462,319.189 174.461,324.400 174.461 C 325.830 174.461,327.542 174.672,328.204 174.930 M53.515 178.686 L 53.630 182.373 49.315 182.486 L 45.000 182.600 45.000 188.200 L 45.000 193.800 48.896 193.914 C 53.425 194.047,53.322 193.932,53.120 198.608 L 53.000 201.400 48.906 201.514 L 44.813 201.628 44.706 212.714 L 44.600 223.800 40.400 223.800 L 36.200 223.800 36.097 199.626 C 36.015 180.553,36.100 175.383,36.497 175.127 C 36.774 174.949,40.690 174.847,45.200 174.902 L 53.400 175.000 53.515 178.686 M138.638 176.071 C 141.094 177.285,142.887 179.826,143.560 183.046 C 144.355 186.853,144.012 214.848,143.142 217.114 C 140.944 222.840,138.045 224.144,128.000 223.926 L 122.200 223.800 122.097 199.845 C 122.017 181.198,122.104 175.757,122.492 175.290 C 123.392 174.204,136.108 174.820,138.638 176.071 M203.255 175.500 C 203.574 175.885,204.064 176.920,204.344 177.800 C 204.624 178.680,205.009 179.760,205.200 180.200 C 205.391 180.640,205.931 182.170,206.400 183.600 C 206.869 185.030,207.409 186.560,207.600 187.000 C 207.791 187.440,208.328 188.970,208.793 190.400 C 209.257 191.830,209.779 193.270,209.952 193.600 C 210.124 193.930,210.515 195.055,210.820 196.100 C 211.811 199.495,211.986 198.176,212.094 186.500 L 212.200 175.000 214.992 174.880 C 216.527 174.813,218.193 174.862,218.695 174.988 L 219.606 175.217 219.503 199.508 L 219.400 223.800 216.640 223.920 C 213.061 224.075,213.381 224.492,210.562 216.000 C 210.015 214.350,209.402 212.640,209.200 212.200 C 208.998 211.760,208.385 210.050,207.838 208.400 C 204.417 198.094,204.387 198.121,204.679 211.249 C 204.980 224.774,205.238 224.000,200.429 224.000 C 197.567 224.000,196.839 223.878,196.643 223.367 C 196.143 222.065,196.371 175.789,196.880 175.280 C 197.671 174.489,202.558 174.658,203.255 175.500 M280.000 195.600 L 280.200 216.200 284.600 216.400 L 289.000 216.600 289.000 220.200 L 289.000 223.800 280.400 223.800 L 271.800 223.800 271.697 199.626 C 271.615 180.554,271.700 175.382,272.097 175.124 C 272.374 174.944,274.220 174.842,276.200 174.898 L 279.800 175.000 280.000 195.600 M303.903 175.132 C 304.300 175.384,304.385 180.551,304.303 199.626 L 304.200 223.800 300.100 223.914 L 296.000 224.028 296.000 199.681 C 296.000 186.290,296.120 175.213,296.267 175.067 C 296.644 174.689,303.296 174.746,303.903 175.132 M351.367 175.043 C 351.916 175.253,352.000 176.381,352.000 183.523 C 352.000 188.053,352.149 191.589,352.331 191.380 C 352.513 191.171,353.818 187.456,355.231 183.126 C 358.142 174.202,357.592 174.814,362.713 174.805 C 367.132 174.798,367.128 174.241,362.809 187.137 C 359.157 198.040,358.763 199.762,359.549 201.381 C 359.768 201.831,360.331 203.370,360.800 204.800 C 361.269 206.230,361.812 207.760,362.006 208.200 C 362.201 208.640,362.629 209.810,362.959 210.800 C 363.288 211.790,364.308 214.670,365.224 217.200 C 366.141 219.730,366.981 222.295,367.091 222.900 L 367.291 224.000 363.094 224.000 C 358.047 224.000,358.551 224.484,356.224 217.396 C 355.213 214.318,354.240 211.530,354.061 211.200 C 353.881 210.870,353.485 209.745,353.180 208.700 C 352.229 205.443,352.019 206.531,351.908 215.300 L 351.800 223.800 347.600 223.800 L 343.400 223.800 343.297 199.626 C 343.215 180.551,343.300 175.384,343.697 175.132 C 344.285 174.758,350.440 174.687,351.367 175.043 M70.344 182.765 L 69.400 183.529 69.400 199.323 C 69.400 214.414,69.435 215.154,70.179 215.977 C 71.275 217.188,72.831 216.926,73.597 215.400 C 74.403 213.797,74.719 187.190,73.965 184.484 C 73.283 182.035,71.999 181.425,70.344 182.765 M100.744 182.765 L 99.800 183.529 99.800 199.323 C 99.800 214.414,99.835 215.154,100.579 215.977 C 101.675 217.188,103.231 216.926,103.997 215.400 C 104.803 213.797,105.119 187.190,104.365 184.484 C 103.683 182.035,102.399 181.425,100.744 182.765 M130.800 199.400 L 130.800 216.800 132.391 216.800 C 135.208 216.800,135.376 216.180,135.544 205.218 C 135.844 185.524,135.334 182.000,132.184 182.000 L 130.800 182.000 130.800 199.400 M175.216 182.875 C 174.103 184.070,173.926 214.345,175.023 215.911 C 176.100 217.449,178.034 217.014,178.775 215.066 C 179.387 213.455,179.355 184.643,178.740 183.474 C 177.836 181.755,176.474 181.524,175.216 182.875 M340.409 236.727 C 341.173 237.346,341.237 237.583,340.839 238.327 L 340.371 239.201 199.886 239.101 L 59.400 239.000 59.262 238.022 C 58.958 235.870,49.916 236.000,200.032 236.000 C 334.233 236.000,339.545 236.028,340.409 236.727 M98.837 250.474 C 102.674 258.119,106.157 263.529,112.564 271.794 C 123.931 286.458,143.378 300.360,162.200 307.277 C 168.381 309.548,172.880 310.752,181.200 312.360 C 195.397 315.105,213.351 314.666,227.800 311.221 C 228.680 311.011,230.210 310.653,231.200 310.425 C 235.375 309.466,241.225 307.519,245.000 305.834 C 246.100 305.343,247.630 304.696,248.400 304.396 C 252.248 302.896,260.623 298.204,265.800 294.647 C 272.748 289.875,274.032 288.886,278.594 284.805 C 282.114 281.654,288.007 275.503,290.668 272.200 C 292.086 270.440,293.491 268.701,293.789 268.335 C 294.675 267.250,299.122 260.566,300.467 258.299 C 302.976 254.068,303.378 253.334,305.069 249.900 L 306.792 246.400 308.596 246.400 C 309.588 246.400,310.400 246.461,310.400 246.536 C 310.400 246.791,305.204 256.991,304.191 258.727 C 293.950 276.258,276.498 293.365,259.400 302.630 C 255.582 304.699,252.369 306.329,251.200 306.790 C 250.430 307.093,248.686 307.842,247.325 308.454 C 244.587 309.686,234.652 313.129,232.300 313.661 C 231.475 313.847,230.125 314.162,229.300 314.361 C 223.848 315.672,220.170 316.354,215.800 316.867 C 210.402 317.500,194.709 317.744,191.000 317.254 C 189.240 317.021,186.180 316.628,184.200 316.379 C 182.220 316.131,179.970 315.770,179.200 315.576 C 178.430 315.382,175.820 314.750,173.400 314.171 C 168.286 312.948,159.479 310.076,155.891 308.462 C 154.521 307.845,152.770 307.099,152.000 306.803 C 151.230 306.508,150.420 306.139,150.200 305.983 C 149.980 305.827,148.000 304.750,145.800 303.589 C 142.111 301.643,133.605 296.208,131.163 294.237 C 130.592 293.777,129.427 292.860,128.574 292.200 C 122.208 287.276,115.655 280.857,110.401 274.400 C 109.417 273.190,108.519 272.110,108.405 272.000 C 105.148 268.830,93.600 249.255,93.600 246.904 C 93.600 246.583,94.179 246.400,95.196 246.400 L 96.793 246.400 98.837 250.474 M85.005 252.706 C 85.227 252.868,86.264 254.710,87.309 256.800 C 88.353 258.890,89.810 261.692,90.546 263.026 C 92.643 266.827,100.693 278.767,101.990 280.000 C 102.105 280.110,103.092 281.280,104.181 282.600 C 106.787 285.757,117.177 296.248,119.319 297.886 C 120.243 298.593,121.630 299.718,122.400 300.386 C 124.073 301.837,130.561 306.406,134.968 309.237 C 137.597 310.927,148.588 316.517,154.000 318.918 C 155.797 319.715,165.304 322.835,169.200 323.905 C 173.243 325.016,178.472 326.008,184.400 326.790 C 186.270 327.036,188.901 327.410,190.246 327.619 C 193.521 328.129,209.714 328.105,213.323 327.585 C 214.905 327.357,217.460 326.990,219.000 326.770 C 224.349 326.004,227.022 325.520,231.000 324.596 C 236.153 323.400,239.594 322.482,240.600 322.034 C 241.040 321.838,242.435 321.300,243.700 320.839 C 251.628 317.947,251.636 317.944,257.200 315.263 C 282.817 302.922,303.580 282.377,316.383 256.700 L 318.527 252.400 320.240 252.400 C 321.182 252.400,322.045 252.549,322.158 252.732 C 322.347 253.038,318.029 261.970,316.130 265.200 C 313.805 269.154,310.965 273.618,309.640 275.400 C 308.822 276.500,307.625 278.120,306.980 279.000 C 302.708 284.830,292.285 295.907,287.200 300.020 C 285.990 300.999,284.640 302.127,284.200 302.526 C 282.609 303.969,273.905 310.240,271.158 311.922 C 266.401 314.835,259.489 318.526,256.800 319.589 C 256.030 319.893,254.410 320.579,253.200 321.114 C 248.017 323.405,245.540 324.328,241.200 325.585 C 239.550 326.063,237.750 326.608,237.200 326.796 C 236.245 327.121,230.789 328.455,227.400 329.191 C 225.841 329.530,224.003 329.818,216.600 330.882 C 211.772 331.577,191.456 331.579,186.600 330.886 C 176.579 329.456,170.119 328.112,164.000 326.183 C 158.649 324.497,154.509 323.103,153.400 322.615 C 152.740 322.324,151.210 321.649,150.000 321.114 C 148.790 320.579,147.170 319.895,146.400 319.593 C 145.630 319.292,144.280 318.651,143.400 318.169 C 142.520 317.687,140.630 316.669,139.200 315.907 C 116.169 303.626,95.817 282.520,84.089 258.756 C 81.121 252.741,81.068 252.398,83.100 252.406 C 83.925 252.409,84.782 252.544,85.005 252.706 M157.314 279.790 C 162.599 281.998,161.481 287.403,155.327 289.401 C 153.433 290.016,152.657 291.196,154.143 291.202 C 155.433 291.208,156.914 293.029,156.355 293.923 C 155.650 295.053,155.430 295.033,152.800 293.607 C 151.590 292.951,149.835 292.019,148.900 291.536 C 146.118 290.100,146.819 288.479,150.600 287.607 C 155.843 286.397,158.286 284.514,156.686 282.914 C 156.133 282.362,155.859 282.336,154.949 282.750 C 153.608 283.362,151.492 282.654,151.684 281.658 C 152.031 279.857,155.065 278.850,157.314 279.790 M248.369 280.236 C 249.436 281.133,249.600 281.533,249.600 283.236 C 249.600 284.629,249.759 285.200,250.146 285.200 C 252.313 285.200,253.792 288.669,252.647 291.069 C 251.396 293.694,246.784 294.795,244.750 292.955 C 243.161 291.516,245.004 289.848,247.247 290.695 C 248.275 291.083,248.562 291.038,249.216 290.384 C 250.634 288.966,249.450 287.490,247.182 287.851 C 245.405 288.133,244.229 286.457,245.541 285.513 C 246.574 284.769,246.824 283.784,246.196 282.939 C 245.524 282.035,244.271 282.607,244.077 283.906 C 243.950 284.753,241.359 286.292,240.875 285.808 C 240.326 285.259,240.717 282.355,241.449 281.546 C 243.558 279.216,246.496 278.659,248.369 280.236 M167.818 284.958 C 170.913 286.217,170.903 286.087,168.394 292.200 C 168.213 292.640,167.569 294.314,166.961 295.920 C 165.653 299.383,165.680 299.360,163.847 298.594 L 162.409 297.993 163.447 295.297 C 164.018 293.813,164.582 292.240,164.700 291.800 C 164.819 291.360,165.049 290.820,165.212 290.600 C 166.063 289.450,166.078 287.545,165.238 287.326 C 164.310 287.083,164.208 286.558,164.790 285.026 C 165.260 283.790,164.964 283.797,167.818 284.958 M235.608 286.800 C 235.972 287.790,236.405 288.960,236.572 289.400 C 236.739 289.840,237.235 291.190,237.673 292.400 C 238.112 293.610,238.634 295.013,238.835 295.519 C 239.299 296.687,239.308 298.400,238.850 298.400 C 238.657 298.400,237.979 298.504,237.342 298.632 C 236.283 298.843,236.139 298.732,235.663 297.332 C 235.085 295.629,233.744 292.006,233.051 290.274 C 232.672 289.327,232.425 289.182,231.508 289.362 C 230.700 289.521,230.310 289.379,230.008 288.815 C 229.175 287.259,229.523 286.626,231.700 285.733 C 234.484 284.590,234.832 284.686,235.608 286.800 M211.631 291.569 C 212.979 292.917,213.170 294.663,212.142 296.232 C 211.511 297.195,211.528 297.281,212.542 298.340 C 215.725 301.662,211.916 306.124,206.848 305.010 C 205.459 304.705,203.500 302.622,203.684 301.647 C 203.886 300.581,206.636 300.545,207.201 301.601 C 207.747 302.623,209.492 302.563,210.158 301.500 C 210.790 300.489,209.997 299.428,208.497 299.277 C 206.319 299.059,206.298 296.923,208.463 295.844 C 209.700 295.227,209.853 294.163,208.786 293.593 C 208.066 293.207,207.772 293.275,206.997 294.003 C 205.700 295.221,203.443 295.302,203.277 294.136 C 202.832 291.011,209.135 289.074,211.631 291.569 M196.294 291.854 C 197.531 292.624,198.537 294.265,198.243 295.032 C 197.909 295.902,194.810 295.393,194.079 294.348 C 193.446 293.446,192.673 293.390,192.002 294.198 C 191.418 294.901,192.417 296.800,193.371 296.800 C 195.807 296.800,198.247 299.560,197.820 301.832 C 196.980 306.314,187.600 306.095,187.600 301.594 C 187.600 300.417,190.784 300.442,191.523 301.625 C 192.263 302.809,194.200 302.556,194.200 301.275 C 194.200 300.330,193.609 299.881,190.714 298.622 C 187.965 297.427,187.179 294.831,188.910 292.668 C 190.332 290.891,194.086 290.477,196.294 291.854 M179.080 294.422 C 182.887 295.442,182.792 295.377,182.428 296.702 C 182.079 297.968,181.570 297.990,177.105 296.933 C 174.067 296.213,173.542 295.797,174.033 294.500 C 174.456 293.383,175.164 293.372,179.080 294.422 M227.124 295.086 C 227.233 296.215,227.111 296.402,226.124 296.609 C 225.506 296.739,224.280 297.008,223.400 297.207 C 219.807 298.020,219.334 298.044,218.831 297.437 C 217.946 296.371,218.501 295.510,220.400 294.998 C 226.685 293.305,226.952 293.308,227.124 295.086 " stroke="none" fill="#343434" fill-rule="evenodd"></path></g></svg>