<svg id="svg" version="1.1" xmlns="http://www.w3.org/2000/svg" xmlns:xlink="http://www.w3.org/1999/xlink" width="400" height="400" viewBox="0, 0, 400,400"><g id="svgg"><path id="path0" d="M200.357 63.377 C 195.780 65.960,197.996 72.589,203.204 71.890 C 206.991 71.382,208.459 67.074,205.763 64.378 C 204.290 62.906,201.958 62.474,200.357 63.377 M216.882 63.648 C 215.799 64.048,215.769 64.968,216.763 67.249 C 217.183 68.212,217.734 70.710,217.988 72.800 C 218.748 79.038,219.651 80.998,222.421 82.410 C 225.124 83.790,223.625 84.977,217.400 86.386 C 213.322 87.310,212.924 87.484,212.669 88.457 C 212.332 89.748,213.669 90.701,216.267 91.023 C 217.550 91.182,219.298 91.557,220.150 91.856 C 223.480 93.024,224.939 92.368,224.536 89.882 C 224.239 88.053,224.947 86.887,227.369 85.221 C 229.616 83.675,229.860 84.049,229.006 87.723 C 228.639 89.305,227.983 92.130,227.550 94.000 C 227.116 95.870,226.489 98.512,226.155 99.870 C 224.866 105.116,225.676 106.282,229.760 105.062 C 230.882 104.727,233.185 104.337,234.878 104.195 C 238.319 103.905,239.051 103.417,238.612 101.702 C 237.832 98.660,237.984 97.254,240.002 88.800 C 243.042 76.068,243.197 75.600,245.100 73.385 C 247.393 70.715,246.495 69.735,241.049 68.968 C 239.976 68.817,238.179 68.358,237.055 67.947 C 232.737 66.369,230.804 67.176,231.843 70.123 C 232.566 72.172,232.539 73.174,231.659 76.800 C 230.504 81.561,230.143 80.818,229.045 71.419 C 228.436 66.205,227.891 65.205,225.656 65.195 C 225.075 65.193,223.610 64.910,222.400 64.567 C 218.323 63.413,217.767 63.320,216.882 63.648 M176.935 64.393 C 175.799 64.797,173.549 65.332,171.936 65.583 C 167.045 66.342,166.100 67.576,168.573 69.974 C 170.159 71.511,170.476 72.215,171.586 76.667 C 172.565 80.596,172.606 81.835,171.767 82.157 C 170.328 82.709,167.660 82.369,165.838 81.400 C 161.925 79.319,161.152 80.412,162.568 86.026 C 164.056 91.926,165.037 92.570,167.399 89.200 C 168.855 87.123,170.907 85.600,172.250 85.600 C 174.114 85.600,176.892 94.481,175.472 95.899 C 173.607 97.761,167.223 96.655,163.200 93.772 C 158.071 90.096,157.106 92.808,161.374 98.904 C 164.017 102.679,165.408 103.150,169.800 101.757 C 170.900 101.409,172.340 100.972,173.000 100.786 C 178.887 99.131,182.297 98.296,185.128 97.816 C 190.121 96.969,190.720 96.001,188.100 93.010 C 186.413 91.085,186.322 90.827,184.001 81.400 C 181.460 71.077,181.195 69.423,181.703 67.004 C 182.453 63.426,181.351 62.822,176.935 64.393 M250.926 77.180 C 246.441 79.915,249.053 83.791,253.768 81.398 C 262.994 76.718,264.920 88.487,256.441 97.736 C 252.501 102.034,249.830 100.204,253.000 95.378 C 255.819 91.086,255.353 87.659,251.746 86.152 C 243.620 82.757,239.746 94.182,246.855 100.573 C 257.137 109.818,271.624 104.797,272.329 91.743 C 272.834 82.383,258.447 72.594,250.926 77.180 M139.400 77.446 C 126.186 80.738,121.356 92.851,129.573 102.093 C 137.668 111.199,155.048 104.293,154.974 92.000 C 154.921 83.301,146.707 75.625,139.400 77.446 M139.678 84.885 C 141.949 87.342,145.950 94.989,146.282 97.509 C 146.759 101.122,143.806 101.993,141.003 99.068 C 139.420 97.415,135.200 90.404,135.200 89.425 C 135.200 89.169,135.018 88.778,134.794 88.554 C 134.039 87.799,134.209 83.929,135.023 83.334 C 136.448 82.292,137.654 82.694,139.678 84.885 M280.249 90.346 C 279.892 90.740,279.596 91.499,279.591 92.031 C 279.574 93.894,278.045 96.250,272.603 102.800 C 264.740 112.264,264.251 113.970,269.389 114.014 C 270.275 114.021,272.350 114.561,274.000 115.212 C 278.354 116.932,279.196 116.659,279.203 113.526 C 279.206 111.932,279.637 111.270,283.918 106.297 C 286.453 103.351,287.752 102.189,289.425 101.370 C 292.872 99.684,292.848 98.605,289.308 96.083 C 288.039 95.179,286.108 93.605,285.017 92.587 C 282.193 89.949,281.081 89.426,280.249 90.346 M111.837 96.823 C 102.657 99.116,96.756 110.594,101.018 117.867 C 107.584 129.070,121.561 128.265,127.647 116.333 C 132.655 106.514,122.619 94.131,111.837 96.823 M294.180 103.787 C 293.861 104.550,293.600 105.335,293.600 105.531 C 293.600 106.306,290.002 109.876,280.032 118.994 C 274.303 124.233,269.510 128.852,269.381 129.259 C 268.940 130.649,269.580 131.564,271.324 132.036 C 274.184 132.810,275.326 133.299,277.543 134.695 C 280.462 136.534,281.248 136.355,281.959 133.688 C 282.988 129.830,299.990 114.800,303.325 114.800 C 306.326 114.800,306.066 112.550,302.687 109.279 C 301.319 107.955,299.328 105.866,298.263 104.636 C 295.976 101.997,295.011 101.796,294.180 103.787 M112.165 104.693 C 116.855 107.702,122.434 115.016,121.841 117.379 C 120.794 121.550,112.565 116.448,107.900 108.735 C 105.059 104.038,107.515 101.711,112.165 104.693 M262.200 116.243 C 256.995 119.081,258.469 123.628,265.100 125.186 C 272.473 126.919,277.323 119.878,270.911 116.750 C 268.436 115.542,263.963 115.282,262.200 116.243 M89.373 120.930 C 85.176 122.536,82.969 127.247,84.000 132.400 C 84.192 133.360,84.127 133.396,82.400 133.293 C 80.157 133.159,80.015 133.262,78.401 136.200 C 77.675 137.520,76.593 139.320,75.996 140.200 C 73.763 143.489,74.058 144.430,77.375 144.614 C 80.256 144.774,79.028 144.134,99.180 155.990 C 109.472 162.046,110.000 162.098,110.000 157.059 C 110.000 155.456,110.281 153.201,110.623 152.046 C 111.738 148.292,111.404 147.420,108.800 147.292 C 104.505 147.082,104.200 146.556,106.402 143.148 C 110.217 137.246,109.527 131.430,104.423 126.454 C 99.533 121.687,93.338 119.414,89.373 120.930 M302.200 120.859 C 296.892 122.818,298.433 129.413,304.023 128.659 C 310.635 127.767,310.984 127.791,312.590 129.263 C 317.158 133.449,312.379 140.519,301.916 145.054 C 292.346 149.202,287.718 145.473,290.760 136.062 C 293.274 128.286,290.482 127.768,284.689 134.937 C 282.525 137.613,282.388 138.498,283.839 140.422 C 284.410 141.180,285.437 142.970,286.121 144.400 C 290.221 152.976,296.559 156.836,304.531 155.611 C 316.655 153.750,323.431 141.632,318.263 131.054 C 314.697 123.756,307.215 119.007,302.200 120.859 M194.600 127.438 C 161.998 130.724,138.129 151.162,129.242 183.400 C 126.885 191.951,126.868 208.615,129.210 216.600 C 139.494 251.680,165.916 272.570,200.000 272.570 C 209.176 272.570,211.033 272.308,221.000 269.603 C 234.146 266.035,249.235 255.509,257.982 243.803 C 264.079 235.644,266.628 230.233,270.793 216.600 C 274.052 205.932,273.109 189.406,268.472 175.933 C 257.993 145.484,225.725 124.301,194.600 127.438 M95.736 133.662 C 102.479 137.076,105.598 141.683,101.809 142.633 C 98.768 143.397,88.400 137.143,88.400 134.545 C 88.400 131.952,91.597 131.568,95.736 133.662 M208.800 147.172 C 209.570 147.393,211.280 147.838,212.600 148.160 C 233.746 153.329,248.022 168.204,252.786 190.034 C 254.895 199.695,253.091 213.785,248.489 223.594 C 239.942 241.812,220.869 253.720,200.200 253.743 C 193.338 253.751,192.774 253.659,184.139 251.142 C 162.067 244.707,146.400 223.660,146.400 200.443 C 146.400 195.124,146.804 192.284,148.339 186.800 C 148.554 186.030,149.012 184.371,149.357 183.113 C 153.412 168.303,167.298 154.380,183.003 149.377 C 191.631 146.629,203.397 145.623,208.800 147.172 M192.400 149.475 C 174.474 152.452,158.661 165.226,152.384 181.800 C 151.444 184.282,151.145 185.208,150.642 187.200 C 149.104 193.285,148.740 205.172,149.930 210.400 C 150.819 214.304,151.255 215.753,152.012 217.319 C 152.445 218.216,152.800 219.119,152.800 219.326 C 152.800 221.240,159.125 231.289,162.729 235.100 C 165.746 238.291,165.765 238.274,167.743 230.800 C 168.064 229.590,168.858 226.980,169.509 225.000 C 170.160 223.020,171.091 220.090,171.578 218.488 C 172.165 216.557,172.767 215.378,173.367 214.985 C 174.234 214.417,175.522 211.163,176.802 206.303 C 177.348 204.234,176.959 203.200,175.636 203.200 C 174.783 203.200,171.501 199.826,170.579 198.000 C 169.724 196.309,169.373 191.611,169.937 189.400 C 170.161 188.520,170.705 186.450,171.146 184.800 C 171.586 183.150,172.575 179.364,173.342 176.387 C 174.110 173.410,174.918 170.530,175.139 169.987 C 175.359 169.444,175.958 167.408,176.470 165.462 C 177.450 161.732,178.249 160.706,179.330 161.787 C 179.950 162.407,180.018 162.036,177.748 170.400 C 174.049 184.027,174.111 183.539,176.000 184.228 C 179.424 185.478,180.107 185.054,181.206 181.000 C 181.384 180.340,181.829 178.720,182.194 177.400 C 182.559 176.080,183.366 173.020,183.988 170.600 C 185.668 164.059,186.032 163.331,187.364 163.841 C 188.156 164.146,188.155 165.479,187.360 168.600 C 186.710 171.150,186.638 171.405,185.003 177.000 C 182.261 186.384,182.240 185.856,185.400 186.838 C 189.003 187.956,189.220 187.765,190.431 182.400 C 190.756 180.960,191.073 179.805,192.190 176.000 C 192.546 174.790,193.199 172.463,193.642 170.828 C 194.647 167.125,195.031 166.400,195.987 166.400 C 197.209 166.400,197.250 167.570,196.162 171.400 C 194.559 177.040,192.329 185.672,192.115 187.065 C 191.882 188.584,192.648 189.125,195.515 189.465 L 197.408 189.689 198.137 187.344 C 198.792 185.239,199.815 181.434,201.992 173.000 C 203.174 168.421,204.248 167.020,205.205 168.810 C 205.734 169.798,204.997 173.159,202.210 182.469 C 201.638 184.377,200.482 188.618,199.640 191.893 C 196.878 202.641,193.815 206.000,186.778 206.000 C 183.949 206.000,183.995 205.939,182.597 211.692 C 181.599 215.797,181.524 216.510,181.993 217.387 C 182.589 218.501,182.479 219.170,180.340 227.400 C 179.711 229.820,178.640 234.140,177.961 237.000 C 177.282 239.860,176.581 242.774,176.402 243.477 C 175.939 245.296,176.458 245.762,180.800 247.434 C 191.377 251.504,198.800 252.143,198.800 248.984 C 198.800 248.645,199.172 247.160,199.627 245.684 C 200.082 244.208,200.714 242.100,201.032 241.000 C 201.350 239.900,201.818 238.280,202.072 237.400 C 202.700 235.226,205.105 227.784,205.838 225.742 C 206.166 224.830,206.741 224.004,207.117 223.905 C 207.817 223.721,208.215 222.795,209.396 218.600 C 209.768 217.280,210.236 215.787,210.436 215.281 C 211.118 213.560,210.843 212.911,208.900 211.654 C 195.715 203.120,211.849 168.229,226.205 174.228 C 236.248 178.424,236.918 202.751,227.244 211.916 C 225.477 213.589,224.045 214.237,220.800 214.832 C 217.524 215.432,217.631 215.316,216.513 219.495 C 215.134 224.648,215.024 225.523,215.614 226.626 C 216.114 227.561,215.410 231.822,213.998 236.400 C 212.216 242.179,210.694 249.254,211.138 249.698 C 212.445 251.005,226.432 244.778,230.657 241.008 C 230.909 240.784,232.093 239.833,233.289 238.895 C 248.514 226.954,255.064 203.286,248.482 184.000 C 248.144 183.010,247.718 182.029,247.534 181.820 C 247.350 181.611,247.199 181.161,247.198 180.820 C 247.191 178.215,239.931 167.503,235.120 162.997 C 229.596 157.825,222.527 153.706,214.883 151.204 C 209.504 149.443,197.944 148.554,192.400 149.475 M328.682 163.441 C 326.912 164.820,326.504 164.937,319.113 166.176 C 314.867 166.888,310.704 167.798,309.861 168.198 C 304.834 170.583,305.071 177.821,310.324 182.359 L 312.448 184.194 311.580 184.897 C 311.102 185.284,310.382 185.600,309.978 185.600 C 309.296 185.600,308.000 186.974,308.000 187.698 C 308.000 187.874,308.698 188.779,309.550 189.709 C 310.403 190.639,311.752 192.698,312.548 194.284 C 314.573 198.323,315.312 198.603,317.690 196.235 C 319.760 194.173,330.550 192.866,334.024 194.256 C 336.836 195.381,337.584 194.210,336.633 190.176 C 336.238 188.499,335.790 185.680,335.638 183.912 C 335.274 179.678,334.255 178.561,332.245 180.193 C 327.748 183.842,316.467 184.915,314.826 181.848 C 313.534 179.434,315.560 177.970,321.527 177.005 C 323.437 176.696,326.710 176.169,328.800 175.833 C 334.053 174.988,334.565 174.339,333.400 170.000 C 333.075 168.790,332.807 166.793,332.805 165.562 C 332.797 161.839,331.557 161.201,328.682 163.441 M76.600 163.953 C 68.599 166.273,64.000 172.203,64.000 180.200 C 64.000 198.187,89.909 203.868,97.747 187.600 C 104.017 174.587,90.820 159.830,76.600 163.953 M82.800 175.021 C 90.619 176.638,93.966 178.000,94.991 179.982 C 97.409 184.658,92.289 187.362,83.646 185.975 C 70.740 183.905,66.323 181.410,67.957 177.114 C 68.950 174.501,75.690 173.551,82.800 175.021 M219.329 177.411 C 212.199 180.964,204.762 195.922,206.426 203.361 C 208.727 213.641,224.086 215.427,228.504 205.930 C 235.629 190.613,229.717 172.234,219.329 177.411 M173.185 187.440 C 170.475 194.568,172.799 199.867,179.400 201.611 C 180.060 201.786,182.034 202.317,183.787 202.792 C 189.161 204.250,192.901 202.615,194.957 197.912 C 196.804 193.684,196.656 192.579,194.159 191.949 C 192.448 191.517,191.397 191.228,187.800 190.201 C 186.480 189.824,183.150 188.914,180.400 188.178 C 177.650 187.441,174.998 186.720,174.507 186.575 C 173.781 186.360,173.534 186.521,173.185 187.440 M81.835 199.572 C 80.205 200.867,80.256 200.855,72.931 201.791 C 68.212 202.394,67.999 202.388,66.016 201.606 C 62.447 200.200,61.589 200.961,62.384 204.828 C 62.630 206.022,63.016 208.796,63.243 210.992 C 63.804 216.433,64.433 217.015,67.421 214.863 C 72.488 211.214,84.000 211.323,84.000 215.020 C 84.000 217.350,82.841 218.028,77.600 218.764 C 75.730 219.027,73.120 219.410,71.800 219.616 C 70.480 219.822,68.738 220.088,67.929 220.208 C 65.026 220.637,64.573 221.419,65.125 225.046 C 65.389 226.781,65.604 229.015,65.603 230.011 C 65.598 233.460,66.934 234.299,69.429 232.411 C 70.293 231.757,71.279 231.217,71.620 231.211 C 71.961 231.205,72.411 231.048,72.620 230.863 C 72.829 230.678,74.800 230.304,77.000 230.033 C 90.268 228.396,92.412 227.243,92.391 221.753 C 92.380 218.666,91.378 216.533,88.772 214.048 C 86.582 211.959,86.341 210.800,88.098 210.800 C 90.715 210.800,91.517 208.578,89.611 206.612 C 88.958 205.937,87.653 203.859,86.711 201.993 C 84.729 198.062,84.117 197.759,81.835 199.572 M312.497 199.605 C 297.810 203.453,296.009 223.924,309.759 230.743 C 323.946 237.780,339.411 225.574,335.037 210.792 C 332.441 202.017,322.369 197.018,312.497 199.605 M179.480 206.480 C 177.264 212.820,176.789 215.600,177.922 215.600 C 178.439 215.600,178.836 215.264,178.987 214.700 C 179.803 211.653,180.167 210.421,180.684 208.958 C 181.325 207.146,181.254 205.145,180.541 204.911 C 180.288 204.828,179.811 205.534,179.480 206.480 M318.830 210.590 C 328.410 211.947,332.000 213.742,332.000 217.176 C 332.000 221.221,326.921 222.484,316.573 221.013 C 308.441 219.857,304.000 217.509,304.000 214.367 C 304.000 210.482,309.025 209.202,318.830 210.590 M213.287 214.900 C 212.674 215.646,210.587 224.320,210.936 224.670 C 211.479 225.212,212.597 224.146,212.731 222.960 C 212.803 222.322,213.028 221.629,213.231 221.420 C 213.434 221.211,213.606 220.671,213.613 220.220 C 213.620 219.769,213.966 218.415,214.382 217.211 C 214.797 216.007,215.051 214.882,214.945 214.711 C 214.652 214.237,213.747 214.340,213.287 214.900 M173.501 221.055 C 172.958 222.785,172.203 225.280,171.824 226.600 C 171.446 227.920,170.991 229.450,170.814 230.000 C 170.638 230.550,170.266 231.810,169.989 232.800 C 169.711 233.790,169.114 235.731,168.662 237.114 L 167.838 239.628 168.819 240.514 C 173.673 244.898,173.258 245.404,176.779 230.800 C 177.654 227.170,178.556 223.432,178.785 222.494 C 179.581 219.222,179.220 218.701,175.745 218.120 L 174.489 217.910 173.501 221.055 M207.517 228.860 C 207.174 229.817,206.502 231.950,206.024 233.600 C 205.545 235.250,204.892 237.500,204.572 238.600 C 204.252 239.700,203.792 241.320,203.549 242.200 C 203.307 243.080,202.968 244.160,202.797 244.600 C 200.460 250.590,200.554 251.028,204.148 250.909 C 207.187 250.808,207.810 250.492,208.129 248.887 C 208.248 248.289,208.824 246.000,209.408 243.800 C 212.579 231.870,213.136 228.608,212.097 228.052 C 209.664 226.750,208.178 227.012,207.517 228.860 M291.519 235.905 C 290.629 236.096,290.457 236.820,290.498 240.200 C 290.517 241.740,290.235 244.131,289.871 245.513 C 288.977 248.912,289.431 249.763,291.943 249.394 C 293.479 249.169,296.000 249.719,296.000 250.280 C 296.000 250.381,295.308 251.754,294.462 253.332 C 290.757 260.244,291.516 264.873,297.219 270.154 C 306.902 279.118,318.274 276.385,317.414 265.300 C 317.273 263.485,317.246 262.000,317.353 262.000 C 317.460 262.000,318.010 262.176,318.574 262.390 C 320.316 263.052,321.523 262.275,322.627 259.778 C 323.168 258.553,324.239 256.620,325.006 255.481 C 327.313 252.055,326.783 250.884,322.930 250.889 C 320.432 250.893,319.981 250.675,303.600 241.521 C 293.964 236.137,292.850 235.619,291.519 235.905 M91.349 240.980 C 83.786 243.114,78.064 249.612,77.665 256.520 C 77.082 266.587,87.342 277.877,94.816 275.395 C 98.160 274.284,99.464 272.045,98.196 269.592 C 97.215 267.694,96.393 267.480,91.327 267.796 C 81.106 268.435,80.018 261.255,89.361 254.827 C 102.137 246.037,112.138 249.514,106.856 260.910 C 103.317 268.546,108.409 268.355,114.058 260.640 C 115.507 258.661,115.501 258.592,113.679 255.762 C 112.842 254.463,111.860 252.650,111.496 251.734 C 108.127 243.258,99.534 238.670,91.349 240.980 M302.651 254.218 C 309.695 257.027,312.926 259.850,312.237 262.594 C 311.566 265.270,304.033 262.935,299.390 258.611 C 295.855 255.319,298.038 252.378,302.651 254.218 M116.451 261.338 C 116.206 261.634,115.888 262.489,115.746 263.238 C 115.135 266.458,96.834 281.600,93.554 281.600 C 90.978 281.600,91.292 283.455,94.420 286.708 C 95.632 287.969,97.311 289.948,98.151 291.107 C 100.621 294.515,102.431 294.855,103.185 292.055 C 103.908 289.369,108.128 285.297,123.370 272.571 C 129.266 267.647,129.749 265.554,125.200 264.632 C 124.650 264.520,122.850 263.616,121.200 262.621 C 118.017 260.703,117.169 260.474,116.451 261.338 M284.501 271.360 C 275.747 274.219,270.363 284.761,274.062 291.800 C 280.179 303.442,295.004 302.782,300.999 290.600 C 305.953 280.532,295.116 267.893,284.501 271.360 M126.000 272.608 C 121.665 274.544,122.334 278.639,127.333 280.774 C 135.090 284.088,142.380 276.887,135.074 273.128 C 132.863 271.991,128.004 271.712,126.000 272.608 M285.838 279.543 C 292.864 284.132,297.158 291.099,294.169 293.057 C 290.830 295.245,277.969 282.349,280.158 279.008 C 281.151 277.492,282.960 277.663,285.838 279.543 M118.486 280.900 C 118.260 281.175,117.951 282.234,117.799 283.254 C 117.304 286.579,108.889 295.600,106.282 295.600 C 103.824 295.600,104.189 298.425,106.876 300.203 C 107.732 300.769,109.750 302.485,111.362 304.016 C 114.687 307.175,116.211 307.664,116.606 305.700 C 117.163 302.937,117.898 301.571,120.537 298.400 C 122.093 296.530,123.464 294.910,123.583 294.800 C 125.653 292.892,131.211 285.976,131.187 285.338 C 131.148 284.282,129.895 283.524,127.667 283.209 C 126.343 283.022,124.095 282.314,122.672 281.635 C 119.831 280.278,119.103 280.151,118.486 280.900 M260.507 291.200 C 248.005 293.826,243.331 306.466,251.384 315.873 C 260.407 326.413,280.905 314.669,276.294 301.600 C 273.620 294.021,267.203 289.794,260.507 291.200 M133.956 292.588 C 127.101 295.111,122.502 303.466,124.620 309.548 C 127.956 319.126,142.607 325.350,147.012 319.061 C 149.028 316.183,146.264 314.266,142.921 316.225 C 138.543 318.791,134.400 316.557,134.400 311.631 C 134.400 305.685,142.798 295.306,145.234 298.242 C 145.818 298.945,145.938 298.662,143.054 303.376 C 138.792 310.343,147.778 316.354,152.281 309.549 C 157.698 301.364,144.158 288.833,133.956 292.588 M168.600 292.717 C 168.160 292.810,167.582 293.063,167.315 293.280 C 167.048 293.496,165.026 293.795,162.823 293.943 C 157.881 294.275,157.113 294.766,158.142 296.933 C 158.942 298.620,158.975 300.218,158.258 302.486 C 157.360 305.322,156.867 307.098,155.057 314.008 C 153.115 321.417,152.482 322.989,150.782 324.618 C 148.401 326.898,149.216 328.066,153.800 328.945 C 155.560 329.283,158.063 329.928,159.363 330.380 C 163.758 331.906,165.108 331.156,164.000 327.801 C 163.488 326.247,163.890 322.876,164.949 319.850 C 165.740 317.590,166.017 318.484,166.598 325.173 C 167.257 332.770,167.268 332.789,171.000 333.433 C 171.880 333.585,173.462 334.045,174.515 334.455 C 178.673 336.073,180.637 335.169,179.272 332.264 C 178.777 331.210,178.189 328.481,177.788 325.370 C 177.026 319.453,176.342 317.797,174.029 316.266 C 173.133 315.674,172.400 315.005,172.400 314.780 C 172.400 314.111,175.874 312.826,178.939 312.362 C 185.150 311.423,185.497 308.675,179.535 307.635 C 178.290 307.418,176.603 306.961,175.786 306.620 C 172.785 305.366,171.306 306.108,171.779 308.629 C 172.175 310.738,168.372 314.971,166.899 314.061 C 166.515 313.824,168.263 305.930,169.303 303.200 C 171.885 296.421,171.594 292.083,168.600 292.717 M232.800 296.386 C 231.370 296.778,228.819 297.571,227.132 298.149 C 223.087 299.533,216.835 301.198,215.680 301.199 C 212.587 301.202,211.591 303.338,213.746 305.346 C 215.624 307.096,215.914 307.770,217.893 315.000 C 218.857 318.520,219.829 322.030,220.052 322.800 C 221.423 327.526,221.765 330.005,221.289 331.782 C 220.367 335.232,221.304 335.646,226.444 334.061 C 228.510 333.424,231.190 332.677,232.400 332.400 C 235.869 331.607,236.512 330.528,234.581 328.742 C 232.277 326.611,229.300 317.926,230.414 316.584 C 231.156 315.689,234.895 315.828,236.847 316.824 C 240.491 318.683,241.289 317.427,239.810 312.159 C 238.283 306.726,236.850 305.556,235.281 308.463 C 233.746 311.310,230.537 313.626,229.239 312.824 C 228.673 312.474,226.400 305.249,226.400 303.798 C 226.400 300.595,234.917 301.157,239.510 304.664 C 243.961 308.060,245.094 305.356,241.394 300.171 C 238.061 295.500,237.280 295.156,232.800 296.386 M259.845 297.162 C 263.787 299.566,269.427 310.973,267.858 313.368 C 265.612 316.795,258.636 309.526,256.155 301.175 C 255.075 297.536,257.009 295.433,259.845 297.162 M197.927 327.887 C 195.067 329.661,195.149 334.326,198.066 335.834 C 202.278 338.012,206.891 333.586,204.546 329.616 C 203.198 327.334,200.116 326.529,197.927 327.887 " stroke="none" fill="#d7d7d7" fill-rule="evenodd"></path><path id="path1" d="M0.000 200.000 L 0.000 400.000 200.000 400.000 L 400.000 400.000 400.000 200.000 L 400.000 0.000 200.000 0.000 L 0.000 0.000 0.000 200.000 M205.763 64.378 C 207.452 66.068,207.547 69.035,205.961 70.621 C 203.640 72.942,199.434 72.168,198.247 69.201 C 196.360 64.485,202.152 60.768,205.763 64.378 M222.400 64.567 C 223.610 64.910,225.075 65.193,225.656 65.195 C 227.891 65.205,228.436 66.205,229.045 71.419 C 230.143 80.818,230.504 81.561,231.659 76.800 C 232.539 73.174,232.566 72.172,231.843 70.123 C 230.804 67.176,232.737 66.369,237.055 67.947 C 238.179 68.358,239.976 68.817,241.049 68.968 C 246.495 69.735,247.393 70.715,245.100 73.385 C 243.197 75.600,243.042 76.068,240.002 88.800 C 237.984 97.254,237.832 98.660,238.612 101.702 C 239.051 103.417,238.319 103.905,234.878 104.195 C 233.185 104.337,230.882 104.727,229.760 105.062 C 225.676 106.282,224.866 105.116,226.155 99.870 C 226.489 98.512,227.116 95.870,227.550 94.000 C 227.983 92.130,228.639 89.305,229.006 87.723 C 229.860 84.049,229.616 83.675,227.369 85.221 C 224.947 86.887,224.239 88.053,224.536 89.882 C 224.939 92.368,223.480 93.024,220.150 91.856 C 219.298 91.557,217.550 91.182,216.267 91.023 C 213.669 90.701,212.332 89.748,212.669 88.457 C 212.924 87.484,213.322 87.310,217.400 86.386 C 223.625 84.977,225.124 83.790,222.421 82.410 C 219.651 80.998,218.748 79.038,217.988 72.800 C 217.734 70.710,217.183 68.212,216.763 67.249 C 215.769 64.968,215.799 64.048,216.882 63.648 C 217.767 63.320,218.323 63.413,222.400 64.567 M181.881 64.267 C 182.022 64.634,181.942 65.865,181.703 67.004 C 181.195 69.423,181.460 71.077,184.001 81.400 C 186.322 90.827,186.413 91.085,188.100 93.010 C 190.720 96.001,190.121 96.969,185.128 97.816 C 182.297 98.296,178.887 99.131,173.000 100.786 C 172.340 100.972,170.900 101.409,169.800 101.757 C 165.408 103.150,164.017 102.679,161.374 98.904 C 157.106 92.808,158.071 90.096,163.200 93.772 C 167.223 96.655,173.607 97.761,175.472 95.899 C 176.234 95.138,175.028 88.630,173.730 86.500 C 172.615 84.669,169.705 85.910,167.399 89.200 C 165.037 92.570,164.056 91.926,162.568 86.026 C 161.152 80.412,161.925 79.319,165.838 81.400 C 167.660 82.369,170.328 82.709,171.767 82.157 C 172.606 81.835,172.565 80.596,171.586 76.667 C 170.476 72.215,170.159 71.511,168.573 69.974 C 166.100 67.576,167.045 66.342,171.936 65.583 C 173.549 65.332,175.799 64.797,176.935 64.393 C 179.618 63.439,181.544 63.390,181.881 64.267 M260.050 77.004 C 272.062 81.149,275.963 91.971,268.627 100.800 C 263.468 107.008,253.901 106.909,246.855 100.573 C 239.746 94.182,243.620 82.757,251.746 86.152 C 255.353 87.659,255.819 91.086,253.000 95.378 C 249.830 100.204,252.501 102.034,256.441 97.736 C 264.920 88.487,262.994 76.718,253.768 81.398 C 250.810 82.899,248.800 82.473,248.800 80.345 C 248.800 76.967,254.789 75.189,260.050 77.004 M146.689 78.478 C 155.730 82.702,157.838 94.915,150.658 101.477 C 142.260 109.153,131.233 107.540,126.888 98.000 C 122.849 89.131,128.275 80.218,139.400 77.446 C 140.967 77.055,144.808 77.599,146.689 78.478 M135.023 83.334 C 134.209 83.929,134.039 87.799,134.794 88.554 C 135.018 88.778,135.200 89.169,135.200 89.425 C 135.200 92.020,141.891 100.800,143.869 100.800 C 147.131 100.800,147.119 97.907,143.831 91.385 C 140.331 84.441,137.298 81.670,135.023 83.334 M285.017 92.587 C 286.108 93.605,288.039 95.179,289.308 96.083 C 292.848 98.605,292.872 99.684,289.425 101.370 C 287.752 102.189,286.453 103.351,283.918 106.297 C 279.637 111.270,279.206 111.932,279.203 113.526 C 279.196 116.659,278.354 116.932,274.000 115.212 C 272.350 114.561,270.275 114.021,269.389 114.014 C 264.251 113.970,264.740 112.264,272.603 102.800 C 278.045 96.250,279.574 93.894,279.591 92.031 C 279.618 89.111,281.503 89.304,285.017 92.587 M120.125 97.526 C 129.502 101.674,131.819 113.402,124.673 120.548 C 116.640 128.581,106.632 127.447,101.018 117.867 C 94.807 107.269,108.704 92.474,120.125 97.526 M298.263 104.636 C 299.328 105.866,301.319 107.955,302.687 109.279 C 306.066 112.550,306.326 114.800,303.325 114.800 C 301.019 114.800,298.794 116.527,286.761 127.655 C 282.925 131.203,282.469 131.776,281.959 133.688 C 281.248 136.355,280.462 136.534,277.543 134.695 C 275.326 133.299,274.184 132.810,271.324 132.036 C 269.580 131.564,268.940 130.649,269.381 129.259 C 269.510 128.852,274.303 124.233,280.032 118.994 C 290.002 109.876,293.600 106.306,293.600 105.531 C 293.600 102.165,295.763 101.750,298.263 104.636 M107.448 104.034 C 106.057 105.128,106.121 105.794,107.900 108.735 C 112.565 116.448,120.794 121.550,121.841 117.379 C 122.958 112.927,110.650 101.515,107.448 104.034 M270.911 116.750 C 274.231 118.369,274.957 121.203,272.619 123.408 C 268.405 127.383,259.200 125.055,259.200 120.016 C 259.200 116.122,265.834 114.272,270.911 116.750 M96.058 121.190 C 106.965 124.580,111.788 134.816,106.402 143.148 C 104.200 146.556,104.505 147.082,108.800 147.292 C 111.404 147.420,111.738 148.292,110.623 152.046 C 110.281 153.201,110.000 155.456,110.000 157.059 C 110.000 162.098,109.472 162.046,99.180 155.990 C 79.028 144.134,80.256 144.774,77.375 144.614 C 74.058 144.430,73.763 143.489,75.996 140.200 C 76.593 139.320,77.675 137.520,78.401 136.200 C 80.015 133.262,80.157 133.159,82.400 133.293 C 84.127 133.396,84.192 133.360,84.000 132.400 C 82.345 124.123,88.145 118.731,96.058 121.190 M309.518 121.646 C 320.577 126.933,323.378 142.594,314.701 150.628 C 304.903 159.698,292.102 156.909,286.121 144.400 C 285.437 142.970,284.410 141.180,283.839 140.422 C 282.388 138.498,282.525 137.613,284.689 134.937 C 290.482 127.768,293.274 128.286,290.760 136.062 C 287.718 145.473,292.346 149.202,301.916 145.054 C 312.379 140.519,317.158 133.449,312.590 129.263 C 310.984 127.791,310.635 127.767,304.023 128.659 C 301.699 128.973,299.792 127.995,299.195 126.184 C 297.668 121.558,303.746 118.886,309.518 121.646 M211.800 128.230 C 242.689 133.603,266.213 157.190,271.827 188.417 C 273.171 195.896,272.632 210.578,270.793 216.600 C 266.628 230.233,264.079 235.644,257.982 243.803 C 249.235 255.509,234.146 266.035,221.000 269.603 C 211.033 272.308,209.176 272.570,200.000 272.570 C 180.362 272.570,163.271 265.547,149.075 251.644 C 139.235 242.006,133.898 232.592,129.210 216.600 C 126.868 208.615,126.885 191.951,129.242 183.400 C 138.129 151.162,161.998 130.724,194.600 127.438 C 197.700 127.126,208.242 127.611,211.800 128.230 M90.200 132.314 C 86.658 132.995,88.704 136.830,94.384 140.159 C 99.165 142.961,102.355 143.414,103.264 141.418 C 104.590 138.510,94.509 131.485,90.200 132.314 M191.603 147.201 C 171.087 150.981,154.231 165.310,149.357 183.113 C 149.012 184.371,148.554 186.030,148.339 186.800 C 146.804 192.284,146.400 195.124,146.400 200.443 C 146.400 223.660,162.067 244.707,184.139 251.142 C 192.774 253.659,193.338 253.751,200.200 253.743 C 220.869 253.720,239.942 241.812,248.489 223.594 C 253.091 213.785,254.895 199.695,252.786 190.034 C 248.022 168.204,233.746 153.329,212.600 148.160 C 211.280 147.838,209.570 147.393,208.800 147.172 C 205.937 146.352,196.126 146.368,191.603 147.201 M209.283 149.790 C 213.939 150.681,216.884 151.688,222.200 154.208 C 229.811 157.815,236.468 163.344,241.229 170.013 C 244.033 173.940,247.195 179.665,247.198 180.820 C 247.199 181.161,247.350 181.611,247.534 181.820 C 247.904 182.241,248.866 184.937,249.524 187.400 C 252.086 196.981,251.460 208.858,247.910 218.000 C 244.647 226.404,239.091 234.344,233.289 238.895 C 232.093 239.833,230.909 240.784,230.657 241.008 C 226.432 244.778,212.445 251.005,211.138 249.698 C 210.694 249.254,212.216 242.179,213.998 236.400 C 215.410 231.822,216.114 227.561,215.614 226.626 C 215.024 225.523,215.134 224.648,216.513 219.495 C 217.631 215.316,217.524 215.432,220.800 214.832 C 230.326 213.086,235.919 200.618,233.657 186.167 C 231.711 173.733,223.394 169.962,214.502 177.483 C 203.521 186.773,200.349 206.119,208.900 211.654 C 210.843 212.911,211.118 213.560,210.436 215.281 C 210.236 215.787,209.768 217.280,209.396 218.600 C 208.215 222.795,207.817 223.721,207.117 223.905 C 206.741 224.004,206.166 224.830,205.838 225.742 C 205.105 227.784,202.700 235.226,202.072 237.400 C 201.818 238.280,201.350 239.900,201.032 241.000 C 200.714 242.100,200.082 244.208,199.627 245.684 C 199.172 247.160,198.800 248.645,198.800 248.984 C 198.800 252.143,191.377 251.504,180.800 247.434 C 176.458 245.762,175.939 245.296,176.402 243.477 C 176.581 242.774,177.282 239.860,177.961 237.000 C 178.640 234.140,179.711 229.820,180.340 227.400 C 182.479 219.170,182.589 218.501,181.993 217.387 C 181.524 216.510,181.599 215.797,182.597 211.692 C 183.995 205.939,183.949 206.000,186.778 206.000 C 193.815 206.000,196.878 202.641,199.640 191.893 C 200.482 188.618,201.638 184.377,202.210 182.469 C 204.997 173.159,205.734 169.798,205.205 168.810 C 204.248 167.020,203.174 168.421,201.992 173.000 C 199.815 181.434,198.792 185.239,198.137 187.344 L 197.408 189.689 195.515 189.465 C 192.648 189.125,191.882 188.584,192.115 187.065 C 192.329 185.672,194.559 177.040,196.162 171.400 C 197.250 167.570,197.209 166.400,195.987 166.400 C 195.031 166.400,194.647 167.125,193.642 170.828 C 193.199 172.463,192.546 174.790,192.190 176.000 C 191.073 179.805,190.756 180.960,190.431 182.400 C 189.220 187.765,189.003 187.956,185.400 186.838 C 182.240 185.856,182.261 186.384,185.003 177.000 C 186.638 171.405,186.710 171.150,187.360 168.600 C 188.155 165.479,188.156 164.146,187.364 163.841 C 186.032 163.331,185.668 164.059,183.988 170.600 C 183.366 173.020,182.559 176.080,182.194 177.400 C 181.829 178.720,181.384 180.340,181.206 181.000 C 180.107 185.054,179.424 185.478,176.000 184.228 C 174.111 183.539,174.049 184.027,177.748 170.400 C 180.018 162.036,179.950 162.407,179.330 161.787 C 178.249 160.706,177.450 161.732,176.470 165.462 C 175.958 167.408,175.359 169.444,175.139 169.987 C 174.918 170.530,174.110 173.410,173.342 176.387 C 172.575 179.364,171.586 183.150,171.146 184.800 C 170.705 186.450,170.161 188.520,169.937 189.400 C 169.373 191.611,169.724 196.309,170.579 198.000 C 171.501 199.826,174.783 203.200,175.636 203.200 C 176.959 203.200,177.348 204.234,176.802 206.303 C 175.522 211.163,174.234 214.417,173.367 214.985 C 172.767 215.378,172.165 216.557,171.578 218.488 C 171.091 220.090,170.160 223.020,169.509 225.000 C 168.858 226.980,168.064 229.590,167.743 230.800 C 166.325 236.160,165.932 237.200,165.329 237.200 C 163.306 237.200,152.800 222.212,152.800 219.326 C 152.800 219.119,152.445 218.216,152.012 217.319 C 151.255 215.753,150.819 214.304,149.930 210.400 C 148.740 205.172,149.104 193.285,150.642 187.200 C 151.145 185.208,151.444 184.282,152.384 181.800 C 158.661 165.226,174.474 152.452,192.400 149.475 C 195.085 149.029,206.411 149.240,209.283 149.790 M332.069 162.662 C 332.610 163.152,332.801 163.906,332.805 165.562 C 332.807 166.793,333.075 168.790,333.400 170.000 C 334.565 174.339,334.053 174.988,328.800 175.833 C 326.710 176.169,323.437 176.696,321.527 177.005 C 315.560 177.970,313.534 179.434,314.826 181.848 C 315.852 183.765,318.952 184.096,325.369 182.973 C 329.080 182.324,330.154 181.890,332.245 180.193 C 334.255 178.561,335.274 179.678,335.638 183.912 C 335.790 185.680,336.238 188.499,336.633 190.176 C 337.584 194.210,336.836 195.381,334.024 194.256 C 330.550 192.866,319.760 194.173,317.690 196.235 C 315.312 198.603,314.573 198.323,312.548 194.284 C 311.752 192.698,310.403 190.639,309.550 189.709 C 308.698 188.779,308.000 187.874,308.000 187.698 C 308.000 186.974,309.296 185.600,309.978 185.600 C 310.382 185.600,311.102 185.284,311.580 184.897 L 312.448 184.194 310.324 182.359 C 305.071 177.821,304.834 170.583,309.861 168.198 C 310.704 167.798,314.867 166.888,319.113 166.176 C 326.504 164.937,326.912 164.820,328.682 163.441 C 330.781 161.805,331.053 161.743,332.069 162.662 M85.704 163.975 C 102.587 168.293,104.275 190.556,88.151 196.266 C 84.820 197.445,78.479 197.235,75.000 195.829 C 54.831 187.680,64.609 158.580,85.704 163.975 M69.883 175.236 C 65.522 177.538,67.387 181.760,73.653 183.768 C 87.820 188.308,98.332 186.443,94.991 179.982 C 92.970 176.075,74.802 172.640,69.883 175.236 M225.497 177.015 C 234.551 180.798,232.892 207.460,223.355 211.445 C 218.703 213.388,210.730 211.090,207.957 207.007 C 201.363 197.298,215.634 172.894,225.497 177.015 M180.400 188.178 C 183.150 188.914,186.480 189.824,187.800 190.201 C 191.397 191.228,192.448 191.517,194.159 191.949 C 196.656 192.579,196.804 193.684,194.957 197.912 C 192.901 202.615,189.161 204.250,183.787 202.792 C 182.034 202.317,180.060 201.786,179.400 201.611 C 172.799 199.867,170.475 194.568,173.185 187.440 C 173.534 186.521,173.781 186.360,174.507 186.575 C 174.998 186.720,177.650 187.441,180.400 188.178 M86.711 201.993 C 87.653 203.859,88.958 205.937,89.611 206.612 C 91.517 208.578,90.715 210.800,88.098 210.800 C 86.341 210.800,86.582 211.959,88.772 214.048 C 91.378 216.533,92.380 218.666,92.391 221.753 C 92.412 227.243,90.268 228.396,77.000 230.033 C 74.800 230.304,72.829 230.678,72.620 230.863 C 72.411 231.048,71.961 231.205,71.620 231.211 C 71.279 231.217,70.293 231.757,69.429 232.411 C 66.934 234.299,65.598 233.460,65.603 230.011 C 65.604 229.015,65.389 226.781,65.125 225.046 C 64.573 221.419,65.026 220.637,67.929 220.208 C 68.738 220.088,70.480 219.822,71.800 219.616 C 73.120 219.410,75.730 219.027,77.600 218.764 C 82.841 218.028,84.000 217.350,84.000 215.020 C 84.000 211.323,72.488 211.214,67.421 214.863 C 64.433 217.015,63.804 216.433,63.243 210.992 C 63.016 208.796,62.630 206.022,62.384 204.828 C 61.589 200.961,62.447 200.200,66.016 201.606 C 67.999 202.388,68.212 202.394,72.931 201.791 C 80.256 200.855,80.205 200.867,81.835 199.572 C 84.117 197.759,84.729 198.062,86.711 201.993 M321.800 199.347 C 330.919 201.319,335.900 207.658,335.531 216.824 C 334.653 238.703,300.428 237.510,300.407 215.600 C 300.396 204.429,310.346 196.870,321.800 199.347 M181.132 206.189 C 181.205 206.809,181.003 208.055,180.684 208.958 C 180.167 210.421,179.803 211.653,178.987 214.700 C 178.836 215.264,178.439 215.600,177.922 215.600 C 176.976 215.600,177.051 214.329,178.234 210.362 C 179.909 204.745,180.811 203.447,181.132 206.189 M307.474 210.531 C 302.825 211.961,302.786 216.202,307.400 218.508 C 312.198 220.907,324.043 222.417,328.451 221.193 C 333.098 219.902,333.088 214.512,328.434 212.735 C 322.818 210.592,311.237 209.374,307.474 210.531 M214.945 214.711 C 215.051 214.882,214.797 216.007,214.382 217.211 C 213.966 218.415,213.620 219.769,213.613 220.220 C 213.606 220.671,213.434 221.211,213.231 221.420 C 213.028 221.629,212.803 222.322,212.731 222.960 C 212.597 224.146,211.479 225.212,210.936 224.670 C 210.587 224.320,212.674 215.646,213.287 214.900 C 213.747 214.340,214.652 214.237,214.945 214.711 M178.100 218.755 C 179.321 219.227,179.432 219.834,178.785 222.494 C 178.556 223.432,177.654 227.170,176.779 230.800 C 173.258 245.404,173.673 244.898,168.819 240.514 L 167.838 239.628 168.662 237.114 C 169.114 235.731,169.711 233.790,169.989 232.800 C 170.266 231.810,170.638 230.550,170.814 230.000 C 170.991 229.450,171.446 227.920,171.824 226.600 C 172.203 225.280,172.958 222.785,173.501 221.055 L 174.489 217.910 175.745 218.120 C 176.435 218.235,177.495 218.521,178.100 218.755 M212.097 228.052 C 213.136 228.608,212.579 231.870,209.408 243.800 C 208.824 246.000,208.248 248.289,208.129 248.887 C 207.810 250.492,207.187 250.808,204.148 250.909 C 200.554 251.028,200.460 250.590,202.797 244.600 C 202.968 244.160,203.307 243.080,203.549 242.200 C 203.792 241.320,204.252 239.700,204.572 238.600 C 204.892 237.500,205.545 235.250,206.024 233.600 C 208.028 226.691,208.592 226.176,212.097 228.052 M297.800 238.324 C 300.000 239.529,302.610 240.968,303.600 241.521 C 319.981 250.675,320.432 250.893,322.930 250.889 C 326.783 250.884,327.313 252.055,325.006 255.481 C 324.239 256.620,323.168 258.553,322.627 259.778 C 321.523 262.275,320.316 263.052,318.574 262.390 C 318.010 262.176,317.460 262.000,317.353 262.000 C 317.246 262.000,317.273 263.485,317.414 265.300 C 318.274 276.385,306.902 279.118,297.219 270.154 C 291.516 264.873,290.757 260.244,294.462 253.332 C 295.308 251.754,296.000 250.381,296.000 250.280 C 296.000 249.719,293.479 249.169,291.943 249.394 C 289.431 249.763,288.977 248.912,289.871 245.513 C 290.235 244.131,290.517 241.740,290.498 240.200 C 290.432 234.737,290.991 234.593,297.800 238.324 M101.200 241.264 C 105.715 242.943,109.553 246.846,111.496 251.734 C 111.860 252.650,112.842 254.463,113.679 255.762 C 115.501 258.592,115.507 258.661,114.058 260.640 C 108.409 268.355,103.317 268.546,106.856 260.910 C 112.138 249.514,102.137 246.037,89.361 254.827 C 80.018 261.255,81.106 268.435,91.327 267.796 C 96.393 267.480,97.215 267.694,98.196 269.592 C 99.464 272.045,98.160 274.284,94.816 275.395 C 87.342 277.877,77.082 266.587,77.665 256.520 C 78.064 249.612,83.786 243.114,91.349 240.980 C 93.734 240.307,99.038 240.460,101.200 241.264 M298.262 254.331 C 296.159 256.655,300.627 260.886,307.842 263.404 C 312.650 265.081,314.327 261.297,310.127 258.248 C 304.935 254.480,299.693 252.750,298.262 254.331 M121.200 262.621 C 122.850 263.616,124.650 264.520,125.200 264.632 C 129.749 265.554,129.266 267.647,123.370 272.571 C 108.128 285.297,103.908 289.369,103.185 292.055 C 102.431 294.855,100.621 294.515,98.151 291.107 C 97.311 289.948,95.632 287.969,94.420 286.708 C 91.292 283.455,90.978 281.600,93.554 281.600 C 95.567 281.600,98.257 279.745,106.501 272.670 C 115.657 264.814,115.396 265.080,115.746 263.238 C 116.310 260.269,117.140 260.175,121.200 262.621 M293.714 272.140 C 305.340 277.828,304.838 292.393,292.789 299.000 C 282.132 304.843,268.721 291.714,274.118 280.723 C 278.108 272.599,286.837 268.776,293.714 272.140 M135.074 273.128 C 142.380 276.887,135.090 284.088,127.333 280.774 C 122.334 278.639,121.665 274.544,126.000 272.608 C 128.004 271.712,132.863 271.991,135.074 273.128 M280.158 279.008 C 277.969 282.349,290.830 295.245,294.169 293.057 C 296.468 291.550,295.476 288.648,291.107 284.107 C 285.808 278.600,281.684 276.679,280.158 279.008 M122.672 281.635 C 124.095 282.314,126.343 283.022,127.667 283.209 C 129.895 283.524,131.148 284.282,131.187 285.338 C 131.211 285.976,125.653 292.892,123.583 294.800 C 123.464 294.910,122.093 296.530,120.537 298.400 C 117.898 301.571,117.163 302.937,116.606 305.700 C 116.211 307.664,114.687 307.175,111.362 304.016 C 109.750 302.485,107.732 300.769,106.876 300.203 C 104.189 298.425,103.824 295.600,106.282 295.600 C 107.415 295.600,109.084 294.405,111.677 291.737 C 116.229 287.053,117.494 285.299,117.799 283.254 C 118.285 279.988,118.837 279.804,122.672 281.635 M268.168 291.962 C 277.046 295.984,279.563 307.741,272.993 314.501 C 263.148 324.629,247.945 319.676,247.260 306.116 C 246.769 296.403,259.278 287.935,268.168 291.962 M141.586 292.634 C 151.656 296.140,156.297 303.480,152.281 309.549 C 147.778 316.354,138.792 310.343,143.054 303.376 C 145.938 298.662,145.818 298.945,145.234 298.242 C 142.798 295.306,134.400 305.685,134.400 311.631 C 134.400 316.557,138.543 318.791,142.921 316.225 C 146.264 314.266,149.028 316.183,147.012 319.061 C 143.386 324.238,129.730 320.000,125.849 312.494 C 120.341 301.843,130.655 288.827,141.586 292.634 M170.894 293.371 C 171.503 294.260,170.612 299.763,169.303 303.200 C 168.263 305.930,166.515 313.824,166.899 314.061 C 168.372 314.971,172.175 310.738,171.779 308.629 C 171.306 306.108,172.785 305.366,175.786 306.620 C 176.603 306.961,178.290 307.418,179.535 307.635 C 185.497 308.675,185.150 311.423,178.939 312.362 C 175.874 312.826,172.400 314.111,172.400 314.780 C 172.400 315.005,173.133 315.674,174.029 316.266 C 176.342 317.797,177.026 319.453,177.788 325.370 C 178.189 328.481,178.777 331.210,179.272 332.264 C 180.637 335.169,178.673 336.073,174.515 334.455 C 173.462 334.045,171.880 333.585,171.000 333.433 C 167.268 332.789,167.257 332.770,166.598 325.173 C 166.017 318.484,165.740 317.590,164.949 319.850 C 163.890 322.876,163.488 326.247,164.000 327.801 C 165.108 331.156,163.758 331.906,159.363 330.380 C 158.063 329.928,155.560 329.283,153.800 328.945 C 149.216 328.066,148.401 326.898,150.782 324.618 C 152.482 322.989,153.115 321.417,155.057 314.008 C 156.867 307.098,157.360 305.322,158.258 302.486 C 158.975 300.218,158.942 298.620,158.142 296.933 C 157.113 294.766,157.881 294.275,162.823 293.943 C 165.026 293.795,167.048 293.496,167.315 293.280 C 168.380 292.416,170.273 292.464,170.894 293.371 M238.382 296.646 C 244.301 301.627,245.356 309.126,239.510 304.664 C 234.917 301.157,226.400 300.595,226.400 303.798 C 226.400 305.249,228.673 312.474,229.239 312.824 C 230.537 313.626,233.746 311.310,235.281 308.463 C 236.850 305.556,238.283 306.726,239.810 312.159 C 241.289 317.427,240.491 318.683,236.847 316.824 C 234.895 315.828,231.156 315.689,230.414 316.584 C 229.300 317.926,232.277 326.611,234.581 328.742 C 236.512 330.528,235.869 331.607,232.400 332.400 C 231.190 332.677,228.510 333.424,226.444 334.061 C 221.304 335.646,220.367 335.232,221.289 331.782 C 221.765 330.005,221.423 327.526,220.052 322.800 C 219.829 322.030,218.857 318.520,217.893 315.000 C 215.914 307.770,215.624 307.096,213.746 305.346 C 211.591 303.338,212.587 301.202,215.680 301.199 C 216.835 301.198,223.087 299.533,227.132 298.149 C 235.065 295.435,236.685 295.218,238.382 296.646 M257.078 296.844 C 254.708 298.223,255.725 302.240,260.191 309.144 C 265.772 317.770,271.153 315.247,266.469 306.200 C 262.932 299.369,259.174 295.625,257.078 296.844 M202.784 327.854 C 206.934 330.305,205.233 336.400,200.400 336.400 C 197.737 336.400,195.840 334.486,195.840 331.800 C 195.840 328.184,199.664 326.011,202.784 327.854 " stroke="none" fill="#545454" fill-rule="evenodd"></path></g></svg>