<svg id="svg" version="1.1" xmlns="http://www.w3.org/2000/svg" xmlns:xlink="http://www.w3.org/1999/xlink" width="400" height="400" viewBox="0, 0, 400,400"><g id="svgg"><path id="path0" d="M191.800 17.572 C 189.852 17.812,189.833 17.827,191.082 18.137 C 192.466 18.481,198.400 18.375,198.400 18.006 C 198.400 17.883,199.120 17.782,200.000 17.782 C 200.880 17.782,201.600 17.883,201.600 18.006 C 201.600 18.371,207.525 18.483,208.918 18.144 C 211.918 17.414,197.097 16.919,191.800 17.572 M180.629 18.358 C 179.901 18.643,179.898 18.675,180.580 18.937 C 180.977 19.089,181.520 19.032,181.788 18.810 C 182.055 18.588,182.421 18.540,182.601 18.703 C 182.781 18.867,182.799 18.775,182.641 18.500 C 182.321 17.945,181.782 17.907,180.629 18.358 M217.375 18.440 C 217.185 18.747,217.245 18.820,217.538 18.638 C 217.792 18.481,218.000 18.543,218.000 18.776 C 218.000 19.009,218.285 19.200,218.633 19.200 C 219.432 19.200,219.151 18.242,218.304 18.078 C 217.958 18.011,217.540 18.173,217.375 18.440 M174.695 19.077 C 174.307 19.178,174.093 19.427,174.219 19.630 C 174.581 20.216,175.891 20.060,176.145 19.400 C 176.375 18.799,176.043 18.725,174.695 19.077 M223.375 19.240 C 223.185 19.547,223.245 19.620,223.538 19.438 C 223.792 19.281,224.000 19.343,224.000 19.576 C 224.000 19.809,224.285 20.000,224.633 20.000 C 225.432 20.000,225.151 19.042,224.304 18.878 C 223.958 18.811,223.540 18.973,223.375 19.240 M169.784 20.027 C 169.639 20.261,169.616 20.549,169.733 20.667 C 170.020 20.953,170.800 20.448,170.800 19.976 C 170.800 19.465,170.109 19.499,169.784 20.027 M229.200 20.200 C 229.200 20.873,229.545 20.949,230.334 20.450 C 230.759 20.180,230.732 20.060,230.201 19.856 C 229.270 19.499,229.200 19.523,229.200 20.200 M164.629 20.780 C 163.952 21.026,163.938 21.091,164.516 21.313 C 164.878 21.451,165.288 21.381,165.427 21.156 C 165.784 20.578,165.524 20.456,164.629 20.780 M321.762 64.462 C 321.595 64.731,321.651 64.816,321.896 64.664 C 322.127 64.521,322.415 64.662,322.535 64.976 C 322.656 65.290,323.170 65.763,323.677 66.026 C 324.482 66.443,324.450 66.344,323.425 65.252 C 322.083 63.822,322.141 63.849,321.762 64.462 M194.400 68.627 C 193.630 68.714,190.840 68.989,188.200 69.240 C 155.808 72.315,121.671 91.021,100.676 117.200 C 92.265 127.689,82.051 145.070,82.939 147.385 C 83.458 148.738,87.200 147.472,87.200 145.943 C 87.200 141.852,101.560 120.897,110.968 111.260 C 173.080 47.637,276.669 63.646,317.201 143.133 C 319.413 147.472,320.300 148.313,322.171 147.843 C 323.579 147.490,323.583 147.506,320.210 140.846 C 303.423 107.704,269.743 80.197,236.850 72.763 C 221.053 69.193,204.086 67.540,194.400 68.627 M332.780 75.091 C 333.021 75.581,333.571 76.170,334.002 76.401 C 334.432 76.631,335.051 77.311,335.376 77.910 C 335.702 78.510,335.975 78.765,335.984 78.477 C 335.993 78.189,335.177 77.109,334.171 76.077 C 333.164 75.045,332.539 74.601,332.780 75.091 M192.600 81.042 C 191.940 81.134,189.150 81.496,186.400 81.845 C 149.383 86.553,114.251 111.594,97.383 145.295 C 94.297 151.460,94.192 152.099,96.300 151.924 L 97.800 151.800 100.926 145.800 C 144.097 62.926,263.885 63.862,305.687 147.400 C 307.660 151.344,308.224 152.000,309.638 152.000 C 311.454 152.000,311.362 151.461,308.631 146.091 C 291.017 111.450,258.523 87.719,220.800 81.944 C 215.649 81.155,196.244 80.535,192.600 81.042 M339.598 82.900 C 339.834 83.175,340.300 83.760,340.633 84.200 C 341.142 84.873,341.139 84.793,340.609 83.700 C 340.263 82.985,339.797 82.400,339.574 82.400 C 339.313 82.400,339.321 82.578,339.598 82.900 M203.355 95.192 C 199.536 96.735,200.164 101.578,204.345 102.831 C 206.242 103.399,207.402 104.496,207.058 105.394 C 206.635 106.496,205.650 106.513,204.375 105.441 C 202.414 103.790,200.066 104.288,200.799 106.200 C 202.495 110.625,210.800 109.525,210.800 104.875 C 210.800 102.985,209.624 101.776,206.697 100.658 C 204.823 99.943,204.251 99.254,204.655 98.200 C 204.980 97.355,206.144 97.455,207.000 98.400 C 207.892 99.385,210.310 99.500,210.665 98.574 C 211.602 96.134,206.671 93.852,203.355 95.192 M191.003 95.596 C 190.666 96.140,191.610 107.633,192.063 108.500 C 192.505 109.347,194.119 109.420,194.781 108.623 C 195.310 107.986,194.654 97.822,193.973 96.100 C 193.598 95.152,191.497 94.795,191.003 95.596 M181.200 96.692 C 180.137 97.096,180.088 97.631,180.844 100.542 C 182.119 105.450,181.907 105.503,177.559 101.361 C 174.752 98.687,174.238 98.353,173.284 98.587 C 171.142 99.112,171.121 99.344,172.653 105.594 C 174.340 112.477,174.539 112.931,175.724 112.576 C 177.592 112.017,177.712 111.564,176.865 108.259 C 176.412 106.489,176.237 105.101,176.450 104.969 C 176.834 104.732,179.743 107.023,181.775 109.163 C 183.050 110.506,184.546 110.766,185.785 109.860 C 186.496 109.341,186.476 109.125,185.227 103.960 C 183.336 96.134,183.219 95.923,181.200 96.692 M220.412 97.810 C 218.570 98.640,217.671 99.495,216.757 101.284 C 213.639 107.394,220.230 113.819,226.415 110.700 C 229.609 109.089,227.893 106.915,224.321 108.046 C 221.241 109.021,218.766 106.607,219.631 103.472 C 220.514 100.273,223.520 99.593,226.237 101.979 C 227.799 103.350,230.000 103.683,230.000 102.547 C 230.000 99.134,224.025 96.182,220.412 97.810 M158.248 104.256 L 157.097 104.880 157.353 107.940 C 157.830 113.628,158.494 118.598,158.826 118.958 C 159.532 119.724,161.548 118.390,161.678 117.071 C 161.891 114.893,165.700 113.243,167.258 114.653 C 168.138 115.449,170.400 114.732,170.400 113.657 C 170.400 112.685,161.174 103.597,160.206 103.616 C 159.763 103.625,158.882 103.913,158.248 104.256 M235.838 108.378 C 233.242 111.006,231.195 113.391,231.289 113.678 C 231.672 114.853,233.514 115.296,234.816 114.527 C 236.457 113.558,239.716 115.069,239.926 116.896 C 240.223 119.475,242.998 119.964,243.356 117.500 C 244.711 108.159,244.678 104.964,243.220 104.210 C 241.202 103.167,240.713 103.443,235.838 108.378 M163.600 111.432 C 163.600 111.935,162.728 112.400,161.785 112.400 C 161.169 112.400,160.562 109.909,161.004 109.193 C 161.328 108.669,163.600 110.629,163.600 111.432 M240.800 110.191 C 240.800 112.306,239.522 113.151,238.388 111.786 C 237.961 111.272,238.062 110.979,239.000 110.000 C 240.242 108.704,240.800 108.763,240.800 110.191 M253.719 111.317 C 251.923 113.329,246.800 120.751,246.800 121.343 C 246.800 122.104,248.593 123.375,249.167 123.021 C 249.387 122.884,250.321 121.699,251.242 120.386 C 253.764 116.791,254.147 117.083,253.804 122.340 L 253.520 126.679 254.614 127.540 C 256.288 128.856,256.443 128.745,260.348 123.407 C 264.243 118.082,264.565 117.237,263.014 116.407 C 261.813 115.765,261.547 115.953,259.386 118.969 C 256.994 122.307,256.635 122.028,256.966 117.087 C 257.279 112.420,257.139 111.796,255.605 111.003 C 254.596 110.481,254.443 110.506,253.719 111.317 M142.749 113.546 C 134.873 118.541,142.314 130.309,150.313 125.507 C 152.860 123.978,154.769 119.170,153.211 118.207 C 152.544 117.794,150.718 119.299,150.104 120.768 C 148.341 124.987,142.800 123.536,142.800 118.855 C 142.800 117.316,144.753 115.605,146.531 115.587 C 148.701 115.564,150.600 113.269,148.967 112.643 C 147.318 112.010,144.534 112.415,142.749 113.546 M21.446 161.024 C 21.130 161.848,21.460 162.300,21.990 161.770 C 22.197 161.563,22.219 161.155,22.039 160.863 C 21.782 160.446,21.655 160.481,21.446 161.024 M378.677 165.343 C 378.544 165.690,378.619 166.088,378.844 166.227 C 379.467 166.612,379.719 166.142,379.296 165.386 C 378.959 164.784,378.893 164.780,378.677 165.343 M19.800 169.600 C 19.664 169.820,19.676 170.199,19.826 170.443 C 20.095 170.878,20.779 170.211,20.794 169.500 C 20.803 169.062,20.088 169.133,19.800 169.600 M379.275 170.425 C 379.371 170.714,379.686 171.029,379.975 171.125 C 380.275 171.225,380.425 171.075,380.325 170.775 C 380.229 170.486,379.914 170.171,379.625 170.075 C 379.325 169.975,379.175 170.125,379.275 170.425 M19.300 174.057 C 18.674 174.686,18.658 175.465,19.262 175.838 C 19.535 176.007,19.616 175.949,19.459 175.696 C 19.314 175.461,19.397 175.201,19.643 175.119 C 19.890 175.037,20.026 174.651,19.946 174.261 C 19.829 173.693,19.701 173.652,19.300 174.057 M67.814 174.901 C 65.366 175.548,62.237 178.898,61.326 181.847 C 60.203 185.487,60.230 213.529,61.360 216.800 C 64.834 226.853,78.457 227.259,81.897 217.413 C 82.524 215.619,82.600 213.617,82.600 198.991 L 82.600 182.583 81.282 179.906 C 78.931 175.131,73.952 173.281,67.814 174.901 M98.214 174.901 C 95.766 175.548,92.637 178.898,91.726 181.847 C 90.603 185.487,90.630 213.529,91.760 216.800 C 95.234 226.853,108.857 227.259,112.297 217.413 C 112.924 215.619,113.000 213.617,113.000 198.991 L 113.000 182.583 111.682 179.906 C 109.331 175.131,104.352 173.281,98.214 174.901 M172.111 175.245 C 166.227 177.507,165.528 180.204,165.688 200.031 C 165.825 217.007,165.944 217.894,168.490 220.983 C 172.908 226.342,183.248 225.254,186.110 219.128 C 188.937 213.078,188.888 184.861,186.041 179.281 C 183.816 174.919,177.624 173.125,172.111 175.245 M248.245 175.177 C 244.807 176.562,242.907 179.195,242.012 183.813 C 241.372 187.113,241.638 214.804,242.329 216.871 C 244.000 221.864,247.340 224.203,252.789 224.195 C 260.375 224.185,263.124 220.437,263.501 209.592 C 263.747 202.505,263.895 202.721,258.940 202.884 L 255.400 203.000 255.150 208.600 C 254.822 215.914,254.021 217.696,251.632 216.417 C 250.358 215.736,250.200 213.831,250.200 199.200 C 250.200 184.461,250.286 183.555,251.780 182.577 C 254.104 181.054,254.840 182.588,255.103 189.500 L 255.304 194.800 259.234 194.800 L 263.164 194.800 263.434 193.360 C 264.240 189.064,262.833 180.870,260.809 178.076 C 258.402 174.754,252.611 173.417,248.245 175.177 M320.715 174.877 C 318.611 175.437,315.872 177.997,314.859 180.352 C 312.501 185.832,312.469 213.022,314.814 218.324 C 318.314 226.242,329.700 226.667,333.600 219.026 L 335.000 216.283 335.000 209.642 L 335.000 203.000 331.460 202.884 C 326.737 202.729,326.901 202.504,326.737 209.377 C 326.592 215.434,326.162 216.800,324.400 216.800 C 322.290 216.800,322.209 216.234,322.081 200.570 C 321.953 184.791,322.116 183.095,323.837 182.310 C 325.933 181.355,326.571 182.819,326.800 189.111 L 327.000 194.600 331.000 194.600 L 335.000 194.600 335.127 190.000 C 335.462 177.915,330.171 172.363,320.715 174.877 M380.210 175.182 C 380.005 175.818,380.054 176.218,380.349 176.316 C 380.600 176.400,380.687 176.678,380.544 176.934 C 380.345 177.288,380.404 177.288,380.786 176.935 C 381.149 176.600,381.183 176.153,380.908 175.335 L 380.525 174.200 380.210 175.182 M36.480 175.280 C 35.787 175.973,35.787 222.827,36.480 223.520 C 37.172 224.212,43.763 224.168,44.344 223.467 C 44.636 223.115,44.823 219.345,44.893 212.367 L 45.000 201.800 48.579 201.683 C 53.031 201.538,53.200 201.403,53.200 197.984 C 53.200 193.942,53.256 194.000,49.390 194.000 C 44.497 194.000,44.800 194.383,44.800 188.200 C 44.800 181.977,44.433 182.400,49.833 182.400 L 53.600 182.400 53.600 178.843 C 53.600 175.968,53.479 175.239,52.967 175.043 C 51.712 174.561,36.987 174.773,36.480 175.280 M122.500 175.245 C 121.692 176.078,121.780 222.919,122.591 223.592 C 123.549 224.387,135.743 223.959,137.800 223.058 C 143.362 220.623,144.002 218.127,143.995 198.880 C 143.989 180.673,143.486 178.532,138.618 176.027 C 136.260 174.814,123.518 174.195,122.500 175.245 M196.880 175.280 C 196.187 175.973,196.187 222.827,196.880 223.520 C 197.379 224.019,202.614 224.200,203.767 223.757 C 204.323 223.544,204.400 222.159,204.400 212.324 C 204.400 203.551,204.508 201.169,204.900 201.297 C 205.341 201.441,207.305 206.646,211.630 219.133 C 213.220 223.724,213.480 224.000,216.196 224.000 C 219.958 224.000,219.600 226.562,219.600 199.637 C 219.600 172.502,219.956 174.800,215.749 174.800 C 211.246 174.800,211.446 174.224,211.696 186.491 C 211.890 196.024,211.732 198.308,211.003 196.498 C 210.526 195.313,206.820 184.829,205.314 180.400 C 203.453 174.931,203.330 174.800,200.018 174.800 C 198.484 174.800,197.157 175.003,196.880 175.280 M272.100 175.065 C 271.252 175.407,271.383 223.431,272.233 223.757 C 273.190 224.124,288.124 224.036,288.717 223.660 C 289.090 223.423,289.202 222.388,289.117 219.966 L 289.000 216.600 285.022 216.485 C 279.455 216.323,280.000 218.613,280.000 195.394 C 280.000 177.427,279.933 175.260,279.367 175.043 C 278.619 174.756,272.822 174.773,272.100 175.065 M296.229 175.429 C 295.461 176.196,295.256 221.810,296.014 223.226 C 296.511 224.154,303.043 224.397,303.920 223.520 C 304.613 222.827,304.613 175.973,303.920 175.280 C 303.165 174.525,297.013 174.644,296.229 175.429 M343.680 175.280 C 342.987 175.973,342.987 222.827,343.680 223.520 C 343.979 223.819,345.458 224.000,347.600 224.000 C 352.232 224.000,352.000 224.457,352.000 215.320 C 352.000 205.075,351.967 205.058,356.204 217.400 C 357.261 220.480,358.300 223.225,358.512 223.500 C 359.075 224.230,366.749 224.198,367.031 223.464 C 367.205 223.009,365.500 217.939,359.761 201.847 L 358.779 199.094 362.646 187.584 C 367.168 174.130,367.176 174.800,362.489 174.800 C 357.860 174.800,358.074 174.551,355.187 183.300 C 353.825 187.425,352.551 190.800,352.356 190.800 C 352.160 190.800,352.000 187.416,352.000 183.280 C 352.000 177.964,351.859 175.619,351.520 175.280 C 350.872 174.632,344.328 174.632,343.680 175.280 M18.243 180.971 C 18.061 181.695,18.132 182.278,18.437 182.558 C 18.790 182.883,18.848 182.877,18.656 182.534 C 18.513 182.278,18.618 181.994,18.890 181.903 C 19.260 181.780,19.277 181.499,18.957 180.782 L 18.530 179.826 18.243 180.971 M381.070 181.362 C 380.664 182.419,380.745 183.600,381.224 183.600 C 381.457 183.600,381.519 183.808,381.362 184.062 C 381.185 184.348,381.252 184.415,381.538 184.238 C 382.053 183.920,382.102 182.603,381.642 181.429 C 381.362 180.714,381.320 180.709,381.070 181.362 M73.164 182.764 C 74.295 183.895,74.485 186.960,74.319 201.400 C 74.160 215.146,74.015 216.180,72.178 216.641 C 69.445 217.327,69.400 217.047,69.400 199.354 L 69.400 183.530 70.344 182.765 C 71.535 181.800,72.200 181.800,73.164 182.764 M103.564 182.764 C 104.695 183.895,104.885 186.960,104.719 201.400 C 104.560 215.146,104.415 216.180,102.578 216.641 C 99.845 217.327,99.800 217.047,99.800 199.354 L 99.800 183.530 100.744 182.765 C 101.935 181.800,102.600 181.800,103.564 182.764 M134.560 183.329 C 135.365 184.411,135.406 184.992,135.535 197.329 C 135.725 215.385,135.449 217.031,132.276 216.724 L 131.000 216.600 130.896 199.800 C 130.838 190.560,130.882 182.764,130.993 182.475 C 131.351 181.540,133.637 182.087,134.560 183.329 M178.238 182.842 C 179.503 184.240,179.410 214.768,178.136 216.041 C 177.007 217.171,175.356 216.808,174.705 215.289 C 174.174 214.047,173.989 186.152,174.501 184.328 C 175.141 182.043,176.887 181.349,178.238 182.842 M17.455 191.108 C 17.123 193.121,17.204 196.772,17.610 198.000 C 17.911 198.913,17.940 198.879,17.944 197.600 C 17.946 196.830,18.074 194.830,18.228 193.157 C 18.522 189.947,17.914 188.333,17.455 191.108 M381.871 193.899 C 381.478 194.517,381.600 206.400,382.000 206.400 C 382.391 206.400,382.799 202.783,382.767 199.600 C 382.732 196.144,382.279 193.259,381.871 193.899 M17.450 202.450 C 16.887 205.265,17.276 209.600,18.092 209.600 C 18.342 209.600,18.400 208.521,18.248 206.700 C 18.115 205.105,18.011 203.215,18.016 202.500 C 18.028 200.855,17.774 200.832,17.450 202.450 M381.365 215.900 C 381.520 216.175,381.457 216.400,381.224 216.400 C 380.708 216.400,380.675 217.983,381.174 218.772 C 381.442 219.195,381.610 218.952,381.818 217.842 C 382.010 216.822,381.937 216.190,381.591 215.870 C 381.199 215.507,381.147 215.514,381.365 215.900 M18.173 217.726 C 18.062 218.015,18.132 218.688,18.329 219.220 L 18.687 220.187 18.996 219.211 C 19.195 218.584,19.143 218.181,18.851 218.084 C 18.600 218.000,18.497 217.767,18.621 217.566 C 18.745 217.365,18.741 217.200,18.611 217.200 C 18.481 217.200,18.284 217.437,18.173 217.726 M380.544 223.066 C 380.687 223.322,380.600 223.600,380.349 223.684 C 380.054 223.782,380.005 224.182,380.210 224.818 L 380.525 225.800 380.908 224.665 C 381.183 223.847,381.149 223.400,380.786 223.065 C 380.404 222.712,380.345 222.712,380.544 223.066 M18.967 224.542 C 18.797 224.986,18.942 225.513,19.345 225.917 C 19.952 226.523,20.000 226.513,19.994 225.786 C 19.984 224.487,19.304 223.664,18.967 224.542 M379.384 229.227 C 379.239 229.461,379.216 229.749,379.333 229.867 C 379.620 230.153,380.400 229.648,380.400 229.176 C 380.400 228.665,379.709 228.699,379.384 229.227 M19.628 229.513 C 19.747 230.728,20.272 231.333,20.489 230.504 C 20.626 229.977,20.499 229.570,20.156 229.438 C 19.850 229.321,19.613 229.354,19.628 229.513 M20.634 233.945 C 20.481 234.192,20.522 234.688,20.723 235.048 C 20.971 235.492,21.179 235.558,21.366 235.255 C 21.519 235.008,21.478 234.512,21.277 234.152 C 21.029 233.708,20.821 233.642,20.634 233.945 M377.894 237.439 C 377.763 237.571,377.758 237.946,377.883 238.273 C 378.069 238.757,378.174 238.768,378.450 238.334 C 379.039 237.403,378.614 236.719,377.894 237.439 M94.800 247.043 C 94.800 248.305,100.664 259.099,104.446 264.800 C 126.356 297.821,163.213 317.598,202.845 317.601 C 210.352 317.601,212.910 317.402,221.400 316.160 C 258.423 310.742,294.180 284.090,309.809 250.263 C 311.550 246.495,311.545 246.400,309.604 246.400 L 308.007 246.400 306.023 250.353 C 277.262 307.667,207.942 330.532,150.503 301.652 C 129.656 291.170,110.974 272.283,100.196 250.791 L 97.993 246.400 96.397 246.400 C 95.197 246.400,94.800 246.560,94.800 247.043 M82.934 253.027 C 82.611 253.871,87.358 263.361,91.017 269.185 C 106.756 294.234,127.651 311.608,155.800 323.050 C 175.987 331.256,204.818 333.793,227.600 329.369 C 267.640 321.593,302.093 295.543,320.467 259.150 C 323.483 253.177,323.599 252.400,321.475 252.400 C 319.948 252.400,319.169 253.098,318.271 255.275 C 313.570 266.661,299.734 285.067,288.293 295.156 C 224.588 351.331,128.537 333.444,89.056 258.055 C 86.213 252.625,86.193 252.599,84.697 252.476 C 83.578 252.383,83.127 252.524,82.934 253.027 M154.000 279.482 C 153.229 279.764,151.600 281.242,151.600 281.661 C 151.600 282.591,153.610 283.293,154.829 282.788 C 155.874 282.355,156.147 282.375,156.697 282.926 C 158.273 284.502,155.757 286.455,150.745 287.546 C 148.155 288.110,146.792 289.261,147.456 290.323 C 148.241 291.581,155.150 294.940,155.815 294.388 C 156.797 293.573,156.474 292.523,154.968 291.634 C 153.191 290.586,153.333 290.075,155.615 289.314 C 161.298 287.419,162.366 282.496,157.615 280.100 C 155.824 279.197,155.114 279.075,154.000 279.482 M243.708 279.970 C 241.146 281.157,239.762 283.793,240.900 285.317 C 241.564 286.205,243.176 285.443,243.922 283.888 C 244.620 282.433,246.400 282.334,246.400 283.751 C 246.400 284.274,246.130 284.926,245.800 285.200 C 244.364 286.391,245.581 288.243,247.520 287.818 C 248.888 287.517,249.727 288.293,249.531 289.678 C 249.414 290.502,249.209 290.590,247.600 290.502 C 244.341 290.324,243.095 291.630,245.054 293.171 C 246.400 294.230,248.087 294.223,250.304 293.150 C 253.749 291.482,254.159 287.612,251.100 285.635 C 249.803 284.797,249.600 284.462,249.600 283.155 C 249.600 280.040,246.811 278.532,243.708 279.970 M164.623 285.452 C 164.429 286.225,164.584 286.744,165.206 287.407 L 166.054 288.309 164.427 292.626 C 163.532 295.001,162.800 297.175,162.800 297.458 C 162.800 298.556,165.727 299.303,166.101 298.300 C 166.203 298.025,167.227 295.314,168.377 292.276 C 170.750 286.004,170.748 285.930,168.160 285.048 C 165.526 284.151,164.932 284.218,164.623 285.452 M232.317 285.558 C 229.227 286.612,228.403 289.200,231.159 289.200 C 232.633 289.200,232.778 289.417,234.598 294.337 C 236.207 298.687,236.643 299.182,238.226 298.461 C 239.562 297.852,239.495 297.399,237.111 290.908 C 234.768 284.531,234.900 284.678,232.317 285.558 M205.290 291.202 C 203.990 291.994,202.986 293.730,203.421 294.434 C 203.786 295.025,206.257 294.854,206.800 294.200 C 207.446 293.421,209.048 293.427,209.348 294.209 C 209.584 294.824,208.764 295.832,207.373 296.639 C 206.265 297.280,207.168 299.200,208.577 299.200 C 209.151 299.200,209.747 299.527,209.986 299.974 C 211.017 301.900,208.785 303.209,207.259 301.571 C 205.174 299.333,202.708 301.390,204.745 303.668 C 208.605 307.985,216.024 303.041,212.616 298.422 C 211.726 297.215,211.688 297.010,212.216 296.255 C 214.825 292.531,209.492 288.640,205.290 291.202 M190.885 291.251 C 186.752 292.443,187.126 296.862,191.539 298.971 C 194.086 300.188,194.715 300.938,193.958 301.851 C 193.308 302.634,192.241 302.530,191.400 301.600 C 190.522 300.630,188.090 300.499,187.743 301.403 C 187.396 302.309,188.686 303.993,190.218 304.633 C 196.645 307.318,201.134 300.284,194.855 297.368 C 192.146 296.111,191.471 295.388,192.030 294.345 C 192.546 293.379,193.140 293.404,194.240 294.437 C 195.598 295.714,197.767 295.684,197.918 294.387 C 198.193 292.031,194.260 290.278,190.885 291.251 M174.267 293.867 C 173.885 294.248,173.937 295.914,174.338 296.161 C 174.983 296.560,181.403 297.867,181.900 297.700 C 182.331 297.557,182.661 295.200,182.251 295.200 C 182.169 295.200,180.684 294.843,178.951 294.406 C 175.558 293.551,174.683 293.451,174.267 293.867 M222.003 294.567 C 218.460 295.467,217.905 295.970,218.923 297.362 C 219.452 298.086,219.569 298.087,222.635 297.410 C 227.153 296.411,228.199 295.559,226.720 294.080 C 226.141 293.501,226.236 293.492,222.003 294.567 M65.042 322.732 C 64.929 322.914,65.828 324.039,67.040 325.232 C 68.252 326.424,69.131 327.103,68.994 326.740 C 68.857 326.377,67.948 325.414,66.974 324.600 C 66.000 323.786,65.303 322.958,65.425 322.760 C 65.547 322.562,65.557 322.400,65.447 322.400 C 65.337 322.400,65.155 322.549,65.042 322.732 M332.146 325.398 C 332.019 325.726,331.751 325.893,331.548 325.768 C 331.346 325.643,331.230 325.721,331.290 325.941 C 331.351 326.161,330.494 327.209,329.386 328.270 C 328.278 329.332,327.118 330.560,326.809 331.000 C 326.500 331.440,327.554 330.540,329.152 329.000 C 331.830 326.418,333.159 324.800,332.602 324.800 C 332.477 324.800,332.272 325.069,332.146 325.398 M73.983 332.152 C 74.964 333.168,75.841 334.000,75.932 334.000 C 76.088 334.000,75.894 333.733,74.400 331.883 C 74.070 331.474,73.440 330.952,73.000 330.722 C 72.560 330.492,73.002 331.136,73.983 332.152 M157.675 377.225 C 157.771 377.514,158.086 377.829,158.375 377.925 C 158.675 378.025,158.825 377.875,158.725 377.575 C 158.629 377.286,158.314 376.971,158.025 376.875 C 157.725 376.775,157.575 376.925,157.675 377.225 M241.373 377.244 C 240.988 377.867,241.458 378.119,242.214 377.696 C 242.816 377.359,242.820 377.293,242.257 377.077 C 241.910 376.944,241.512 377.019,241.373 377.244 M237.384 378.027 C 237.239 378.261,237.216 378.549,237.333 378.667 C 237.620 378.953,238.400 378.448,238.400 377.976 C 238.400 377.465,237.709 377.499,237.384 378.027 M165.692 378.875 C 165.891 379.473,166.800 379.802,166.800 379.276 C 166.800 379.061,166.515 378.776,166.167 378.643 C 165.777 378.493,165.594 378.582,165.692 378.875 M233.373 378.844 C 232.988 379.467,233.458 379.719,234.214 379.296 C 234.816 378.959,234.820 378.893,234.257 378.677 C 233.910 378.544,233.512 378.619,233.373 378.844 M228.800 379.763 C 228.800 380.136,229.081 380.252,229.634 380.107 C 230.268 379.941,230.340 379.808,229.934 379.551 C 229.156 379.058,228.800 379.125,228.800 379.763 M174.400 380.416 C 174.400 380.930,176.495 381.265,176.938 380.822 C 177.387 380.373,177.272 380.322,175.500 380.197 C 174.895 380.154,174.400 380.253,174.400 380.416 M223.384 380.427 C 223.239 380.661,223.202 380.935,223.303 381.036 C 223.582 381.315,224.800 380.763,224.800 380.357 C 224.800 379.856,223.703 379.910,223.384 380.427 M181.822 381.165 C 181.452 381.764,184.804 382.163,185.338 381.583 C 185.688 381.204,185.686 381.147,185.328 381.348 C 185.068 381.494,184.742 381.430,184.604 381.207 C 184.292 380.701,182.128 380.669,181.822 381.165 M215.027 381.159 C 214.477 381.374,214.394 381.549,214.741 381.764 C 215.392 382.166,218.466 381.630,218.178 381.165 C 217.912 380.733,216.122 380.730,215.027 381.159 M195.453 381.914 C 194.960 382.713,201.558 383.122,203.996 382.443 C 205.471 382.033,204.466 381.651,202.399 381.837 C 199.878 382.063,199.227 382.055,197.347 381.773 C 196.419 381.634,195.588 381.696,195.453 381.914 " stroke="none" fill="#f6f6df" fill-rule="evenodd"></path><path id="path1" d="M198.400 18.080 C 198.400 18.244,194.881 18.279,190.579 18.157 C 184.445 17.984,182.622 18.050,182.124 18.463 C 181.704 18.812,180.633 18.945,178.947 18.858 C 176.924 18.754,176.354 18.856,176.163 19.353 C 175.966 19.867,175.487 19.934,173.512 19.728 C 171.512 19.519,171.038 19.589,170.731 20.138 C 170.265 20.969,169.432 21.014,169.748 20.191 C 169.937 19.699,169.834 19.661,169.217 19.991 C 168.797 20.216,167.826 20.400,167.060 20.400 C 166.294 20.400,165.593 20.620,165.503 20.890 C 165.401 21.197,164.733 21.336,163.711 21.262 C 162.815 21.198,161.962 21.337,161.817 21.572 C 161.672 21.808,160.843 22.000,159.976 22.000 C 159.109 22.000,158.400 22.180,158.400 22.400 C 158.400 22.620,157.691 22.800,156.824 22.800 C 155.957 22.800,155.153 22.952,155.038 23.139 C 154.923 23.325,154.265 23.493,153.577 23.513 C 152.877 23.533,152.077 23.868,151.762 24.274 C 151.227 24.963,151.211 24.959,151.458 24.200 C 151.671 23.543,151.621 23.490,151.179 23.900 C 150.882 24.175,150.316 24.400,149.920 24.400 C 149.524 24.400,149.200 24.580,149.200 24.800 C 149.200 25.020,149.009 25.200,148.776 25.200 C 148.543 25.200,148.446 25.049,148.560 24.865 C 148.674 24.680,148.144 24.725,147.384 24.963 C 146.623 25.201,146.000 25.532,146.000 25.698 C 146.000 25.864,145.550 26.000,145.000 26.000 C 144.450 26.000,144.000 26.180,144.000 26.400 C 144.000 26.620,143.525 26.800,142.944 26.800 C 142.363 26.800,141.643 27.115,141.343 27.500 C 140.830 28.159,140.813 28.157,141.057 27.460 C 141.354 26.613,139.935 27.224,138.875 28.400 C 138.401 28.927,138.362 28.914,138.555 28.299 C 138.762 27.643,138.712 27.639,137.788 28.245 C 137.245 28.601,136.800 28.769,136.800 28.619 C 136.800 28.468,136.227 28.753,135.528 29.251 C 134.828 29.750,134.416 29.897,134.612 29.579 C 134.870 29.161,134.668 29.197,133.885 29.709 C 133.288 30.099,132.797 30.279,132.794 30.109 C 132.791 29.939,132.656 29.980,132.494 30.200 C 132.019 30.847,130.255 31.757,130.620 31.168 C 130.957 30.622,130.238 30.955,129.200 31.825 C 128.870 32.101,128.240 32.389,127.800 32.464 C 127.360 32.539,126.894 32.744,126.764 32.920 C 126.634 33.096,126.152 33.268,125.692 33.303 C 125.232 33.338,124.944 33.509,125.051 33.683 C 125.159 33.857,124.885 34.000,124.442 34.000 C 123.410 34.000,121.600 34.820,121.600 35.288 C 121.600 35.485,121.435 35.545,121.232 35.420 C 121.030 35.295,120.621 35.419,120.323 35.696 C 120.025 35.973,119.517 36.259,119.194 36.332 C 118.872 36.405,118.516 36.585,118.404 36.732 C 118.292 36.879,117.930 37.059,117.600 37.130 C 117.270 37.202,116.940 37.427,116.867 37.630 C 116.793 37.834,116.388 38.000,115.967 38.000 C 115.545 38.000,115.200 38.180,115.200 38.400 C 115.200 38.620,114.881 38.800,114.491 38.800 C 114.101 38.800,112.853 39.412,111.717 40.160 C 110.582 40.907,109.551 41.417,109.426 41.293 C 109.302 41.169,109.200 41.277,109.200 41.533 C 109.200 41.790,108.930 42.000,108.600 42.000 C 108.270 42.000,108.000 42.191,108.000 42.424 C 108.000 42.657,107.835 42.745,107.632 42.620 C 107.430 42.495,107.025 42.619,106.732 42.896 C 106.440 43.173,105.705 43.655,105.100 43.968 C 104.495 44.280,104.000 44.685,104.000 44.868 C 104.000 45.050,103.640 45.200,103.200 45.200 C 102.760 45.200,102.400 45.380,102.400 45.600 C 102.400 45.820,102.130 46.000,101.800 46.000 C 101.470 46.000,101.200 46.180,101.200 46.400 C 101.200 46.620,100.990 46.800,100.733 46.800 C 100.138 46.800,95.205 50.100,95.202 50.500 C 95.201 50.665,95.007 50.800,94.771 50.800 C 94.536 50.800,94.092 51.025,93.785 51.300 C 92.392 52.550,91.687 53.086,89.616 54.471 C 86.852 56.320,85.600 57.405,85.600 57.952 C 85.600 58.184,85.300 58.260,84.934 58.119 C 84.507 57.955,84.366 58.021,84.540 58.303 C 84.689 58.545,84.494 58.847,84.106 58.975 C 83.080 59.314,79.609 62.672,79.929 63.017 C 80.078 63.178,79.930 63.224,79.600 63.119 C 78.841 62.878,64.666 76.792,63.978 78.453 C 63.711 79.098,63.411 79.545,63.312 79.446 C 63.053 79.186,59.200 83.520,59.200 84.071 C 59.200 84.325,59.086 84.419,58.947 84.280 C 58.808 84.141,58.149 84.786,57.483 85.713 C 56.817 86.641,56.076 87.532,55.836 87.694 C 55.596 87.856,55.542 87.991,55.716 87.994 C 55.889 87.997,55.651 88.405,55.186 88.900 C 54.722 89.395,54.002 90.250,53.586 90.800 C 49.938 95.628,48.827 97.319,49.056 97.691 C 49.209 97.938,49.138 98.009,48.891 97.856 C 48.652 97.709,48.343 97.951,48.202 98.394 C 48.061 98.837,47.759 99.200,47.530 99.200 C 47.302 99.200,47.222 99.479,47.353 99.821 C 47.484 100.162,47.442 100.350,47.260 100.237 C 47.078 100.125,46.528 100.745,46.039 101.616 C 45.549 102.487,45.278 103.200,45.436 103.200 C 45.593 103.200,45.335 103.536,44.861 103.947 C 44.388 104.358,44.000 104.883,44.000 105.114 C 44.000 105.344,43.865 105.593,43.700 105.667 C 43.535 105.740,43.079 106.430,42.687 107.200 C 41.523 109.486,40.623 110.983,40.249 111.255 C 40.056 111.396,40.039 111.756,40.213 112.055 C 40.386 112.355,40.389 112.474,40.218 112.321 C 40.048 112.168,38.676 114.570,37.170 117.661 C 35.664 120.751,34.273 123.486,34.078 123.740 C 33.254 124.812,33.068 125.329,33.631 124.981 C 33.936 124.792,33.784 125.149,33.293 125.773 C 32.802 126.397,32.400 127.172,32.400 127.496 C 32.400 127.819,31.949 128.981,31.399 130.078 C 30.848 131.174,30.491 132.223,30.605 132.408 C 30.719 132.593,30.631 132.857,30.409 132.995 C 29.734 133.412,29.006 134.961,29.660 134.590 C 30.095 134.342,30.103 134.387,29.700 134.821 C 29.425 135.118,29.200 135.697,29.200 136.109 C 29.200 136.520,28.920 137.137,28.577 137.480 C 28.234 137.823,28.044 138.338,28.155 138.626 C 28.265 138.913,28.190 139.205,27.989 139.274 C 27.788 139.343,27.573 139.850,27.512 140.400 C 27.450 140.950,27.269 141.498,27.110 141.617 C 26.950 141.737,26.770 142.277,26.710 142.817 C 26.649 143.358,26.469 143.898,26.310 144.017 C 26.150 144.137,25.970 144.677,25.910 145.217 C 25.849 145.758,25.679 146.292,25.530 146.405 C 25.382 146.518,25.202 147.148,25.130 147.805 C 25.059 148.462,24.866 149.100,24.702 149.222 C 24.538 149.345,24.366 149.975,24.319 150.622 C 24.272 151.270,24.094 151.899,23.922 152.020 C 23.751 152.141,23.542 152.771,23.458 153.420 C 23.308 154.582,23.097 155.297,22.364 157.125 C 22.082 157.832,22.113 157.979,22.497 157.749 C 22.864 157.528,22.856 157.624,22.468 158.103 C 22.171 158.470,21.992 159.418,22.063 160.248 C 22.143 161.176,22.005 161.798,21.696 161.901 C 21.423 161.992,21.200 162.424,21.200 162.860 C 21.200 163.296,21.002 164.022,20.760 164.475 C 20.481 164.996,20.471 165.203,20.732 165.042 C 20.959 164.902,21.246 164.951,21.370 165.152 C 21.494 165.352,21.347 165.612,21.043 165.728 C 20.440 165.960,19.971 169.124,20.513 169.304 C 20.696 169.365,20.727 169.726,20.581 170.105 C 20.435 170.485,20.155 170.696,19.958 170.574 C 19.761 170.452,19.600 170.915,19.600 171.603 C 19.600 172.290,19.391 173.246,19.135 173.726 C 18.714 174.516,18.733 174.547,19.335 174.051 C 19.917 173.571,20.000 173.603,20.000 174.308 C 20.000 174.752,19.707 175.227,19.349 175.364 C 18.801 175.575,18.727 176.115,18.882 178.790 C 19.027 181.302,18.946 182.012,18.493 182.186 C 18.023 182.366,17.939 183.509,18.025 188.503 C 18.160 196.262,18.017 199.386,17.589 198.000 C 17.382 197.331,17.280 197.993,17.280 200.000 C 17.280 202.117,17.377 202.706,17.610 202.000 C 17.914 201.078,17.942 201.109,17.973 202.400 C 17.991 203.170,18.115 205.105,18.248 206.700 C 18.381 208.295,18.335 209.600,18.145 209.599 C 17.571 209.598,17.975 217.616,18.560 217.840 C 18.932 217.983,19.016 218.889,18.878 221.274 C 18.753 223.444,18.827 224.431,19.103 224.260 C 19.536 223.992,20.000 224.832,20.000 225.882 C 20.000 226.410,19.905 226.419,19.335 225.949 C 18.733 225.453,18.714 225.484,19.135 226.274 C 19.391 226.754,19.600 227.615,19.600 228.186 C 19.600 228.758,19.825 229.311,20.100 229.416 C 20.442 229.547,20.556 230.316,20.460 231.852 C 20.363 233.411,20.455 234.013,20.760 233.825 C 21.265 233.512,21.343 233.931,21.218 236.300 C 21.168 237.235,21.295 238.000,21.499 238.000 C 21.703 238.000,21.895 238.656,21.925 239.457 C 21.955 240.259,22.282 241.249,22.652 241.657 C 23.022 242.066,23.141 242.400,22.917 242.400 C 22.321 242.400,22.820 244.509,23.564 245.133 C 24.140 245.615,24.135 245.645,23.517 245.452 C 22.798 245.227,23.149 246.570,24.178 247.977 C 24.506 248.425,24.475 248.478,24.038 248.215 C 23.686 248.003,23.570 248.027,23.726 248.281 C 24.216 249.073,24.910 251.015,25.030 251.930 C 25.097 252.441,25.388 253.151,25.676 253.507 C 26.118 254.053,26.109 254.099,25.616 253.801 C 25.237 253.573,25.342 253.975,25.917 254.948 C 26.403 255.773,26.583 256.313,26.317 256.148 C 26.050 255.984,26.230 256.524,26.717 257.348 C 27.203 258.173,27.383 258.713,27.117 258.548 C 26.850 258.384,27.030 258.924,27.517 259.748 C 28.003 260.573,28.217 261.134,27.991 260.994 C 27.765 260.855,27.945 261.389,28.390 262.182 C 28.836 262.975,29.200 263.966,29.200 264.384 C 29.200 264.801,29.461 265.404,29.781 265.724 C 30.100 266.043,30.250 266.416,30.114 266.552 C 29.978 266.689,30.077 266.800,30.333 266.800 C 30.590 266.800,30.800 267.214,30.800 267.720 C 30.800 268.226,31.025 268.882,31.300 269.179 C 31.704 269.614,31.693 269.656,31.238 269.397 C 30.628 269.049,30.888 269.677,31.819 270.800 C 32.093 271.130,32.618 272.300,32.987 273.400 C 33.356 274.500,33.960 275.746,34.329 276.169 C 34.757 276.660,34.797 276.818,34.438 276.607 C 33.734 276.193,34.160 277.001,35.329 278.300 C 35.775 278.795,35.990 279.200,35.808 279.200 C 35.625 279.200,35.802 279.560,36.200 280.000 C 36.598 280.440,36.815 280.800,36.683 280.800 C 36.550 280.800,36.630 281.340,36.860 282.000 C 37.095 282.676,37.462 283.085,37.701 282.938 C 37.936 282.792,38.007 282.865,37.861 283.102 C 37.487 283.706,38.000 284.847,38.504 284.536 C 38.736 284.392,38.806 284.466,38.661 284.702 C 38.287 285.306,38.800 286.447,39.304 286.136 C 39.544 285.987,39.605 286.068,39.447 286.323 C 39.172 286.769,40.792 289.701,41.584 290.190 C 41.813 290.331,42.000 290.807,42.000 291.247 C 42.000 291.750,42.172 291.941,42.462 291.762 C 42.743 291.588,42.815 291.652,42.646 291.925 C 42.309 292.470,44.981 296.473,45.418 296.079 C 45.588 295.925,45.621 296.098,45.491 296.462 C 45.352 296.849,45.571 297.412,46.017 297.815 C 46.436 298.195,46.896 298.887,47.039 299.353 C 47.181 299.819,47.864 300.920,48.556 301.800 C 49.249 302.680,50.064 303.889,50.368 304.486 C 50.672 305.084,51.101 305.461,51.322 305.325 C 51.543 305.188,51.605 305.269,51.459 305.504 C 51.314 305.739,52.366 307.484,53.798 309.382 C 55.229 311.280,56.400 312.704,56.400 312.548 C 56.400 312.391,56.957 313.104,57.638 314.131 C 58.318 315.159,59.139 316.000,59.461 316.000 C 59.784 316.000,59.951 316.156,59.832 316.348 C 59.633 316.670,62.980 320.847,64.233 321.840 C 64.538 322.081,64.655 322.425,64.494 322.603 C 64.332 322.782,64.513 322.815,64.895 322.678 C 65.278 322.541,65.548 322.590,65.495 322.786 C 65.443 322.983,66.161 323.922,67.092 324.872 C 70.188 328.035,72.780 330.589,73.920 331.600 C 74.540 332.150,75.454 333.185,75.950 333.899 C 76.447 334.614,77.291 335.308,77.827 335.442 C 78.362 335.577,78.800 335.856,78.800 336.063 C 78.800 336.551,80.798 338.310,81.700 338.616 C 82.085 338.747,82.400 339.142,82.400 339.494 C 82.400 339.845,82.504 340.030,82.630 339.903 C 82.757 339.776,83.481 340.276,84.240 341.013 C 84.999 341.749,85.978 342.466,86.416 342.605 C 86.859 342.746,87.092 343.052,86.940 343.297 C 86.766 343.579,86.907 343.645,87.334 343.481 C 87.700 343.340,88.000 343.408,88.000 343.632 C 88.000 344.211,89.940 345.882,91.700 346.818 C 92.525 347.257,93.200 347.803,93.200 348.032 C 93.200 348.260,93.348 348.356,93.529 348.244 C 93.709 348.132,94.147 348.347,94.501 348.720 C 95.452 349.725,96.400 350.464,96.400 350.200 C 96.400 349.965,97.032 350.432,98.429 351.700 C 98.853 352.085,99.284 352.355,99.387 352.300 C 99.490 352.245,99.940 352.513,100.387 352.896 C 100.834 353.279,101.200 353.497,101.200 353.381 C 101.200 353.264,101.587 353.530,102.061 353.971 C 102.534 354.412,103.055 354.690,103.219 354.588 C 103.382 354.487,103.619 354.674,103.746 355.002 C 103.872 355.331,104.251 355.600,104.587 355.600 C 104.924 355.600,105.200 355.768,105.200 355.973 C 105.200 356.343,106.267 356.819,106.964 356.759 C 107.164 356.742,107.488 357.014,107.684 357.364 C 107.880 357.714,108.391 358.000,108.820 358.000 C 109.249 358.000,109.600 358.180,109.600 358.400 C 109.600 358.620,109.870 358.800,110.200 358.800 C 110.530 358.800,110.800 358.968,110.800 359.173 C 110.800 359.488,112.061 360.114,112.829 360.180 C 112.954 360.191,113.382 360.525,113.780 360.923 C 114.178 361.321,114.759 361.548,115.072 361.428 C 115.385 361.307,115.543 361.368,115.423 361.563 C 115.142 362.017,116.338 362.485,116.898 362.139 C 117.134 361.994,117.208 362.064,117.064 362.296 C 116.753 362.800,117.894 363.313,118.498 362.939 C 118.734 362.794,118.808 362.864,118.664 363.096 C 118.353 363.600,119.494 364.113,120.098 363.739 C 120.334 363.594,120.408 363.664,120.264 363.896 C 119.953 364.400,121.094 364.913,121.698 364.539 C 121.932 364.395,122.011 364.458,121.874 364.680 C 121.737 364.902,122.081 365.291,122.638 365.545 C 123.434 365.907,123.585 365.900,123.345 365.510 C 123.176 365.238,123.549 365.416,124.173 365.907 C 124.797 366.398,125.644 366.800,126.054 366.800 C 126.464 366.800,126.800 366.942,126.800 367.115 C 126.800 367.288,127.180 367.458,127.645 367.493 C 128.109 367.528,128.784 367.809,129.145 368.118 C 130.284 369.093,130.963 369.392,130.603 368.762 C 130.344 368.307,130.386 368.296,130.821 368.700 C 131.118 368.975,131.774 369.200,132.280 369.200 C 132.786 369.200,133.200 369.380,133.200 369.600 C 133.200 369.820,133.650 370.000,134.200 370.000 C 134.750 370.000,135.200 370.180,135.200 370.400 C 135.200 370.620,135.560 370.800,136.000 370.800 C 136.440 370.800,136.800 370.980,136.800 371.200 C 136.800 371.420,137.250 371.600,137.800 371.600 C 138.350 371.600,138.803 371.825,138.806 372.100 C 138.810 372.433,138.942 372.400,139.200 372.000 C 139.458 371.600,139.590 371.567,139.594 371.900 C 139.597 372.175,139.960 372.400,140.400 372.400 C 140.840 372.400,141.203 372.625,141.206 372.900 C 141.210 373.233,141.342 373.200,141.600 372.800 C 141.858 372.400,141.990 372.367,141.994 372.700 C 141.997 372.975,142.360 373.200,142.800 373.200 C 143.240 373.200,143.603 373.425,143.606 373.700 C 143.610 374.033,143.742 374.000,144.000 373.600 C 144.258 373.200,144.390 373.167,144.394 373.500 C 144.397 373.775,144.760 374.000,145.200 374.000 C 145.640 374.000,146.003 374.225,146.006 374.500 C 146.010 374.833,146.142 374.800,146.400 374.400 C 146.658 374.000,146.790 373.967,146.794 374.300 C 146.797 374.575,147.250 374.800,147.800 374.800 C 148.350 374.800,148.800 374.962,148.800 375.159 C 148.800 375.356,149.445 375.487,150.233 375.450 C 151.021 375.413,151.769 375.550,151.895 375.753 C 152.026 375.966,151.900 375.986,151.600 375.800 C 151.243 375.580,151.173 375.632,151.378 375.965 C 151.544 376.233,151.775 376.358,151.891 376.242 C 152.007 376.127,152.698 376.281,153.427 376.585 C 154.629 377.088,154.732 377.077,154.543 376.469 C 154.358 375.873,154.398 375.877,154.911 376.500 C 155.229 376.885,155.837 377.200,156.264 377.200 C 156.691 377.200,157.267 377.425,157.544 377.700 C 157.948 378.101,157.995 378.061,157.781 377.500 C 157.624 377.087,157.701 376.800,157.970 376.800 C 158.220 376.800,158.529 377.070,158.655 377.400 C 158.782 377.730,159.238 378.000,159.669 378.000 C 160.100 378.000,160.822 378.198,161.275 378.440 C 161.796 378.719,162.003 378.729,161.842 378.468 C 161.702 378.241,161.751 377.954,161.952 377.830 C 162.152 377.706,162.419 377.874,162.546 378.202 C 162.674 378.538,163.272 378.800,163.907 378.800 C 164.530 378.800,165.267 379.025,165.544 379.300 C 165.948 379.701,165.994 379.660,165.779 379.095 C 165.575 378.560,165.666 378.450,166.155 378.638 C 166.510 378.774,166.800 379.065,166.800 379.285 C 166.800 379.508,167.491 379.618,168.366 379.535 C 169.228 379.452,169.855 379.511,169.760 379.665 C 169.665 379.819,169.770 380.058,169.993 380.196 C 170.217 380.334,170.406 380.122,170.413 379.724 C 170.424 379.068,170.472 379.061,170.917 379.645 C 171.392 380.270,174.400 380.904,174.400 380.379 C 174.400 380.236,174.895 380.154,175.500 380.197 C 177.127 380.312,177.269 380.365,177.022 380.764 C 176.898 380.965,177.895 381.190,179.237 381.264 C 180.580 381.339,181.761 381.265,181.863 381.100 C 182.176 380.591,184.102 380.769,184.769 381.369 C 185.463 381.995,194.398 382.351,195.705 381.805 C 196.093 381.643,196.993 381.631,197.705 381.779 C 199.121 382.072,199.707 382.079,202.400 381.835 C 203.390 381.746,204.380 381.802,204.600 381.961 C 204.820 382.119,205.225 382.216,205.500 382.175 C 205.775 382.134,207.991 382.078,210.424 382.050 C 212.879 382.022,214.750 381.842,214.628 381.645 C 214.251 381.036,215.980 380.838,219.503 381.086 C 222.408 381.291,222.951 381.230,223.269 380.663 C 223.638 380.003,224.800 379.728,224.800 380.300 C 224.800 380.465,225.700 380.538,226.800 380.461 C 228.065 380.374,228.800 380.138,228.800 379.820 C 228.800 379.457,229.365 379.372,230.842 379.514 C 232.293 379.653,232.981 379.554,233.217 379.173 C 233.432 378.824,234.169 378.674,235.321 378.745 C 236.633 378.826,237.156 378.691,237.334 378.227 C 237.467 377.882,237.780 377.600,238.030 377.600 C 238.299 377.600,238.376 377.887,238.219 378.300 C 238.005 378.861,238.052 378.901,238.456 378.500 C 238.733 378.225,239.449 378.000,240.047 378.000 C 240.644 378.000,241.202 377.795,241.285 377.545 C 241.368 377.295,242.148 377.041,243.018 376.980 C 245.611 376.798,247.366 376.320,247.932 375.640 C 248.416 375.059,248.446 375.063,248.252 375.683 C 248.027 376.402,249.370 376.051,250.777 375.022 C 251.209 374.705,251.278 374.726,251.051 375.103 C 250.732 375.635,252.560 375.024,253.380 374.324 C 253.589 374.146,254.163 374.000,254.656 374.000 C 255.149 374.000,255.664 373.820,255.800 373.600 C 255.936 373.380,256.476 373.200,257.000 373.200 C 257.524 373.200,258.064 373.020,258.200 372.800 C 258.336 372.580,258.799 372.400,259.229 372.400 C 259.659 372.400,260.368 372.220,260.805 372.000 C 261.242 371.780,261.979 371.407,262.442 371.170 C 262.944 370.915,263.185 370.901,263.039 371.137 C 262.892 371.375,263.265 371.355,263.972 371.088 C 264.620 370.843,265.089 370.544,265.014 370.422 C 264.938 370.300,265.333 370.173,265.891 370.139 C 266.448 370.106,267.019 369.892,267.160 369.665 C 267.300 369.438,267.862 369.169,268.407 369.068 C 270.151 368.745,271.200 368.318,271.200 367.930 C 271.200 367.722,271.368 367.656,271.572 367.783 C 271.777 367.909,272.060 367.827,272.200 367.600 C 272.340 367.373,272.623 367.291,272.828 367.417 C 273.032 367.544,273.200 367.457,273.200 367.224 C 273.200 366.991,273.526 366.800,273.925 366.800 C 274.323 366.800,275.043 366.433,275.525 365.984 C 276.042 365.502,276.400 365.370,276.400 365.661 C 276.400 365.931,276.643 365.821,276.939 365.415 C 277.236 365.010,277.671 364.796,277.905 364.941 C 278.140 365.086,278.395 365.014,278.473 364.781 C 278.551 364.547,278.908 364.313,279.267 364.261 C 279.626 364.208,280.207 363.926,280.560 363.633 C 280.912 363.341,281.200 363.242,281.200 363.413 C 281.200 363.584,281.560 363.398,282.000 363.000 C 282.440 362.602,282.800 362.422,282.800 362.600 C 282.800 362.778,283.130 362.626,283.532 362.261 C 283.935 361.897,284.381 361.714,284.523 361.856 C 284.665 361.998,284.894 361.820,285.032 361.460 C 285.171 361.099,285.424 360.891,285.594 360.997 C 285.765 361.102,286.542 360.757,287.320 360.228 C 288.098 359.700,288.840 359.373,288.967 359.501 C 289.095 359.629,289.200 359.523,289.200 359.267 C 289.200 359.010,289.481 358.800,289.824 358.800 C 290.193 358.800,290.331 358.612,290.162 358.338 C 289.994 358.066,290.051 357.984,290.302 358.139 C 290.865 358.487,292.057 358.016,291.774 357.558 C 291.652 357.361,291.813 357.200,292.131 357.200 C 292.860 357.200,294.850 356.184,294.604 355.937 C 294.503 355.836,295.046 355.527,295.810 355.251 C 296.575 354.974,297.200 354.580,297.200 354.374 C 297.200 354.168,297.476 354.000,297.813 354.000 C 298.149 354.000,298.528 353.731,298.654 353.402 C 298.781 353.074,299.018 352.887,299.181 352.988 C 299.345 353.090,299.838 352.838,300.277 352.429 C 300.716 352.020,301.649 351.388,302.351 351.025 C 303.075 350.651,303.510 350.178,303.357 349.931 C 303.200 349.677,303.316 349.572,303.636 349.679 C 304.203 349.868,304.290 349.816,306.087 348.225 C 306.685 347.695,307.540 347.146,307.987 347.004 C 308.434 346.862,308.800 346.494,308.800 346.186 C 308.800 345.823,309.047 345.714,309.500 345.876 C 309.885 346.014,310.072 345.986,309.916 345.813 C 309.760 345.640,310.660 344.815,311.916 343.979 C 314.508 342.254,317.272 339.805,316.968 339.502 C 316.857 339.390,317.053 339.189,317.404 339.054 C 317.820 338.894,317.943 338.968,317.759 339.266 C 317.585 339.548,317.654 339.614,317.938 339.438 C 318.192 339.281,318.400 338.906,318.400 338.603 C 318.400 338.301,318.715 337.949,319.100 337.821 C 320.029 337.511,323.800 334.046,323.800 333.503 C 323.800 333.268,324.160 333.026,324.600 332.965 C 325.040 332.903,325.760 332.351,326.200 331.737 C 326.640 331.123,327.990 329.647,329.200 328.457 C 330.410 327.267,331.340 326.092,331.267 325.847 C 331.193 325.601,331.266 325.532,331.427 325.694 C 331.589 325.855,331.977 325.675,332.290 325.294 C 332.629 324.880,332.735 324.843,332.553 325.200 C 332.290 325.715,332.341 325.723,332.919 325.255 C 333.289 324.955,333.475 324.522,333.334 324.293 C 333.192 324.064,333.264 323.992,333.494 324.134 C 333.723 324.276,334.413 323.719,335.027 322.896 C 335.640 322.073,336.785 320.668,337.571 319.774 C 338.357 318.879,339.232 317.799,339.515 317.374 C 339.798 316.948,339.905 316.853,339.753 317.162 C 339.573 317.528,339.637 317.624,339.938 317.438 C 340.192 317.281,340.400 316.962,340.400 316.729 C 340.400 316.496,340.944 315.686,341.609 314.929 C 342.274 314.172,342.713 313.383,342.585 313.176 C 342.457 312.969,342.609 312.800,342.922 312.800 C 343.463 312.800,345.270 310.478,345.724 309.200 C 345.882 308.754,345.945 308.740,345.968 309.146 C 345.986 309.446,346.759 308.546,347.687 307.146 C 348.615 305.746,349.505 304.543,349.665 304.474 C 349.824 304.405,349.863 304.108,349.750 303.815 C 349.638 303.521,349.766 303.145,350.035 302.979 C 350.367 302.773,350.430 302.856,350.232 303.238 C 350.072 303.547,350.218 303.440,350.557 303.000 C 350.896 302.560,351.359 301.983,351.586 301.717 C 351.814 301.451,352.000 301.068,352.000 300.866 C 352.000 300.664,352.259 300.283,352.576 300.020 C 352.893 299.757,353.043 299.255,352.908 298.905 C 352.759 298.515,352.827 298.370,353.086 298.529 C 353.319 298.673,353.728 298.256,354.002 297.595 C 354.274 296.938,354.638 296.400,354.809 296.400 C 354.981 296.400,355.321 295.905,355.564 295.300 C 355.808 294.695,356.540 293.480,357.192 292.600 C 357.843 291.720,358.294 290.766,358.193 290.479 C 358.092 290.193,358.187 290.068,358.405 290.203 C 358.622 290.337,358.800 290.099,358.800 289.673 C 358.800 289.247,359.086 288.660,359.436 288.370 C 360.198 287.738,364.539 279.203,364.103 279.194 C 363.937 279.191,363.982 279.056,364.204 278.894 C 364.583 278.618,365.231 277.358,366.568 274.300 C 366.881 273.585,367.598 272.046,368.162 270.881 C 368.725 269.715,368.965 268.891,368.693 269.049 C 368.422 269.208,368.488 268.992,368.839 268.569 C 369.900 267.292,370.205 266.630,369.562 266.997 C 369.107 267.256,369.096 267.214,369.500 266.779 C 369.775 266.482,370.000 265.826,370.000 265.320 C 370.000 264.814,370.191 264.400,370.424 264.400 C 370.657 264.400,370.736 264.220,370.600 264.000 C 370.464 263.780,370.516 263.600,370.716 263.600 C 370.915 263.600,371.362 262.878,371.709 261.995 C 372.056 261.112,372.173 260.493,371.969 260.619 C 371.765 260.745,371.997 260.173,372.483 259.348 C 372.970 258.524,373.132 257.995,372.843 258.174 C 372.504 258.383,372.550 258.143,372.974 257.496 C 373.335 256.944,373.586 256.337,373.531 256.147 C 373.475 255.956,373.651 255.402,373.920 254.916 C 374.190 254.430,374.379 253.890,374.341 253.716 C 374.271 253.400,374.989 251.478,375.489 250.642 C 375.634 250.399,375.404 250.467,374.977 250.793 C 374.238 251.357,374.231 251.347,374.823 250.593 C 375.786 249.366,376.532 247.474,375.903 247.851 C 375.512 248.086,375.514 248.013,375.913 247.521 C 376.195 247.172,376.465 246.328,376.513 245.645 C 376.561 244.961,376.735 244.401,376.900 244.401 C 377.065 244.400,377.200 243.691,377.200 242.824 C 377.200 241.957,377.392 241.128,377.628 240.983 C 377.863 240.838,378.002 239.985,377.938 239.089 C 377.864 238.067,378.003 237.399,378.310 237.297 C 378.580 237.207,378.800 236.776,378.800 236.340 C 378.800 235.904,378.998 235.178,379.240 234.725 C 379.519 234.204,379.529 233.997,379.268 234.158 C 379.041 234.298,378.754 234.249,378.630 234.048 C 378.506 233.848,378.653 233.588,378.957 233.472 C 379.613 233.220,380.003 230.086,379.410 229.829 C 379.185 229.730,379.341 229.375,379.757 229.039 C 380.398 228.522,380.481 228.063,380.297 226.042 C 380.123 224.123,380.202 223.608,380.697 223.418 C 381.209 223.222,381.275 222.628,381.089 219.911 C 380.918 217.423,380.994 216.540,381.407 216.220 C 381.959 215.792,382.484 206.398,381.955 206.399 C 381.603 206.400,381.497 194.490,381.844 193.928 C 382.386 193.052,382.009 184.241,381.411 183.780 C 380.994 183.458,380.918 182.587,381.089 180.089 C 381.275 177.372,381.209 176.778,380.697 176.582 C 380.200 176.391,380.123 175.875,380.301 173.922 C 380.481 171.934,380.402 171.433,379.860 171.130 C 379.030 170.665,378.987 169.833,379.809 170.148 C 380.301 170.337,380.339 170.234,380.009 169.617 C 379.784 169.197,379.600 168.316,379.600 167.660 C 379.600 167.004,379.382 166.394,379.115 166.305 C 378.804 166.201,378.671 165.472,378.745 164.272 C 378.837 162.786,378.730 162.400,378.230 162.400 C 377.884 162.400,377.600 162.201,377.600 161.957 C 377.600 161.714,377.874 161.620,378.209 161.748 C 378.701 161.937,378.739 161.834,378.409 161.217 C 378.184 160.797,378.000 160.081,378.000 159.626 C 378.000 159.172,377.865 158.800,377.700 158.799 C 377.535 158.799,377.352 158.135,377.294 157.324 C 377.236 156.514,376.876 155.482,376.494 155.032 C 375.915 154.349,375.909 154.298,376.458 154.721 C 377.133 155.241,376.595 152.861,375.874 152.141 C 375.723 151.990,375.600 151.357,375.600 150.733 C 375.600 150.110,375.465 149.600,375.300 149.599 C 375.135 149.599,374.960 149.028,374.911 148.330 C 374.862 147.632,374.637 146.877,374.411 146.651 C 374.185 146.425,374.000 145.826,374.000 145.320 C 374.000 144.814,373.820 144.400,373.600 144.400 C 373.380 144.400,373.200 143.871,373.200 143.224 C 373.200 142.577,373.020 141.936,372.800 141.800 C 372.580 141.664,372.400 141.113,372.400 140.576 C 372.400 140.039,372.220 139.600,372.000 139.600 C 371.780 139.600,371.600 139.186,371.600 138.680 C 371.600 138.174,371.375 137.518,371.100 137.221 C 370.777 136.874,370.766 136.775,371.066 136.944 C 371.419 137.142,371.424 136.918,371.088 136.028 C 370.843 135.380,370.471 134.956,370.260 135.087 C 370.045 135.219,370.007 135.113,370.173 134.844 C 370.336 134.581,370.183 133.929,369.834 133.396 C 369.486 132.864,369.200 132.152,369.200 131.814 C 369.200 131.476,369.009 131.200,368.776 131.200 C 368.543 131.200,368.463 131.021,368.599 130.802 C 368.734 130.584,368.384 129.489,367.822 128.369 C 367.260 127.250,366.800 126.103,366.800 125.821 C 366.800 125.539,366.398 124.797,365.907 124.173 C 365.416 123.549,365.264 123.192,365.569 123.381 C 366.271 123.815,365.828 122.985,364.671 121.700 C 364.225 121.205,364.010 120.800,364.192 120.800 C 364.375 120.800,364.198 120.440,363.800 120.000 C 363.402 119.560,363.222 119.200,363.400 119.200 C 363.578 119.200,363.398 118.840,363.000 118.400 C 362.602 117.960,362.422 117.600,362.600 117.600 C 362.778 117.600,362.598 117.240,362.200 116.800 C 361.802 116.360,361.585 116.000,361.717 116.000 C 361.850 116.000,361.770 115.460,361.540 114.800 C 361.305 114.124,360.938 113.715,360.699 113.862 C 360.454 114.014,360.394 113.933,360.556 113.672 C 360.709 113.423,360.107 112.099,359.218 110.730 C 358.328 109.361,357.600 108.022,357.600 107.754 C 357.600 107.486,357.465 107.207,357.300 107.133 C 357.135 107.060,356.659 106.330,356.243 105.511 C 355.827 104.693,355.304 104.136,355.081 104.273 C 354.852 104.415,354.799 104.325,354.959 104.067 C 355.114 103.815,354.782 103.114,354.221 102.509 C 353.659 101.903,353.200 101.251,353.200 101.060 C 353.200 100.597,350.731 96.800,350.430 96.800 C 350.301 96.800,349.956 96.259,349.663 95.598 C 349.370 94.936,348.969 94.496,348.770 94.619 C 348.572 94.741,348.497 94.607,348.605 94.321 C 348.713 94.034,348.216 93.150,347.501 92.355 C 346.785 91.560,345.972 90.570,345.694 90.155 C 345.416 89.740,344.832 88.860,344.396 88.200 C 343.939 87.509,343.596 87.255,343.586 87.600 C 343.576 87.930,343.317 87.660,343.010 87.000 C 342.702 86.340,342.064 85.350,341.591 84.800 C 341.118 84.250,340.864 84.053,341.027 84.362 C 341.229 84.745,341.168 84.828,340.835 84.621 C 340.566 84.455,340.446 84.058,340.568 83.739 C 340.691 83.420,340.658 83.239,340.495 83.337 C 340.188 83.523,339.156 82.590,339.219 82.182 C 339.291 81.717,336.048 78.485,335.764 78.739 C 335.604 78.883,335.601 78.645,335.757 78.212 C 335.914 77.779,335.932 77.535,335.796 77.670 C 335.661 77.805,334.950 77.260,334.217 76.458 C 329.659 71.477,322.151 64.382,321.805 64.728 C 321.669 64.864,321.671 64.680,321.810 64.318 C 322.070 63.641,320.745 62.588,320.253 63.081 C 320.114 63.220,320.000 63.033,320.000 62.667 C 320.000 62.300,319.862 62.000,319.693 62.000 C 319.524 62.000,318.541 61.190,317.508 60.200 C 316.474 59.210,315.342 58.400,314.991 58.400 C 314.640 58.400,314.448 58.246,314.565 58.057 C 314.682 57.868,314.163 57.383,313.413 56.979 C 312.663 56.575,312.139 56.099,312.248 55.922 C 312.358 55.745,312.259 55.600,312.028 55.600 C 311.606 55.600,310.452 54.749,309.251 53.551 C 308.893 53.194,307.970 52.586,307.200 52.200 C 306.430 51.814,305.494 51.206,305.119 50.849 C 304.012 49.794,303.249 49.200,303.000 49.200 C 302.872 49.200,302.380 48.840,301.908 48.400 C 301.436 47.960,300.813 47.600,300.525 47.600 C 300.236 47.600,300.000 47.420,300.000 47.200 C 300.000 46.980,299.730 46.800,299.400 46.800 C 299.070 46.800,298.800 46.590,298.800 46.333 C 298.800 46.077,298.685 45.982,298.544 46.122 C 298.404 46.263,297.760 45.933,297.114 45.389 C 296.467 44.845,295.682 44.400,295.369 44.400 C 295.056 44.400,294.800 44.232,294.800 44.027 C 294.800 43.699,293.339 43.031,292.800 43.113 C 292.690 43.130,292.456 42.886,292.280 42.572 C 292.104 42.257,291.609 42.000,291.180 42.000 C 290.751 42.000,290.400 41.820,290.400 41.600 C 290.400 41.380,290.130 41.200,289.800 41.200 C 289.470 41.200,289.200 41.009,289.200 40.776 C 289.200 40.543,289.040 40.451,288.845 40.572 C 288.650 40.693,288.270 40.525,288.000 40.200 C 287.730 39.875,287.361 39.701,287.179 39.813 C 286.998 39.925,286.703 39.765,286.525 39.456 C 286.059 38.653,278.019 34.707,277.361 34.960 C 277.058 35.076,276.852 35.043,276.905 34.886 C 276.957 34.729,276.820 34.540,276.600 34.466 C 276.380 34.392,275.983 34.152,275.718 33.932 C 275.452 33.711,275.019 33.664,274.756 33.827 C 274.452 34.015,274.381 33.954,274.562 33.662 C 274.742 33.370,274.544 33.200,274.024 33.200 C 273.571 33.200,273.200 33.009,273.200 32.776 C 273.200 32.543,273.032 32.456,272.828 32.583 C 272.623 32.709,272.340 32.627,272.200 32.400 C 272.060 32.173,271.777 32.091,271.572 32.217 C 271.368 32.344,271.200 32.257,271.200 32.024 C 271.200 31.791,270.840 31.600,270.400 31.600 C 269.960 31.600,269.597 31.375,269.594 31.100 C 269.590 30.767,269.458 30.800,269.200 31.200 C 268.942 31.600,268.810 31.633,268.806 31.300 C 268.803 31.025,268.524 30.800,268.186 30.800 C 267.848 30.800,267.102 30.492,266.527 30.116 C 265.953 29.739,265.112 29.375,264.659 29.306 C 264.206 29.236,263.737 29.049,263.617 28.888 C 263.498 28.728,262.860 28.534,262.200 28.458 C 261.540 28.381,260.883 28.131,260.741 27.902 C 260.598 27.673,260.103 27.584,259.641 27.705 C 259.081 27.852,258.800 27.737,258.800 27.363 C 258.800 27.007,258.368 26.800,257.623 26.800 C 256.975 26.800,255.771 26.402,254.947 25.916 C 253.959 25.333,253.563 25.230,253.783 25.616 C 254.054 26.090,254.016 26.106,253.579 25.700 C 253.282 25.425,252.536 25.200,251.920 25.200 C 251.304 25.200,250.800 25.020,250.800 24.800 C 250.800 24.580,250.159 24.400,249.376 24.400 C 248.351 24.400,248.033 24.260,248.241 23.900 C 248.399 23.625,248.387 23.528,248.213 23.684 C 248.040 23.840,247.285 23.712,246.534 23.398 C 245.687 23.044,245.275 22.998,245.447 23.276 C 245.635 23.579,245.543 23.608,245.162 23.365 C 243.717 22.443,242.064 22.097,242.266 22.759 C 242.407 23.223,242.332 23.199,241.995 22.672 C 241.658 22.146,241.125 21.975,240.065 22.053 C 239.248 22.113,238.632 21.984,238.673 21.760 C 238.714 21.540,238.092 21.316,237.293 21.262 C 236.493 21.208,235.570 20.947,235.243 20.682 C 234.801 20.325,234.720 20.323,234.930 20.672 C 235.086 20.932,235.049 21.246,234.848 21.370 C 234.648 21.494,234.372 21.305,234.236 20.950 C 234.035 20.427,233.535 20.338,231.594 20.478 C 229.885 20.602,229.200 20.512,229.200 20.164 C 229.200 19.865,228.429 19.624,227.200 19.539 C 226.100 19.462,225.200 19.535,225.200 19.700 C 225.200 20.255,224.088 20.006,223.855 19.400 C 223.695 18.981,223.041 18.800,221.693 18.800 C 220.630 18.800,219.533 18.575,219.256 18.300 C 218.852 17.899,218.805 17.939,219.019 18.500 C 219.200 18.974,219.092 19.200,218.686 19.200 C 218.356 19.200,217.976 18.915,217.843 18.567 C 217.628 18.008,216.660 17.959,209.600 18.154 C 205.200 18.276,201.600 18.242,201.600 18.078 C 201.600 17.915,200.880 17.782,200.000 17.782 C 199.120 17.782,198.400 17.916,198.400 18.080 M219.400 69.369 C 223.161 69.871,229.573 71.118,236.850 72.763 C 269.743 80.197,303.423 107.704,320.210 140.846 C 323.583 147.506,323.579 147.490,322.171 147.843 C 320.300 148.313,319.413 147.472,317.201 143.133 C 301.234 111.821,274.718 88.907,242.123 78.254 C 189.150 60.941,131.261 80.388,98.203 126.600 C 94.332 132.011,87.200 144.549,87.200 145.943 C 87.200 147.472,83.458 148.738,82.939 147.385 C 82.051 145.070,92.265 127.689,100.676 117.200 C 121.671 91.021,155.808 72.315,188.200 69.240 C 190.840 68.989,193.630 68.714,194.400 68.627 C 197.435 68.286,215.250 68.815,219.400 69.369 M220.800 81.944 C 258.523 87.719,291.017 111.450,308.631 146.091 C 311.362 151.461,311.454 152.000,309.638 152.000 C 308.224 152.000,307.660 151.344,305.687 147.400 C 292.194 120.436,268.524 99.827,239.710 89.955 C 186.525 71.732,127.041 95.668,100.926 145.800 L 97.800 151.800 96.300 151.924 C 94.192 152.099,94.297 151.460,97.383 145.295 C 114.251 111.594,149.383 86.553,186.400 81.845 C 189.150 81.496,191.940 81.134,192.600 81.042 C 196.244 80.535,215.649 81.155,220.800 81.944 M208.612 95.379 C 210.078 95.992,211.066 97.529,210.665 98.574 C 210.310 99.500,207.892 99.385,207.000 98.400 C 206.144 97.455,204.980 97.355,204.655 98.200 C 204.251 99.254,204.823 99.943,206.697 100.658 C 209.624 101.776,210.800 102.985,210.800 104.875 C 210.800 109.525,202.495 110.625,200.799 106.200 C 200.066 104.288,202.414 103.790,204.375 105.441 C 205.650 106.513,206.635 106.496,207.058 105.394 C 207.402 104.496,206.242 103.399,204.345 102.831 C 202.099 102.158,200.800 100.780,200.800 99.072 C 200.800 95.664,204.785 93.780,208.612 95.379 M193.973 96.100 C 194.654 97.822,195.310 107.986,194.781 108.623 C 194.119 109.420,192.505 109.347,192.063 108.500 C 191.610 107.633,190.666 96.140,191.003 95.596 C 191.497 94.795,193.598 95.152,193.973 96.100 M183.517 97.500 C 185.121 101.757,186.511 109.330,185.785 109.860 C 184.546 110.766,183.050 110.506,181.775 109.163 C 179.743 107.023,176.834 104.732,176.450 104.969 C 176.237 105.101,176.412 106.489,176.865 108.259 C 177.712 111.564,177.592 112.017,175.724 112.576 C 174.539 112.931,174.340 112.477,172.653 105.594 C 171.121 99.344,171.142 99.112,173.284 98.587 C 174.238 98.353,174.752 98.687,177.559 101.361 C 181.907 105.503,182.119 105.450,180.844 100.542 C 180.088 97.631,180.137 97.096,181.200 96.692 C 182.465 96.210,183.117 96.437,183.517 97.500 M227.007 98.405 C 228.437 99.288,230.000 101.452,230.000 102.547 C 230.000 103.683,227.799 103.350,226.237 101.979 C 223.520 99.593,220.514 100.273,219.631 103.472 C 218.766 106.607,221.241 109.021,224.321 108.046 C 227.893 106.915,229.609 109.089,226.415 110.700 C 220.230 113.819,213.639 107.394,216.757 101.284 C 218.718 97.442,223.346 96.142,227.007 98.405 M165.706 108.306 C 168.288 110.894,170.400 113.302,170.400 113.657 C 170.400 114.732,168.138 115.449,167.258 114.653 C 165.700 113.243,161.891 114.893,161.678 117.071 C 161.548 118.390,159.532 119.724,158.826 118.958 C 158.494 118.598,157.830 113.628,157.353 107.940 L 157.097 104.880 158.248 104.256 C 160.325 103.131,160.804 103.391,165.706 108.306 M243.220 104.210 C 244.678 104.964,244.711 108.159,243.356 117.500 C 242.998 119.964,240.223 119.475,239.926 116.896 C 239.716 115.069,236.457 113.558,234.816 114.527 C 233.514 115.296,231.672 114.853,231.289 113.678 C 231.058 112.969,240.362 103.600,241.299 103.600 C 241.706 103.600,242.571 103.875,243.220 104.210 M161.004 109.193 C 160.562 109.909,161.169 112.400,161.785 112.400 C 162.728 112.400,163.600 111.935,163.600 111.432 C 163.600 110.629,161.328 108.669,161.004 109.193 M239.000 110.000 C 238.062 110.979,237.961 111.272,238.388 111.786 C 239.522 113.151,240.800 112.306,240.800 110.191 C 240.800 108.763,240.242 108.704,239.000 110.000 M256.972 112.272 C 257.121 112.659,257.118 114.825,256.966 117.087 C 256.635 122.028,256.994 122.307,259.386 118.969 C 261.547 115.953,261.813 115.765,263.014 116.407 C 264.565 117.237,264.243 118.082,260.348 123.407 C 256.443 128.745,256.288 128.856,254.614 127.540 L 253.520 126.679 253.804 122.340 C 254.147 117.083,253.764 116.791,251.242 120.386 C 249.189 123.313,249.010 123.429,247.782 122.625 C 246.323 121.669,246.515 121.100,249.865 116.452 C 254.318 110.276,254.276 110.315,255.605 111.003 C 256.209 111.315,256.824 111.886,256.972 112.272 M148.967 112.643 C 150.600 113.269,148.701 115.564,146.531 115.587 C 144.753 115.605,142.800 117.316,142.800 118.855 C 142.800 123.536,148.341 124.987,150.104 120.768 C 151.355 117.774,153.600 117.365,153.600 120.131 C 153.600 127.840,141.641 128.781,139.609 121.232 C 138.199 115.998,143.952 110.718,148.967 112.643 M75.976 174.992 C 78.677 175.944,79.881 177.059,81.282 179.906 L 82.600 182.583 82.600 198.991 C 82.600 213.617,82.524 215.619,81.897 217.413 C 78.457 227.259,64.834 226.853,61.360 216.800 C 60.230 213.529,60.203 185.487,61.326 181.847 C 63.135 175.990,69.872 172.838,75.976 174.992 M106.376 174.992 C 109.077 175.944,110.281 177.059,111.682 179.906 L 113.000 182.583 113.000 198.991 C 113.000 213.617,112.924 215.619,112.297 217.413 C 108.857 227.259,95.234 226.853,91.760 216.800 C 90.630 213.529,90.603 185.487,91.726 181.847 C 93.535 175.990,100.272 172.838,106.376 174.992 M180.575 174.835 C 186.747 176.389,187.983 180.411,187.993 198.967 C 188.004 218.593,186.789 222.371,179.939 224.015 C 173.798 225.488,168.512 222.903,166.558 217.471 C 165.358 214.136,165.204 185.846,166.366 182.022 C 168.216 175.930,173.769 173.122,180.575 174.835 M257.905 175.545 C 261.964 177.632,264.719 186.509,263.434 193.360 L 263.164 194.800 259.234 194.800 L 255.304 194.800 255.103 189.500 C 254.840 182.588,254.104 181.054,251.780 182.577 C 250.286 183.555,250.200 184.461,250.200 199.200 C 250.200 213.831,250.358 215.736,251.632 216.417 C 254.021 217.696,254.822 215.914,255.150 208.600 L 255.400 203.000 258.940 202.884 C 263.895 202.721,263.747 202.505,263.501 209.592 C 263.124 220.437,260.375 224.185,252.789 224.195 C 247.340 224.203,244.000 221.864,242.329 216.871 C 241.638 214.804,241.372 187.113,242.012 183.813 C 243.554 175.856,250.990 171.988,257.905 175.545 M328.448 175.017 C 333.310 176.732,335.367 181.347,335.127 190.000 L 335.000 194.600 331.000 194.600 L 327.000 194.600 326.800 189.111 C 326.571 182.819,325.933 181.355,323.837 182.310 C 322.116 183.095,321.953 184.791,322.081 200.570 C 322.209 216.234,322.290 216.800,324.400 216.800 C 326.162 216.800,326.592 215.434,326.737 209.377 C 326.901 202.504,326.737 202.729,331.460 202.884 L 335.000 203.000 335.000 209.642 L 335.000 216.283 333.600 219.026 C 329.700 226.667,318.314 226.242,314.814 218.324 C 312.469 213.022,312.501 185.832,314.859 180.352 C 316.956 175.476,323.012 173.099,328.448 175.017 M52.967 175.043 C 53.479 175.239,53.600 175.968,53.600 178.843 L 53.600 182.400 49.833 182.400 C 44.433 182.400,44.800 181.977,44.800 188.200 C 44.800 194.383,44.497 194.000,49.390 194.000 C 53.256 194.000,53.200 193.942,53.200 197.984 C 53.200 201.403,53.031 201.538,48.579 201.683 L 45.000 201.800 44.893 212.367 C 44.823 219.345,44.636 223.115,44.344 223.467 C 43.763 224.168,37.172 224.212,36.480 223.520 C 35.787 222.827,35.787 175.973,36.480 175.280 C 36.987 174.773,51.712 174.561,52.967 175.043 M138.618 176.027 C 143.486 178.532,143.989 180.673,143.995 198.880 C 144.002 218.127,143.362 220.623,137.800 223.058 C 135.743 223.959,123.549 224.387,122.591 223.592 C 121.780 222.919,121.692 176.078,122.500 175.245 C 123.518 174.195,136.260 174.814,138.618 176.027 M203.281 175.500 C 203.613 175.885,204.528 178.090,205.314 180.400 C 206.820 184.829,210.526 195.313,211.003 196.498 C 211.732 198.308,211.890 196.024,211.696 186.491 C 211.446 174.224,211.246 174.800,215.749 174.800 C 219.956 174.800,219.600 172.502,219.600 199.637 C 219.600 226.562,219.958 224.000,216.196 224.000 C 213.480 224.000,213.220 223.724,211.630 219.133 C 207.305 206.646,205.341 201.441,204.900 201.297 C 204.508 201.169,204.400 203.551,204.400 212.324 C 204.400 222.159,204.323 223.544,203.767 223.757 C 202.614 224.200,197.379 224.019,196.880 223.520 C 196.187 222.827,196.187 175.973,196.880 175.280 C 197.669 174.491,202.554 174.658,203.281 175.500 M279.367 175.043 C 279.933 175.260,280.000 177.427,280.000 195.394 C 280.000 218.613,279.455 216.323,285.022 216.485 L 289.000 216.600 289.117 219.966 C 289.202 222.388,289.090 223.423,288.717 223.660 C 288.124 224.036,273.190 224.124,272.233 223.757 C 271.383 223.431,271.252 175.407,272.100 175.065 C 272.822 174.773,278.619 174.756,279.367 175.043 M303.920 175.280 C 304.613 175.973,304.613 222.827,303.920 223.520 C 303.043 224.397,296.511 224.154,296.014 223.226 C 295.256 221.810,295.461 176.196,296.229 175.429 C 297.013 174.644,303.165 174.525,303.920 175.280 M351.520 175.280 C 351.859 175.619,352.000 177.964,352.000 183.280 C 352.000 187.416,352.160 190.800,352.356 190.800 C 352.551 190.800,353.825 187.425,355.187 183.300 C 358.074 174.551,357.860 174.800,362.489 174.800 C 367.176 174.800,367.168 174.130,362.646 187.584 L 358.779 199.094 359.761 201.847 C 365.500 217.939,367.205 223.009,367.031 223.464 C 366.749 224.198,359.075 224.230,358.512 223.500 C 358.300 223.225,357.261 220.480,356.204 217.400 C 351.967 205.058,352.000 205.075,352.000 215.320 C 352.000 224.457,352.232 224.000,347.600 224.000 C 345.458 224.000,343.979 223.819,343.680 223.520 C 342.987 222.827,342.987 175.973,343.680 175.280 C 344.328 174.632,350.872 174.632,351.520 175.280 M70.344 182.765 L 69.400 183.530 69.400 199.354 C 69.400 217.047,69.445 217.327,72.178 216.641 C 74.015 216.180,74.160 215.146,74.319 201.400 C 74.534 182.742,73.921 179.868,70.344 182.765 M100.744 182.765 L 99.800 183.530 99.800 199.354 C 99.800 217.047,99.845 217.327,102.578 216.641 C 104.415 216.180,104.560 215.146,104.719 201.400 C 104.934 182.742,104.321 179.868,100.744 182.765 M130.993 182.475 C 130.882 182.764,130.838 190.560,130.896 199.800 L 131.000 216.600 132.276 216.724 C 135.449 217.031,135.725 215.385,135.535 197.329 C 135.406 184.992,135.365 184.411,134.560 183.329 C 133.637 182.087,131.351 181.540,130.993 182.475 M175.429 182.628 C 175.084 182.973,174.666 183.738,174.501 184.328 C 173.989 186.152,174.174 214.047,174.705 215.289 C 175.356 216.808,177.007 217.171,178.136 216.041 C 179.410 214.768,179.503 184.240,178.238 182.842 C 177.333 181.842,176.294 181.763,175.429 182.628 M100.196 250.791 C 142.520 335.184,263.583 334.927,306.023 250.353 L 308.007 246.400 309.604 246.400 C 311.545 246.400,311.550 246.495,309.809 250.263 C 294.180 284.090,258.423 310.742,221.400 316.160 C 212.910 317.402,210.352 317.601,202.845 317.601 C 158.538 317.598,117.900 292.763,97.699 253.343 C 94.274 246.660,94.226 246.400,96.397 246.400 L 97.993 246.400 100.196 250.791 M89.056 258.055 C 128.537 333.444,224.588 351.331,288.293 295.156 C 299.734 285.067,313.570 266.661,318.271 255.275 C 319.169 253.098,319.948 252.400,321.475 252.400 C 323.599 252.400,323.483 253.177,320.467 259.150 C 302.807 294.127,271.460 318.756,232.400 328.344 C 209.081 334.068,177.543 331.889,155.800 323.050 C 124.091 310.161,100.331 288.622,85.531 259.351 C 82.357 253.072,82.260 252.274,84.697 252.476 C 86.193 252.599,86.213 252.625,89.056 258.055 M157.615 280.100 C 162.366 282.496,161.298 287.419,155.615 289.314 C 153.333 290.075,153.191 290.586,154.968 291.634 C 156.474 292.523,156.797 293.573,155.815 294.388 C 155.150 294.940,148.241 291.581,147.456 290.323 C 146.792 289.261,148.155 288.110,150.745 287.546 C 155.757 286.455,158.273 284.502,156.697 282.926 C 156.147 282.375,155.874 282.355,154.829 282.788 C 152.593 283.714,150.852 282.020,152.500 280.521 C 154.204 278.970,155.211 278.888,157.615 280.100 M248.700 280.622 C 249.294 281.297,249.600 282.158,249.600 283.155 C 249.600 284.462,249.803 284.797,251.100 285.635 C 254.159 287.612,253.749 291.482,250.304 293.150 C 248.087 294.223,246.400 294.230,245.054 293.171 C 243.095 291.630,244.341 290.324,247.600 290.502 C 249.209 290.590,249.414 290.502,249.531 289.678 C 249.727 288.293,248.888 287.517,247.520 287.818 C 245.581 288.243,244.364 286.391,245.800 285.200 C 246.130 284.926,246.400 284.274,246.400 283.751 C 246.400 282.334,244.620 282.433,243.922 283.888 C 243.176 285.443,241.564 286.205,240.900 285.317 C 238.369 281.927,245.874 277.410,248.700 280.622 M168.160 285.048 C 170.748 285.930,170.750 286.004,168.377 292.276 C 167.227 295.314,166.203 298.025,166.101 298.300 C 165.727 299.303,162.800 298.556,162.800 297.458 C 162.800 297.175,163.532 295.001,164.427 292.626 L 166.054 288.309 165.206 287.407 C 163.167 285.236,164.825 283.912,168.160 285.048 M237.111 290.908 C 239.495 297.399,239.562 297.852,238.226 298.461 C 236.643 299.182,236.207 298.687,234.598 294.337 C 232.778 289.417,232.633 289.200,231.159 289.200 C 228.403 289.200,229.227 286.612,232.317 285.558 C 234.900 284.678,234.768 284.531,237.111 290.908 M211.631 291.569 C 212.950 292.889,213.196 294.856,212.216 296.255 C 211.688 297.010,211.726 297.215,212.616 298.422 C 216.024 303.041,208.605 307.985,204.745 303.668 C 202.708 301.390,205.174 299.333,207.259 301.571 C 208.785 303.209,211.017 301.900,209.986 299.974 C 209.747 299.527,209.151 299.200,208.577 299.200 C 207.168 299.200,206.265 297.280,207.373 296.639 C 208.764 295.832,209.584 294.824,209.348 294.209 C 209.048 293.427,207.446 293.421,206.800 294.200 C 205.544 295.713,202.929 294.764,203.587 293.034 C 204.613 290.336,209.506 289.445,211.631 291.569 M194.539 291.176 C 197.820 291.938,199.460 295.478,196.465 295.337 C 195.731 295.303,194.730 294.898,194.240 294.437 C 193.140 293.404,192.546 293.379,192.030 294.345 C 191.471 295.388,192.146 296.111,194.855 297.368 C 201.134 300.284,196.645 307.318,190.218 304.633 C 188.686 303.993,187.396 302.309,187.743 301.403 C 188.090 300.499,190.522 300.630,191.400 301.600 C 192.241 302.530,193.308 302.634,193.958 301.851 C 194.715 300.938,194.086 300.188,191.539 298.971 C 187.126 296.862,186.752 292.443,190.885 291.251 C 192.596 290.758,192.725 290.755,194.539 291.176 M178.951 294.406 C 180.684 294.843,182.169 295.200,182.251 295.200 C 182.661 295.200,182.331 297.557,181.900 297.700 C 181.403 297.867,174.983 296.560,174.338 296.161 C 173.937 295.914,173.885 294.248,174.267 293.867 C 174.683 293.451,175.558 293.551,178.951 294.406 M226.720 294.080 C 228.199 295.559,227.153 296.411,222.635 297.410 C 219.569 298.087,219.452 298.086,218.923 297.362 C 217.905 295.970,218.460 295.467,222.003 294.567 C 226.236 293.492,226.141 293.501,226.720 294.080 " stroke="none" fill="#343434" fill-rule="evenodd"></path></g></svg>