<svg id="svg" version="1.1" xmlns="http://www.w3.org/2000/svg" xmlns:xlink="http://www.w3.org/1999/xlink" width="400" height="400" viewBox="0, 0, 400,400"><g id="svgg"><path id="path0" d="M200.526 63.385 C 196.394 65.182,197.767 72.003,202.260 71.999 C 207.164 71.994,208.869 66.138,204.705 63.599 C 203.182 62.670,202.277 62.624,200.526 63.385 M177.084 64.383 C 175.810 64.790,173.560 65.332,172.084 65.587 C 167.357 66.403,166.557 67.654,168.964 70.467 C 170.242 71.959,171.347 75.008,172.243 79.511 C 172.792 82.269,169.723 83.305,166.142 81.572 C 162.356 79.739,161.389 80.993,162.616 86.148 C 163.879 91.459,165.315 92.206,167.750 88.817 C 170.128 85.506,172.989 84.710,173.939 87.095 C 175.407 90.779,176.068 94.437,175.438 95.398 C 173.962 97.651,168.379 97.067,163.734 94.172 C 158.756 91.069,157.257 92.576,160.448 97.474 C 164.176 103.196,164.553 103.284,173.777 100.613 C 177.171 99.630,181.747 98.459,183.946 98.011 C 189.674 96.844,190.472 96.257,189.020 94.280 C 185.945 90.092,186.190 90.759,183.393 78.965 C 181.668 71.689,181.526 70.716,181.753 67.715 C 182.087 63.319,181.569 62.950,177.084 64.383 M216.418 64.179 C 216.038 64.636,216.112 65.288,216.766 67.279 C 217.222 68.665,217.861 71.642,218.186 73.893 C 218.872 78.644,219.886 80.924,221.821 82.066 C 224.653 83.736,222.805 85.424,217.050 86.422 C 210.506 87.558,211.366 89.927,218.946 91.644 C 223.717 92.724,224.112 92.577,224.417 89.598 C 224.648 87.334,226.787 84.800,228.467 84.800 C 229.547 84.800,229.429 85.884,227.400 94.578 C 224.755 105.910,224.920 106.531,230.165 105.010 C 231.284 104.685,233.417 104.311,234.904 104.178 C 238.029 103.898,239.012 103.222,238.599 101.637 C 237.807 98.595,237.971 97.255,240.347 87.321 C 242.782 77.141,243.328 75.540,245.077 73.444 C 247.272 70.815,246.520 70.188,239.000 68.370 C 231.782 66.625,231.122 66.835,231.968 70.613 C 232.504 73.010,232.052 76.431,231.012 77.847 C 230.209 78.942,229.807 77.659,229.182 71.997 C 228.580 66.550,227.910 65.517,224.656 65.029 C 223.599 64.871,222.006 64.484,221.116 64.170 C 219.041 63.438,217.029 63.442,216.418 64.179 M251.279 77.069 C 246.736 79.308,249.017 83.565,253.614 81.426 C 258.239 79.272,261.978 81.273,261.994 85.910 C 262.012 91.094,256.338 99.600,252.862 99.600 C 250.922 99.600,251.007 98.544,253.222 95.117 C 257.571 88.389,250.866 82.144,245.085 87.538 C 239.297 92.939,245.638 103.062,256.148 105.199 C 268.850 107.782,277.452 91.905,268.524 82.360 C 263.923 77.441,255.665 74.908,251.279 77.069 M138.901 77.606 C 126.061 80.264,121.351 93.795,130.188 102.638 C 135.524 107.979,144.321 107.422,150.832 101.331 C 160.517 92.272,151.799 74.936,138.901 77.606 M137.999 83.400 C 139.531 84.192,142.364 88.215,144.446 92.554 C 147.009 97.894,146.726 100.800,143.644 100.800 C 141.034 100.800,134.400 90.184,134.400 86.007 C 134.400 83.201,135.739 82.231,137.999 83.400 M280.481 90.342 C 280.195 90.523,279.714 91.611,279.410 92.760 C 278.715 95.398,278.774 95.312,272.264 103.184 C 264.984 111.989,264.611 113.580,269.709 114.106 C 270.886 114.227,272.958 114.793,274.313 115.363 C 277.789 116.826,279.200 116.277,279.200 113.460 C 279.200 111.985,279.920 110.904,284.277 105.830 C 286.160 103.637,287.706 102.280,289.290 101.430 C 292.851 99.517,292.761 98.916,288.369 95.310 C 286.821 94.040,284.739 92.325,283.743 91.500 C 281.876 89.955,281.373 89.776,280.481 90.342 M110.932 97.149 C 97.495 102.146,95.841 118.259,108.104 124.689 C 116.504 129.095,129.000 120.669,129.000 110.600 C 129.000 101.633,118.964 94.162,110.932 97.149 M294.525 103.300 C 294.320 103.575,293.832 104.540,293.440 105.445 C 292.677 107.208,289.560 110.402,281.800 117.372 C 271.506 126.619,270.365 127.707,269.780 128.838 C 268.928 130.485,269.545 131.387,272.096 132.223 C 273.253 132.602,275.519 133.606,277.130 134.454 C 280.382 136.165,281.372 136.089,281.851 134.088 C 281.995 133.490,282.361 132.507,282.664 131.904 C 283.540 130.165,298.972 116.487,301.132 115.535 C 304.710 113.959,305.001 113.768,305.124 112.916 C 305.457 110.615,295.683 101.747,294.525 103.300 M111.643 104.422 C 116.241 106.768,122.762 115.401,121.560 117.552 C 119.835 120.641,113.076 116.507,108.398 109.501 C 105.350 104.937,107.145 102.127,111.643 104.422 M262.153 116.365 C 259.391 117.620,258.554 119.591,259.780 121.960 C 262.003 126.259,272.190 126.471,273.584 122.247 C 275.132 117.557,267.818 113.793,262.153 116.365 M89.450 120.988 C 85.878 122.261,83.433 126.302,83.666 130.549 L 83.800 132.992 82.135 133.218 C 80.042 133.503,79.392 134.045,78.115 136.575 C 77.553 137.689,76.577 139.352,75.946 140.272 C 73.979 143.141,74.512 144.261,78.079 144.759 C 80.809 145.140,79.499 144.443,99.446 156.148 C 108.768 161.618,110.005 161.720,109.995 157.020 C 109.992 155.689,110.298 153.282,110.675 151.671 C 111.541 147.967,111.285 147.473,108.359 147.196 C 104.625 146.843,104.466 146.373,106.782 142.533 C 110.148 136.952,109.348 131.435,104.465 126.552 C 99.647 121.734,93.621 119.501,89.450 120.988 M302.777 120.760 C 298.897 122.011,297.706 125.257,300.251 127.648 C 301.361 128.690,302.648 128.789,307.800 128.225 C 316.752 127.246,316.401 136.083,307.247 142.169 C 295.610 149.905,286.793 146.936,290.565 136.552 C 293.079 129.632,291.020 128.063,286.224 133.244 C 282.401 137.372,282.329 137.727,284.542 141.501 C 285.564 143.244,286.400 144.810,286.400 144.981 C 286.400 145.152,287.223 146.530,288.228 148.043 C 299.938 165.656,327.546 150.053,318.268 131.065 C 314.855 124.081,307.550 119.221,302.777 120.760 M194.600 127.438 C 132.613 133.691,105.104 206.326,147.975 250.546 C 193.157 297.150,272.606 265.044,272.559 200.200 C 272.528 158.065,235.313 123.331,194.600 127.438 M96.035 133.900 C 101.976 136.954,104.687 140.607,102.216 142.226 C 99.571 143.959,88.800 137.798,88.800 134.552 C 88.800 131.867,91.591 131.615,96.035 133.900 M209.400 147.555 C 258.080 157.627,269.838 219.010,228.200 245.700 C 199.774 263.921,160.014 249.458,149.405 217.038 C 145.765 205.915,145.668 197.025,149.054 184.800 C 156.087 159.410,183.858 142.271,209.400 147.555 M193.800 149.177 C 156.537 153.512,136.451 197.202,157.330 228.504 C 162.893 236.844,165.613 238.525,166.871 234.400 C 171.731 218.459,172.533 216.147,173.604 215.000 C 174.750 213.772,175.444 212.061,176.587 207.649 C 177.403 204.502,177.239 204.019,174.826 202.456 C 169.231 198.830,168.621 194.801,171.849 182.800 C 177.068 163.396,177.524 162.000,178.649 162.000 C 179.602 162.000,179.288 163.888,176.732 173.518 L 174.259 182.837 175.096 183.674 C 176.294 184.872,179.627 185.155,180.255 184.111 C 180.705 183.364,182.167 178.344,184.190 170.600 C 185.590 165.240,185.950 164.400,186.849 164.400 C 188.084 164.400,187.792 166.382,185.200 175.600 C 182.142 186.474,182.122 186.218,186.133 187.226 C 189.012 187.949,189.172 187.674,192.185 176.824 C 194.875 167.137,195.120 166.530,196.173 166.934 C 196.903 167.214,196.962 168.055,196.388 170.003 C 191.211 187.577,191.147 189.600,195.771 189.600 C 197.741 189.600,197.961 189.125,200.584 179.200 C 202.772 170.923,203.555 168.800,204.422 168.800 C 205.667 168.800,205.356 170.754,202.576 180.400 C 201.847 182.930,200.603 187.483,199.812 190.519 C 196.736 202.327,194.293 205.287,187.124 205.888 C 183.869 206.161,183.753 206.301,182.402 211.593 C 181.759 214.109,181.613 215.527,181.807 217.364 C 182.035 219.531,181.751 221.046,179.232 231.089 C 175.755 244.948,175.737 245.253,178.300 246.544 C 184.714 249.775,195.784 252.124,197.766 250.675 C 198.212 250.348,199.210 247.736,200.402 243.775 C 204.884 228.873,206.070 225.379,206.977 224.400 C 208.278 222.995,208.603 222.257,209.797 218.009 C 211.071 213.479,210.978 213.003,208.457 211.120 C 196.043 201.852,212.716 168.423,226.600 174.746 C 240.064 180.878,234.127 214.800,219.589 214.800 C 217.360 214.800,214.844 221.769,215.376 226.472 C 215.603 228.478,215.318 230.066,213.209 238.532 C 210.176 250.706,210.226 250.902,215.876 248.973 C 252.755 236.383,263.271 190.562,235.529 163.341 C 224.581 152.599,209.216 147.384,193.800 149.177 M329.166 163.045 C 328.111 164.322,325.377 165.165,318.979 166.183 C 308.812 167.802,306.776 169.036,306.475 173.763 C 306.256 177.199,306.864 178.792,309.472 181.609 C 311.939 184.273,311.953 184.382,310.000 185.690 C 308.106 186.959,308.064 187.923,309.814 190.017 C 310.613 190.974,311.812 192.846,312.477 194.178 C 313.142 195.510,314.033 196.978,314.457 197.440 C 315.390 198.458,315.041 198.819,312.400 199.575 C 298.159 203.646,296.056 223.362,309.120 230.325 C 321.364 236.851,334.938 229.793,335.513 216.600 C 335.942 206.744,329.670 200.049,318.980 198.954 C 315.941 198.642,315.729 198.453,316.841 197.039 C 318.137 195.391,319.475 194.911,324.787 194.186 C 329.345 193.563,331.289 193.573,334.664 194.233 C 336.901 194.670,337.294 193.422,336.378 188.800 C 335.963 186.710,335.619 184.337,335.612 183.526 C 335.581 179.738,334.181 178.912,331.230 180.942 C 326.133 184.448,314.800 184.328,314.800 180.767 C 314.800 178.482,316.650 177.713,325.393 176.369 C 334.832 174.918,334.687 175.171,332.477 164.000 C 332.150 162.348,330.205 161.787,329.166 163.045 M77.643 163.633 C 60.721 166.956,59.111 190.148,75.401 195.937 C 76.720 196.406,78.949 196.966,80.353 197.181 C 83.483 197.661,83.576 197.747,82.368 199.038 C 80.916 200.591,80.345 200.794,75.686 201.414 C 70.283 202.133,67.432 202.138,65.403 201.432 C 62.652 200.475,61.652 201.689,62.420 205.053 C 62.664 206.124,63.027 208.710,63.226 210.800 C 63.728 216.075,64.283 216.546,67.741 214.632 C 73.779 211.290,84.000 211.626,84.000 215.167 C 84.000 217.477,82.459 218.101,73.574 219.392 C 64.676 220.685,64.247 220.996,65.150 225.493 C 65.398 226.725,65.600 228.563,65.600 229.578 C 65.600 233.048,67.195 234.008,69.941 232.191 C 71.993 230.834,73.104 230.556,80.301 229.599 C 83.698 229.148,87.133 228.505,87.933 228.170 C 93.559 225.820,94.014 219.629,88.972 214.044 L 87.025 211.888 87.957 211.244 C 91.176 209.018,91.239 208.763,89.228 206.086 C 88.363 204.936,87.185 202.965,86.609 201.708 C 86.034 200.451,85.269 199.098,84.911 198.701 C 84.063 197.765,84.420 197.457,87.578 196.401 C 99.446 192.433,103.237 177.958,94.757 168.992 C 90.680 164.681,83.599 162.463,77.643 163.633 M82.562 175.005 C 93.365 177.072,97.626 180.130,94.976 183.913 C 91.916 188.281,70.838 185.502,68.190 180.381 C 65.704 175.573,72.413 173.063,82.562 175.005 M218.878 177.436 C 212.708 180.511,206.252 192.423,206.215 200.800 C 206.161 213.099,223.031 216.990,228.617 205.967 C 236.214 190.974,229.745 172.021,218.878 177.436 M172.948 187.824 C 170.690 191.269,172.317 198.180,175.875 200.265 C 184.729 205.454,192.907 204.105,195.559 197.018 C 197.322 192.307,197.940 192.697,181.873 188.389 C 174.797 186.492,173.859 186.433,172.948 187.824 M178.787 208.300 C 177.330 212.956,177.276 216.522,178.690 214.700 C 179.215 214.023,181.200 207.493,181.200 206.441 C 181.200 204.340,179.654 205.531,178.787 208.300 M321.740 211.009 C 330.409 212.556,334.270 216.191,330.863 219.598 C 326.049 224.413,304.000 220.120,304.000 214.368 C 304.000 210.310,310.705 209.040,321.740 211.009 M212.864 215.900 C 211.326 219.811,210.796 224.136,211.881 223.927 C 212.634 223.782,215.021 216.352,214.636 215.350 C 214.285 214.434,213.324 214.732,212.864 215.900 M174.236 218.900 C 173.639 219.823,168.000 238.321,168.000 239.357 C 168.000 240.223,171.581 243.200,172.623 243.200 C 173.328 243.200,173.677 242.816,174.169 241.500 C 175.112 238.972,179.200 221.869,179.200 220.448 C 179.200 218.264,175.412 217.083,174.236 218.900 M207.825 228.106 C 207.281 228.936,202.438 244.341,201.481 248.283 C 200.882 250.752,201.500 251.332,204.496 251.116 C 205.882 251.015,207.078 250.693,207.452 250.319 C 208.581 249.191,213.078 230.761,212.645 229.037 C 212.203 227.274,208.800 226.617,207.825 228.106 M290.924 236.500 C 290.746 236.775,290.475 238.710,290.323 240.800 C 290.171 242.890,289.925 245.527,289.776 246.661 C 289.460 249.072,290.215 249.821,292.525 249.388 C 293.501 249.205,294.090 249.345,294.817 249.933 L 295.795 250.725 294.295 253.663 C 290.958 260.198,291.858 265.190,297.279 270.209 C 306.523 278.767,318.173 276.297,317.487 265.925 C 317.287 262.899,317.566 262.400,319.451 262.400 C 320.947 262.400,321.873 261.606,322.698 259.616 C 323.021 258.837,323.910 257.184,324.673 255.942 C 326.840 252.418,326.541 251.532,323.000 251.002 C 319.703 250.509,320.227 250.761,305.324 242.484 C 293.799 236.084,291.745 235.231,290.924 236.500 M91.233 241.009 C 77.305 244.920,73.421 259.946,83.517 270.859 C 89.293 277.102,98.400 277.278,98.400 271.147 C 98.400 268.278,96.745 267.479,91.428 267.782 C 80.194 268.422,80.410 260.006,91.800 253.302 C 102.063 247.262,111.018 250.111,107.826 258.400 C 105.797 263.669,105.611 264.376,105.993 265.382 C 106.761 267.402,108.348 266.792,111.758 263.167 C 115.199 259.510,115.512 258.434,113.850 255.988 C 113.328 255.220,112.118 252.982,111.162 251.015 C 107.115 242.696,99.265 238.754,91.233 241.009 M303.414 254.591 C 309.872 257.022,314.044 261.337,311.765 263.229 C 309.177 265.377,297.612 259.228,297.601 255.700 C 297.595 253.664,299.822 253.239,303.414 254.591 M116.524 261.700 C 116.346 261.975,115.927 262.913,115.594 263.785 C 114.520 266.597,98.254 280.234,94.791 281.227 C 91.230 282.247,91.151 283.102,94.303 286.510 C 95.570 287.880,97.282 289.926,98.107 291.059 C 100.556 294.419,101.986 294.540,103.359 291.500 C 103.937 290.221,105.225 288.527,106.654 287.167 C 110.041 283.942,120.749 274.726,122.441 273.578 C 124.176 272.400,127.893 268.401,128.011 267.584 C 128.241 265.985,127.926 265.642,125.300 264.635 C 123.815 264.066,121.790 263.061,120.800 262.402 C 118.920 261.150,117.076 260.847,116.524 261.700 M284.501 271.360 C 276.227 274.062,270.926 283.439,273.625 290.600 C 278.380 303.216,294.878 303.197,301.031 290.569 C 305.907 280.561,295.030 267.921,284.501 271.360 M126.049 272.526 C 120.192 274.748,124.088 281.603,131.200 281.587 C 137.872 281.573,140.480 275.909,135.092 273.138 C 133.032 272.078,128.106 271.745,126.049 272.526 M284.574 278.790 C 288.585 280.740,295.200 288.101,295.200 290.615 C 295.200 295.729,287.762 292.247,281.831 284.357 C 278.399 279.791,279.989 276.562,284.574 278.790 M118.856 281.046 C 118.385 281.375,118.000 282.028,118.000 282.496 C 118.000 285.266,110.754 293.723,106.933 295.412 C 104.040 296.692,104.025 297.709,106.864 300.078 C 107.999 301.025,110.152 302.925,111.648 304.300 C 115.251 307.611,115.973 307.585,117.006 304.103 C 117.695 301.785,118.664 300.483,125.541 292.632 C 131.634 285.677,132.106 284.241,128.561 283.453 C 126.656 283.030,124.463 282.320,121.756 281.252 C 119.915 280.526,119.628 280.505,118.856 281.046 M260.200 291.339 C 247.387 294.570,243.192 307.551,252.085 316.446 C 260.561 324.925,277.511 316.806,276.711 304.648 C 276.135 295.892,268.036 289.363,260.200 291.339 M134.000 292.628 C 126.320 295.071,122.073 304.696,125.555 311.768 C 129.267 319.309,141.534 324.089,146.164 319.799 C 149.124 317.055,146.233 314.444,142.400 316.400 C 134.269 320.548,131.836 310.911,138.716 301.808 C 142.859 296.326,147.217 296.852,143.631 302.401 C 139.681 308.512,143.652 314.593,149.674 311.654 C 160.951 306.151,146.527 288.643,134.000 292.628 M166.600 293.411 C 165.720 293.701,163.805 293.952,162.344 293.969 C 158.496 294.014,157.703 294.729,158.416 297.511 C 159.144 300.354,153.839 320.833,151.675 323.530 C 148.723 327.207,149.075 328.028,154.014 328.983 C 155.656 329.301,158.063 329.930,159.363 330.380 C 163.493 331.813,164.787 331.092,163.962 327.815 C 163.440 325.744,163.942 322.380,164.984 320.954 C 165.859 319.757,166.082 320.449,166.637 326.091 C 167.232 332.143,167.654 332.871,170.877 333.410 C 171.825 333.568,173.485 334.045,174.567 334.469 C 178.811 336.135,180.149 335.043,178.880 330.950 C 178.411 329.438,177.918 326.940,177.784 325.400 C 177.371 320.655,176.617 318.636,174.501 316.608 C 172.037 314.247,173.368 313.100,179.600 312.215 C 183.487 311.663,184.641 309.060,181.400 308.152 C 172.314 305.606,172.001 305.612,171.999 308.314 C 171.997 310.264,170.749 312.246,168.999 313.081 C 166.401 314.320,166.396 313.718,168.923 304.476 C 172.154 292.658,171.943 291.650,166.600 293.411 M232.800 296.435 C 231.150 296.860,227.989 297.819,225.775 298.566 C 223.561 299.313,219.968 300.310,217.792 300.781 C 212.199 301.993,211.654 302.735,214.186 305.692 C 215.718 307.481,216.172 308.742,219.270 319.800 C 221.122 326.409,221.400 327.870,221.400 331.000 L 221.400 334.600 222.718 334.727 C 223.444 334.796,225.424 334.417,227.118 333.883 C 228.813 333.349,231.093 332.697,232.184 332.435 C 235.166 331.718,236.205 330.132,234.577 328.781 C 232.410 326.982,229.575 318.508,230.612 316.926 C 231.397 315.727,234.241 315.673,236.744 316.809 C 240.869 318.681,241.548 315.582,238.604 308.315 C 237.871 306.507,236.020 307.180,234.367 309.854 C 233.289 311.598,231.064 312.953,229.799 312.636 C 228.571 312.327,228.334 311.847,227.167 307.302 L 226.218 303.604 227.030 302.793 C 228.981 300.842,234.218 301.415,238.605 304.061 C 243.485 307.004,245.027 305.481,241.860 300.846 C 238.393 295.772,237.349 295.264,232.800 296.435 M261.206 298.454 C 267.532 304.973,270.205 315.299,265.287 314.219 C 262.336 313.571,256.000 303.570,256.000 299.559 C 256.000 296.268,258.558 295.726,261.206 298.454 M198.600 327.558 C 194.223 329.461,195.325 335.752,200.130 336.293 C 204.191 336.751,206.649 331.665,203.763 328.778 C 202.444 327.459,200.101 326.905,198.600 327.558 " stroke="none" fill="#d7d7d7" fill-rule="evenodd"></path><path id="path1" d="M0.000 200.000 L 0.000 400.000 200.000 400.000 L 400.000 400.000 400.000 200.000 L 400.000 0.000 200.000 0.000 L 0.000 0.000 0.000 200.000 M204.705 63.599 C 208.869 66.138,207.164 71.994,202.260 71.999 C 201.041 72.000,200.437 71.717,199.360 70.640 C 195.606 66.886,200.191 60.847,204.705 63.599 M181.227 64.015 C 181.931 64.391,181.979 64.732,181.753 67.715 C 181.526 70.716,181.668 71.689,183.393 78.965 C 185.811 89.161,186.184 90.383,187.383 92.035 C 187.928 92.786,188.664 93.796,189.020 94.280 C 190.472 96.257,189.674 96.844,183.946 98.011 C 181.747 98.459,177.171 99.630,173.777 100.613 C 164.553 103.284,164.176 103.196,160.448 97.474 C 157.257 92.576,158.756 91.069,163.734 94.172 C 168.379 97.067,173.962 97.651,175.438 95.398 C 176.068 94.437,175.407 90.779,173.939 87.095 C 172.989 84.710,170.128 85.506,167.750 88.817 C 165.315 92.206,163.879 91.459,162.616 86.148 C 161.389 80.993,162.356 79.739,166.142 81.572 C 169.723 83.305,172.792 82.269,172.243 79.511 C 171.347 75.008,170.242 71.959,168.964 70.467 C 166.557 67.654,167.357 66.403,172.084 65.587 C 173.560 65.332,175.810 64.790,177.084 64.383 C 179.832 63.505,180.212 63.471,181.227 64.015 M221.116 64.170 C 222.006 64.484,223.599 64.871,224.656 65.029 C 227.910 65.517,228.580 66.550,229.182 71.997 C 229.807 77.659,230.209 78.942,231.012 77.847 C 232.052 76.431,232.504 73.010,231.968 70.613 C 231.122 66.835,231.782 66.625,239.000 68.370 C 246.520 70.188,247.272 70.815,245.077 73.444 C 243.328 75.540,242.782 77.141,240.347 87.321 C 237.971 97.255,237.807 98.595,238.599 101.637 C 239.012 103.222,238.029 103.898,234.904 104.178 C 233.417 104.311,231.284 104.685,230.165 105.010 C 224.920 106.531,224.755 105.910,227.400 94.578 C 229.429 85.884,229.547 84.800,228.467 84.800 C 226.787 84.800,224.648 87.334,224.417 89.598 C 224.112 92.577,223.717 92.724,218.946 91.644 C 211.366 89.927,210.506 87.558,217.050 86.422 C 222.805 85.424,224.653 83.736,221.821 82.066 C 219.886 80.924,218.872 78.644,218.186 73.893 C 217.861 71.642,217.222 68.665,216.766 67.279 C 215.569 63.636,216.902 62.684,221.116 64.170 M260.513 77.231 C 272.375 81.195,276.007 92.896,268.002 101.360 C 263.675 105.935,257.976 106.694,251.372 103.575 C 243.625 99.915,240.463 91.850,245.085 87.538 C 250.866 82.144,257.571 88.389,253.222 95.117 C 251.007 98.544,250.922 99.600,252.862 99.600 C 256.338 99.600,262.012 91.094,261.994 85.910 C 261.978 81.273,258.239 79.272,253.614 81.426 C 250.166 83.030,247.901 81.699,249.340 78.915 C 250.668 76.348,255.630 75.600,260.513 77.231 M146.737 78.506 C 155.632 82.687,157.806 94.808,150.832 101.331 C 140.777 110.737,126.469 105.854,125.685 92.749 C 125.079 82.605,137.532 74.179,146.737 78.506 M135.289 83.423 C 132.276 85.533,139.616 100.800,143.644 100.800 C 146.726 100.800,147.009 97.894,144.446 92.554 C 140.848 85.056,137.593 81.809,135.289 83.423 M283.743 91.500 C 284.739 92.325,286.821 94.040,288.369 95.310 C 292.761 98.916,292.851 99.517,289.290 101.430 C 287.706 102.280,286.160 103.637,284.277 105.830 C 279.920 110.904,279.200 111.985,279.200 113.460 C 279.200 116.277,277.789 116.826,274.313 115.363 C 272.958 114.793,270.886 114.227,269.709 114.106 C 264.611 113.580,264.984 111.989,272.264 103.184 C 278.774 95.312,278.715 95.398,279.410 92.760 C 280.264 89.526,281.074 89.290,283.743 91.500 M120.133 97.604 C 132.025 103.233,131.696 117.832,119.528 124.430 C 113.008 127.964,104.593 124.787,100.799 117.357 C 95.311 106.610,109.194 92.427,120.133 97.604 M300.950 107.430 C 304.079 110.801,305.214 112.292,305.124 112.916 C 305.001 113.768,304.710 113.959,301.132 115.535 C 298.972 116.487,283.540 130.165,282.664 131.904 C 282.361 132.507,281.995 133.490,281.851 134.088 C 281.372 136.089,280.382 136.165,277.130 134.454 C 275.519 133.606,273.253 132.602,272.096 132.223 C 269.545 131.387,268.928 130.485,269.780 128.838 C 270.365 127.707,271.506 126.619,281.800 117.372 C 289.560 110.402,292.677 107.208,293.440 105.445 C 295.113 101.578,295.651 101.720,300.950 107.430 M107.429 104.229 C 104.723 106.934,115.097 119.175,119.713 118.723 C 123.409 118.362,122.176 114.348,116.631 108.689 C 112.084 104.049,109.069 102.588,107.429 104.229 M269.311 116.024 C 273.786 117.267,275.454 122.414,271.966 124.217 C 266.747 126.917,259.200 124.370,259.200 119.909 C 259.200 116.732,264.512 114.691,269.311 116.024 M95.385 121.013 C 106.143 123.815,111.720 134.346,106.782 142.533 C 104.466 146.373,104.625 146.843,108.359 147.196 C 111.285 147.473,111.541 147.967,110.675 151.671 C 110.298 153.282,109.992 155.689,109.995 157.020 C 110.005 161.720,108.768 161.618,99.446 156.148 C 79.499 144.443,80.809 145.140,78.079 144.759 C 74.512 144.261,73.979 143.141,75.946 140.272 C 76.577 139.352,77.553 137.689,78.115 136.575 C 79.392 134.045,80.042 133.503,82.135 133.218 L 83.800 132.992 83.666 130.549 C 83.283 123.569,88.597 119.245,95.385 121.013 M309.547 121.695 C 312.417 123.020,316.459 127.362,318.268 131.065 C 327.546 150.053,299.938 165.656,288.228 148.043 C 287.223 146.530,286.400 145.152,286.400 144.981 C 286.400 144.810,285.564 143.244,284.542 141.501 C 282.329 137.727,282.401 137.372,286.224 133.244 C 291.020 128.063,293.079 129.632,290.565 136.552 C 286.793 146.936,295.610 149.905,307.247 142.169 C 316.401 136.083,316.752 127.246,307.800 128.225 C 301.368 128.929,299.615 128.402,298.995 125.579 C 298.075 121.390,304.090 119.177,309.547 121.695 M211.565 128.210 C 253.195 135.001,280.712 176.496,270.581 217.205 C 256.762 272.736,187.696 291.517,147.975 250.546 C 105.104 206.326,132.613 133.691,194.600 127.438 C 197.622 127.133,207.803 127.597,211.565 128.210 M89.280 132.880 C 87.507 134.653,90.114 137.930,95.517 140.721 C 100.599 143.344,103.200 143.246,103.200 140.431 C 103.200 136.941,91.543 130.617,89.280 132.880 M190.602 147.620 C 167.744 151.875,152.082 167.956,147.185 192.200 C 143.956 208.180,151.609 228.985,164.885 240.321 C 200.031 270.333,253.236 246.323,253.348 200.400 C 253.430 166.702,223.471 141.501,190.602 147.620 M210.237 149.820 C 219.814 151.798,228.495 156.439,235.529 163.341 C 263.271 190.562,252.755 236.383,215.876 248.973 C 210.226 250.902,210.176 250.706,213.209 238.532 C 215.318 230.066,215.603 228.478,215.376 226.472 C 214.844 221.769,217.360 214.800,219.589 214.800 C 234.127 214.800,240.064 180.878,226.600 174.746 C 212.716 168.423,196.043 201.852,208.457 211.120 C 210.978 213.003,211.071 213.479,209.797 218.009 C 208.603 222.257,208.278 222.995,206.977 224.400 C 206.070 225.379,204.884 228.873,200.402 243.775 C 199.210 247.736,198.212 250.348,197.766 250.675 C 195.784 252.124,184.714 249.775,178.300 246.544 C 175.737 245.253,175.755 244.948,179.232 231.089 C 181.751 221.046,182.035 219.531,181.807 217.364 C 181.613 215.527,181.759 214.109,182.402 211.593 C 183.753 206.301,183.869 206.161,187.124 205.888 C 194.293 205.287,196.736 202.327,199.812 190.519 C 200.603 187.483,201.847 182.930,202.576 180.400 C 205.356 170.754,205.667 168.800,204.422 168.800 C 203.555 168.800,202.772 170.923,200.584 179.200 C 197.961 189.125,197.741 189.600,195.771 189.600 C 191.147 189.600,191.211 187.577,196.388 170.003 C 196.962 168.055,196.903 167.214,196.173 166.934 C 195.120 166.530,194.875 167.137,192.185 176.824 C 189.172 187.674,189.012 187.949,186.133 187.226 C 182.122 186.218,182.142 186.474,185.200 175.600 C 187.792 166.382,188.084 164.400,186.849 164.400 C 185.950 164.400,185.590 165.240,184.190 170.600 C 182.167 178.344,180.705 183.364,180.255 184.111 C 179.627 185.155,176.294 184.872,175.096 183.674 L 174.259 182.837 176.732 173.518 C 179.288 163.888,179.602 162.000,178.649 162.000 C 177.524 162.000,177.068 163.396,171.849 182.800 C 168.621 194.801,169.231 198.830,174.826 202.456 C 177.239 204.019,177.403 204.502,176.587 207.649 C 175.444 212.061,174.750 213.772,173.604 215.000 C 172.533 216.147,171.731 218.459,166.871 234.400 C 164.241 243.026,150.955 221.737,149.148 206.000 C 145.211 171.721,176.584 142.869,210.237 149.820 M332.477 164.000 C 334.687 175.171,334.832 174.918,325.393 176.369 C 316.650 177.713,314.800 178.482,314.800 180.767 C 314.800 184.328,326.133 184.448,331.230 180.942 C 334.181 178.912,335.581 179.738,335.612 183.526 C 335.619 184.337,335.963 186.710,336.378 188.800 C 337.294 193.422,336.901 194.670,334.664 194.233 C 328.095 192.947,318.923 194.391,316.841 197.039 C 315.729 198.453,315.941 198.642,318.980 198.954 C 329.670 200.049,335.942 206.744,335.513 216.600 C 334.938 229.793,321.364 236.851,309.120 230.325 C 296.056 223.362,298.159 203.646,312.400 199.575 C 315.041 198.819,315.390 198.458,314.457 197.440 C 314.033 196.978,313.142 195.510,312.477 194.178 C 311.812 192.846,310.613 190.974,309.814 190.017 C 308.064 187.923,308.106 186.959,310.000 185.690 C 311.953 184.382,311.939 184.273,309.472 181.609 C 306.864 178.792,306.256 177.199,306.475 173.763 C 306.776 169.036,308.812 167.802,318.979 166.183 C 325.377 165.165,328.111 164.322,329.166 163.045 C 330.205 161.787,332.150 162.348,332.477 164.000 M85.000 163.804 C 102.690 167.535,104.525 190.734,87.578 196.401 C 84.420 197.457,84.063 197.765,84.911 198.701 C 85.269 199.098,86.034 200.451,86.609 201.708 C 87.185 202.965,88.363 204.936,89.228 206.086 C 91.239 208.763,91.176 209.018,87.957 211.244 L 87.025 211.888 88.972 214.044 C 94.014 219.629,93.559 225.820,87.933 228.170 C 87.133 228.505,83.698 229.148,80.301 229.599 C 73.104 230.556,71.993 230.834,69.941 232.191 C 67.195 234.008,65.600 233.048,65.600 229.578 C 65.600 228.563,65.398 226.725,65.150 225.493 C 64.247 220.996,64.676 220.685,73.574 219.392 C 82.459 218.101,84.000 217.477,84.000 215.167 C 84.000 211.626,73.779 211.290,67.741 214.632 C 64.283 216.546,63.728 216.075,63.226 210.800 C 63.027 208.710,62.664 206.124,62.420 205.053 C 61.652 201.689,62.652 200.475,65.403 201.432 C 67.432 202.138,70.283 202.133,75.686 201.414 C 80.345 200.794,80.916 200.591,82.368 199.038 C 83.576 197.747,83.483 197.661,80.353 197.181 C 69.930 195.584,64.200 189.556,64.200 180.188 C 64.200 168.818,73.614 161.403,85.000 163.804 M70.566 174.969 C 65.090 177.353,67.212 181.938,74.806 184.128 C 88.827 188.171,99.665 185.692,94.550 179.613 C 91.470 175.953,75.436 172.848,70.566 174.969 M226.254 177.167 C 234.588 182.249,232.918 206.650,223.922 211.240 C 219.668 213.410,212.481 212.041,208.900 208.377 C 199.955 199.229,215.775 170.778,226.254 177.167 M181.873 188.389 C 197.940 192.697,197.322 192.307,195.559 197.018 C 193.280 203.109,189.455 204.616,181.746 202.462 C 174.006 200.300,171.705 197.763,172.086 191.814 C 172.447 186.195,172.987 186.007,181.873 188.389 M181.200 206.441 C 181.200 207.493,179.215 214.023,178.690 214.700 C 177.276 216.522,177.330 212.956,178.787 208.300 C 179.654 205.531,181.200 204.340,181.200 206.441 M307.400 210.572 C 300.554 213.120,304.242 218.699,314.026 220.595 C 327.127 223.134,335.593 220.120,330.776 214.634 C 327.973 211.441,312.355 208.727,307.400 210.572 M214.636 215.350 C 215.021 216.352,212.634 223.782,211.881 223.927 C 211.004 224.096,210.985 222.775,211.816 219.458 C 212.905 215.111,213.957 213.579,214.636 215.350 M178.020 218.610 C 179.645 219.450,179.594 220.051,177.002 230.738 C 173.647 244.566,173.507 244.779,169.856 241.566 C 167.554 239.539,167.474 240.548,170.827 229.291 C 174.401 217.291,174.677 216.882,178.020 218.610 M211.143 227.640 C 213.326 228.401,213.096 230.676,209.432 244.565 C 207.850 250.563,207.603 250.891,204.496 251.116 C 200.314 251.418,200.312 251.796,204.560 237.806 C 207.948 226.650,208.014 226.549,211.143 227.640 M305.324 242.484 C 320.227 250.761,319.703 250.509,323.000 251.002 C 326.541 251.532,326.840 252.418,324.673 255.942 C 323.910 257.184,323.021 258.837,322.698 259.616 C 321.873 261.606,320.947 262.400,319.451 262.400 C 317.566 262.400,317.287 262.899,317.487 265.925 C 318.173 276.297,306.523 278.767,297.279 270.209 C 291.858 265.190,290.958 260.198,294.295 253.663 L 295.795 250.725 294.817 249.933 C 294.090 249.345,293.501 249.205,292.525 249.388 C 290.215 249.821,289.460 249.072,289.776 246.661 C 289.925 245.527,290.171 242.890,290.323 240.800 C 290.797 234.294,290.520 234.263,305.324 242.484 M102.657 241.998 C 106.360 243.821,109.049 246.672,111.162 251.015 C 112.118 252.982,113.328 255.220,113.850 255.988 C 115.512 258.434,115.199 259.510,111.758 263.167 C 108.348 266.792,106.761 267.402,105.993 265.382 C 105.611 264.376,105.797 263.669,107.826 258.400 C 111.018 250.111,102.063 247.262,91.800 253.302 C 80.410 260.006,80.194 268.422,91.428 267.782 C 97.576 267.432,100.308 269.898,97.776 273.513 C 92.480 281.074,77.800 269.402,77.800 257.630 C 77.800 245.443,91.787 236.647,102.657 241.998 M298.400 254.400 C 296.893 255.907,297.965 257.909,301.562 260.311 C 307.082 263.997,312.400 264.783,312.400 261.913 C 312.400 258.139,300.856 251.944,298.400 254.400 M120.800 262.402 C 121.790 263.061,123.815 264.066,125.300 264.635 C 127.926 265.642,128.241 265.985,128.011 267.584 C 127.893 268.401,124.176 272.400,122.441 273.578 C 120.749 274.726,110.041 283.942,106.654 287.167 C 105.225 288.527,103.937 290.221,103.359 291.500 C 101.986 294.540,100.556 294.419,98.107 291.059 C 97.282 289.926,95.570 287.880,94.303 286.510 C 91.151 283.102,91.230 282.247,94.791 281.227 C 98.254 280.234,114.520 266.597,115.594 263.785 C 116.771 260.706,117.830 260.424,120.800 262.402 M293.723 272.145 C 305.352 277.835,304.700 293.081,292.572 299.035 C 281.595 304.425,268.747 291.661,274.132 280.715 C 278.124 272.598,286.849 268.781,293.723 272.145 M135.092 273.138 C 138.959 275.127,138.936 279.068,135.047 280.835 C 128.993 283.584,120.445 278.291,123.949 273.963 C 125.668 271.840,131.700 271.393,135.092 273.138 M280.629 278.629 C 278.852 280.405,280.995 284.381,286.331 289.206 C 291.511 293.890,295.200 294.476,295.200 290.615 C 295.200 285.989,283.167 276.090,280.629 278.629 M125.400 282.582 C 126.280 282.870,127.702 283.262,128.561 283.453 C 132.106 284.241,131.634 285.677,125.541 292.632 C 118.664 300.483,117.695 301.785,117.006 304.103 C 115.973 307.585,115.251 307.611,111.648 304.300 C 110.152 302.925,107.999 301.025,106.864 300.078 C 104.025 297.709,104.040 296.692,106.933 295.412 C 110.754 293.723,118.000 285.266,118.000 282.496 C 118.000 280.817,119.442 280.339,121.756 281.252 C 122.880 281.696,124.520 282.294,125.400 282.582 M268.657 292.232 C 276.933 296.194,279.344 307.511,273.302 314.037 C 263.281 324.860,247.400 319.700,247.400 305.621 C 247.400 295.656,259.668 287.928,268.657 292.232 M142.113 292.830 C 153.231 296.540,157.724 307.726,149.674 311.654 C 143.652 314.593,139.681 308.512,143.631 302.401 C 147.217 296.852,142.859 296.326,138.716 301.808 C 131.836 310.911,134.269 320.548,142.400 316.400 C 146.233 314.444,149.124 317.055,146.164 319.799 C 142.764 322.949,134.413 321.171,128.766 316.094 C 117.985 306.401,128.397 288.253,142.113 292.830 M170.786 293.574 C 171.463 294.839,171.305 295.765,168.923 304.476 C 166.396 313.718,166.401 314.320,168.999 313.081 C 170.749 312.246,171.997 310.264,171.999 308.314 C 172.001 305.612,172.314 305.606,181.400 308.152 C 184.641 309.060,183.487 311.663,179.600 312.215 C 173.368 313.100,172.037 314.247,174.501 316.608 C 176.617 318.636,177.371 320.655,177.784 325.400 C 177.918 326.940,178.411 329.438,178.880 330.950 C 180.149 335.043,178.811 336.135,174.567 334.469 C 173.485 334.045,171.825 333.568,170.877 333.410 C 167.654 332.871,167.232 332.143,166.637 326.091 C 166.082 320.449,165.859 319.757,164.984 320.954 C 163.942 322.380,163.440 325.744,163.962 327.815 C 164.787 331.092,163.493 331.813,159.363 330.380 C 158.063 329.930,155.656 329.301,154.014 328.983 C 149.075 328.028,148.723 327.207,151.675 323.530 C 153.839 320.833,159.144 300.354,158.416 297.511 C 157.703 294.729,158.496 294.014,162.344 293.969 C 163.805 293.952,165.720 293.701,166.600 293.411 C 168.986 292.625,170.305 292.676,170.786 293.574 M238.925 297.150 C 244.939 302.748,244.707 307.742,238.605 304.061 C 234.218 301.415,228.981 300.842,227.030 302.793 L 226.218 303.604 227.167 307.302 C 228.334 311.847,228.571 312.327,229.799 312.636 C 231.064 312.953,233.289 311.598,234.367 309.854 C 236.020 307.180,237.871 306.507,238.604 308.315 C 241.548 315.582,240.869 318.681,236.744 316.809 C 234.241 315.673,231.397 315.727,230.612 316.926 C 229.575 318.508,232.410 326.982,234.577 328.781 C 236.205 330.132,235.166 331.718,232.184 332.435 C 231.093 332.697,228.813 333.349,227.118 333.883 C 225.424 334.417,223.444 334.796,222.718 334.727 L 221.400 334.600 221.400 331.000 C 221.400 327.870,221.122 326.409,219.270 319.800 C 216.172 308.742,215.718 307.481,214.186 305.692 C 211.654 302.735,212.199 301.993,217.792 300.781 C 219.968 300.310,223.561 299.313,225.775 298.566 C 234.930 295.477,236.900 295.265,238.925 297.150 M256.414 297.574 C 254.650 300.871,261.298 313.343,265.287 314.219 C 269.124 315.062,268.910 310.204,264.811 303.418 C 261.232 297.493,257.753 295.072,256.414 297.574 M203.763 328.778 C 206.649 331.665,204.191 336.751,200.130 336.293 C 196.124 335.842,194.464 331.618,197.128 328.654 C 198.804 326.788,201.829 326.845,203.763 328.778 " stroke="none" fill="#545454" fill-rule="evenodd"></path></g></svg>